<svg xmlns="http://www.w3.org/2000/svg" xmlns:xlink="http://www.w3.org/1999/xlink" width="125.072" height="125.072" viewBox="0 0 125.072 125.072">
  <defs>
    <clipPath id="clip-path">
      <rect id="Rectángulo_380654" data-name="Rectángulo 380654" width="73.783" height="73.738" fill="none"/>
    </clipPath>
  </defs>
  <g id="Grupo_1082944" data-name="Grupo 1082944" transform="translate(6904 -4399.305)">
    <g id="Grupo_1082455" data-name="Grupo 1082455" transform="translate(-7642 2253.305)">
      <path id="Trazado_608386" data-name="Trazado 608386" d="M62.5,0A62.5,62.5,0,1,1,0,62.5,62.5,62.5,0,0,1,62.5,0Z" transform="translate(738 2146)" fill="#304c8e"/>
      <g id="Group_43_" data-name="Group (43)" transform="translate(831 2239)">
        <path id="Trazado_598926" data-name="Trazado 598926" d="M36.549,16.055,16.055,36.549a15.864,15.864,0,0,0,.655,1.582l21.422-21.42a15.863,15.863,0,0,0-1.582-.655Z" transform="translate(-15.17 -15.17)" fill="#4ca220"/>
        <path id="Trazado_598927" data-name="Trazado 598927" d="M18.367.8.8,18.367a16.022,16.022,0,0,0,.26,1.7L20.065,1.058A16.022,16.022,0,0,0,18.367.8Z" transform="translate(-0.754 -0.754)" fill="#4ca220"/>
        <path id="Trazado_598928" data-name="Trazado 598928" d="M299.7,283.668c0-.137-.008-.274-.01-.41l-16.454,16.453c.137,0,.273.01.41.01a16.091,16.091,0,0,0,1.678-.088l14.289-14.289a16.09,16.09,0,0,0,.088-1.678Z" transform="translate(-267.627 -267.648)" fill="#4ca220"/>
        <path id="Trazado_598929" data-name="Trazado 598929" d="M68.634,46.122q-.611-.481-1.267-.9L45.2,67.389q.42.656.9,1.267Z" transform="translate(-42.708 -42.73)" fill="#4ca220"/>
        <path id="Trazado_598930" data-name="Trazado 598930" d="M0,15.009,15.009,0c-.434.026-.863.07-1.287.131L.131,13.722C.07,14.145.026,14.575,0,15.009Z" fill="#4ca220"/>
        <path id="Trazado_598931" data-name="Trazado 598931" d="M106.76,84.058l-22.7,22.7a16.114,16.114,0,0,0,1.365,1.222l22.559-22.559A16.123,16.123,0,0,0,106.76,84.058Z" transform="translate(-79.426 -79.426)" fill="#4ca220"/>
        <path id="Trazado_598932" data-name="Trazado 598932" d="M159.927,138.548a16.093,16.093,0,0,0-.877-1.6l-22.108,22.108a15.959,15.959,0,0,0,1.6.877Z" transform="translate(-129.396 -129.396)" fill="#4ca220"/>
        <path id="Trazado_598933" data-name="Trazado 598933" d="M28.816,19.794a16.1,16.1,0,0,0-9.022,9.022Z" transform="translate(-18.704 -18.704)" fill="#4ca220"/>
        <path id="Trazado_598934" data-name="Trazado 598934" d="M382.436,392.617a16.085,16.085,0,0,0,10.18-10.18Z" transform="translate(-361.361 -361.361)" fill="#4ca220"/>
        <path id="Trazado_598935" data-name="Trazado 598935" d="M220.714,200.477l-20.237,20.237a15.962,15.962,0,0,0,2.154.537l18.619-18.619A16.154,16.154,0,0,0,220.714,200.477Z" transform="translate(-189.429 -189.429)" fill="#4ca220"/>
      </g>
    </g>
    <g id="Grupo_1082465" data-name="Grupo 1082465" transform="translate(-6878.355 4424.972)">
      <g id="Grupo_1082464" data-name="Grupo 1082464" clip-path="url(#clip-path)">
        <path id="Trazado_837008" data-name="Trazado 837008" d="M36.907,73.733c-8.654,0-17.307.014-25.96,0A10.853,10.853,0,0,1,.051,61.68c.074-.811.414-1.081,1.165-1.067,1.1.019,2.2-.015,3.3,0,.663.011.879-.212.6-.858a13.481,13.481,0,0,1-.719-5.5c.016-6.263,0-12.526.007-18.789,0-5.235,2.574-8.477,7.668-9.529,1.086-.225.932-.905.933-1.593a24.537,24.537,0,0,1,3.571-12.958A23.821,23.821,0,0,1,60.55,21.029a27.449,27.449,0,0,1,.214,3.715c-.013.75.266,1.056,1.05,1.205,4.752.907,7.546,4.327,7.557,9.2.014,6.884,0,13.769.01,20.653a9.043,9.043,0,0,1-.622,3.648c-.468,1.084-.022,1.215.9,1.174,1-.044,2.008.01,3.011,0,.714-.01.982.306,1.055,1.025A10.853,10.853,0,0,1,62.867,73.728c-8.653.02-17.306,0-25.959,0m-.11-26.32c3.061,0,6.122-.041,9.182.021,1.139.023,1.507-.379,1.483-1.494-.058-2.628.015-5.26-.031-7.89-.019-1.121.428-1.539,1.53-1.509,1.816.05,3.637-.05,5.45.032,1.237.056,1.691-.343,1.665-1.624-.071-3.585-.11-7.175-.009-10.759A19.211,19.211,0,0,0,34.84,4.78c-8.3.878-15.555,7.418-16.8,15.665-.75,4.985-.168,10.025-.313,15.038-.027.948.552,1.078,1.308,1.072,1.913-.014,3.827.044,5.738-.017,1.2-.038,1.6.458,1.573,1.615-.052,2.533.051,5.071-.041,7.6-.05,1.354.444,1.72,1.739,1.683,2.915-.082,5.833-.026,8.75-.026m.07,13.2c7.648,0,15.3.012,22.943-.007,2.9-.007,4.8-1.525,4.817-4,.053-7.408.033-14.817.007-22.226a3.75,3.75,0,0,0-2.34-3.494c-1.193-.578-1.515-.37-1.523.955-.013,2.486,0,4.971-.006,7.457,0,1.911-.051,1.958-1.9,1.966-1.769.008-3.539.045-5.305-.012-1.065-.035-1.433.378-1.413,1.427.049,2.532-.032,5.068.032,7.6.032,1.228-.369,1.676-1.642,1.67q-13.622-.065-27.245,0c-1.384.008-1.716-.533-1.686-1.774.06-2.436-.042-4.877.041-7.312.044-1.285-.432-1.678-1.666-1.621-1.765.081-3.538-.032-5.3.037-1.232.048-1.711-.4-1.681-1.655.065-2.676-.009-5.354.032-8.03.015-1.018-.432-1.121-1.241-.852a4.013,4.013,0,0,0-2.654,4.02c-.017,7.17,0,14.34-.012,21.509a4.045,4.045,0,0,0,1.14,3,5.2,5.2,0,0,0,3.954,1.344q11.328-.014,22.656,0M15.488,65.126c-3.011,0-6.021,0-9.032.007-.364,0-.845-.173-1.062.209-.256.449.171.8.4,1.137a6.633,6.633,0,0,0,5.85,2.732q5.806.04,11.613,0c2.831-.017,2.634.485,2.682-2.7.016-1.062-.364-1.423-1.42-1.405-3.01.051-6.021.018-9.032.017m42.779,0H50.525c-2.812,0-2.781,0-2.687,2.845.031.916.342,1.267,1.271,1.261,4.492-.032,8.985.033,13.476-.041a6.349,6.349,0,0,0,5.5-2.842c.575-.865.512-1.247-.645-1.234-3.058.037-6.117.012-9.175.012m-21.378,0c-1.193,0-2.385-.013-3.578,0-2.838.037-2.642-.474-2.687,2.688-.015,1.04.325,1.442,1.4,1.422,2.814-.056,5.629-.018,8.443-.018s2.779,0,2.687-2.835c-.029-.9-.315-1.3-1.257-1.27-1.668.046-3.339.012-5.009.011" transform="translate(0 0)" fill="#fff"/>
        <path id="Trazado_837009" data-name="Trazado 837009" d="M32.654,33.945a6.558,6.558,0,1,1,6.708-6.57,6.656,6.656,0,0,1-6.708,6.57m1.978-6.565a1.92,1.92,0,1,0-1.982,1.984,1.992,1.992,0,0,0,1.982-1.984" transform="translate(-4.432 -3.542)" fill="#fff"/>
        <path id="Trazado_837010" data-name="Trazado 837010" d="M53.4,20.831a6.558,6.558,0,1,1-6.6,6.535,6.653,6.653,0,0,1,6.6-6.535m-1.864,6.557a1.92,1.92,0,1,0,1.882-1.978,1.986,1.986,0,0,0-1.882,1.978" transform="translate(-7.959 -3.542)" fill="#fff"/>
      </g>
    </g>
  </g>
</svg>
