<svg xmlns="http://www.w3.org/2000/svg" xmlns:xlink="http://www.w3.org/1999/xlink" width="505" height="507.427" viewBox="0 0 505 507.427">
  <defs>
    <clipPath id="clip-path">
      <rect id="Rectángulo_380692" data-name="Rectángulo 380692" width="195" height="345" transform="translate(-6653 -406)" fill="#fff" stroke="#707070" stroke-width="1"/>
    </clipPath>
    <clipPath id="clip-path-2">
      <rect id="Rectángulo_380524" data-name="Rectángulo 380524" width="12.582" height="6.648" fill="none"/>
    </clipPath>
    <clipPath id="clip-path-3">
      <rect id="Rectángulo_380525" data-name="Rectángulo 380525" width="12.582" height="1.729" fill="none"/>
    </clipPath>
    <clipPath id="clip-path-4">
      <rect id="Rectángulo_380526" data-name="Rectángulo 380526" width="2.921" height="51.358" fill="none"/>
    </clipPath>
    <clipPath id="clip-path-5">
      <rect id="Rectángulo_380527" data-name="Rectángulo 380527" width="3.285" height="45.56" fill="none"/>
    </clipPath>
    <clipPath id="clip-path-6">
      <rect id="Rectángulo_380530" data-name="Rectángulo 380530" width="42.442" height="28.347" fill="none"/>
    </clipPath>
    <clipPath id="clip-path-7">
      <rect id="Rectángulo_380531" data-name="Rectángulo 380531" width="37.896" height="23.232" fill="none"/>
    </clipPath>
    <clipPath id="clip-path-8">
      <rect id="Rectángulo_380532" data-name="Rectángulo 380532" width="7.606" height="5.618" fill="none"/>
    </clipPath>
    <clipPath id="clip-path-9">
      <rect id="Rectángulo_380551" data-name="Rectángulo 380551" width="40.623" height="41.593" fill="none"/>
    </clipPath>
    <clipPath id="clip-path-10">
      <rect id="Rectángulo_380573" data-name="Rectángulo 380573" width="76.439" height="82.043" fill="none"/>
    </clipPath>
    <clipPath id="clip-path-11">
      <rect id="Rectángulo_380574" data-name="Rectángulo 380574" width="74.15" height="83.563" fill="none"/>
    </clipPath>
    <clipPath id="clip-path-12">
      <rect id="Rectángulo_380575" data-name="Rectángulo 380575" width="53.896" height="79.109" fill="none"/>
    </clipPath>
    <clipPath id="clip-path-13">
      <rect id="Rectángulo_380576" data-name="Rectángulo 380576" width="34.009" height="56.583" fill="none"/>
    </clipPath>
    <clipPath id="clip-path-14">
      <rect id="Rectángulo_380577" data-name="Rectángulo 380577" width="16.919" height="2.422" fill="none"/>
    </clipPath>
  </defs>
  <g id="Grupo_1082921" data-name="Grupo 1082921" transform="translate(7342.001 323.047)">
    <path id="Trazado_837270" data-name="Trazado 837270" d="M0,0H505V507.427H0Z" transform="translate(-7342.001 -323.047)" fill="#d8e0f3"/>
    <rect id="Rectángulo_380685" data-name="Rectángulo 380685" width="317.177" height="63.588" rx="20" transform="translate(-7315.589 -291.132)" fill="#304c8e"/>
    <rect id="Rectángulo_380686" data-name="Rectángulo 380686" width="317.177" height="63.588" rx="20" transform="translate(-7315.589 -103.132)" fill="#304c8e"/>
    <rect id="Rectángulo_380690" data-name="Rectángulo 380690" width="317.177" height="63.588" rx="20" transform="translate(-7315.589 84.868)" fill="#304c8e"/>
    <rect id="Rectángulo_380687" data-name="Rectángulo 380687" width="317.177" height="63.588" rx="20" transform="translate(-7315.589 -228.132)" fill="#60cb28"/>
    <rect id="Rectángulo_380688" data-name="Rectángulo 380688" width="317.177" height="63.588" rx="20" transform="translate(-7315.589 -40.132)" fill="#60cb28"/>
    <rect id="Rectángulo_380689" data-name="Rectángulo 380689" width="317.177" height="63.588" rx="20" transform="translate(-7315.589 -166.132)" fill="#ffe126"/>
    <rect id="Rectángulo_380691" data-name="Rectángulo 380691" width="317.177" height="63.588" rx="20" transform="translate(-7315.589 21.868)" fill="#ffe126"/>
    <g id="Grupo_1082503" data-name="Grupo 1082503" transform="translate(-7272.879 -269.79)">
      <g id="Grupo_20708" data-name="Grupo 20708" transform="translate(0)">
        <path id="Trazado_838308" data-name="Trazado 838308" d="M4.254,17H1.178V4.2H4.254ZM8.982,7.49l.1,1.116a3.225,3.225,0,0,1,2.716-1.292,2.713,2.713,0,0,1,2.219.888,4.226,4.226,0,0,1,.76,2.672V17H11.8V11a1.6,1.6,0,0,0-.29-1.059A1.342,1.342,0,0,0,10.459,9.6a1.413,1.413,0,0,0-1.292.686V17H6.205V7.49ZM19.863,5.126V7.49h1.564V9.547H19.863V13.9a1.111,1.111,0,0,0,.193.747,1.037,1.037,0,0,0,.765.211,4.345,4.345,0,0,0,.738-.053v2.118a5.466,5.466,0,0,1-1.67.255,3.1,3.1,0,0,1-2.259-.721,2.954,2.954,0,0,1-.729-2.188V9.547H15.688V7.49H16.9V5.126Zm7.33,12.05a4.889,4.889,0,0,1-3.542-1.305,4.507,4.507,0,0,1-1.354-3.4v-.246a5.84,5.84,0,0,1,.541-2.575,3.955,3.955,0,0,1,1.578-1.727,4.763,4.763,0,0,1,2.461-.611,4.117,4.117,0,0,1,3.164,1.244,4.887,4.887,0,0,1,1.16,3.467v1.151H25.313a2.135,2.135,0,0,0,.694,1.257,2.066,2.066,0,0,0,1.389.457,2.662,2.662,0,0,0,2.2-.984l1.354,1.6a3.784,3.784,0,0,1-1.569,1.217A5.3,5.3,0,0,1,27.193,17.176ZM26.859,9.6q-1.3,0-1.547,1.723H28.3v-.229a1.467,1.467,0,0,0-.36-1.1A1.434,1.434,0,0,0,26.859,9.6Zm11.285.571-.976-.07a1.752,1.752,0,0,0-1.793.879V17H32.414V7.49h2.777l.1,1.222a2.294,2.294,0,0,1,2.083-1.4,2.888,2.888,0,0,1,.826.105ZM44.306,17a3.344,3.344,0,0,1-.281-.853,2.754,2.754,0,0,1-2.285,1.028,3.374,3.374,0,0,1-2.285-.813,2.588,2.588,0,0,1-.94-2.043,2.66,2.66,0,0,1,1.143-2.338,5.821,5.821,0,0,1,3.322-.791h.914v-.5q0-1.316-1.134-1.316A.927.927,0,0,0,41.7,10.413H38.742a2.655,2.655,0,0,1,1.173-2.239,4.931,4.931,0,0,1,2.993-.86,4.323,4.323,0,0,1,2.874.888,3.086,3.086,0,0,1,1.081,2.435v4.21a4.311,4.311,0,0,0,.4,2V17Zm-1.854-1.934a1.652,1.652,0,0,0,.918-.237,1.487,1.487,0,0,0,.523-.536V12.772h-.861q-1.547,0-1.547,1.389a.848.848,0,0,0,.272.655A.986.986,0,0,0,42.451,15.066Zm10.072-.176a1.317,1.317,0,0,0,.967-.338,1.241,1.241,0,0,0,.334-.945H56.6a3.288,3.288,0,0,1-1.121,2.566,4.168,4.168,0,0,1-2.887,1,4.22,4.22,0,0,1-3.27-1.3,5.125,5.125,0,0,1-1.2-3.6v-.123A5.792,5.792,0,0,1,48.661,9.6a3.872,3.872,0,0,1,1.534-1.7,4.573,4.573,0,0,1,2.373-.593,4.116,4.116,0,0,1,2.944,1.028,3.647,3.647,0,0,1,1.09,2.786H53.824A1.626,1.626,0,0,0,53.464,10a1.244,1.244,0,0,0-.967-.4q-1.151,0-1.345,1.468a10.357,10.357,0,0,0-.062,1.283,4.068,4.068,0,0,0,.343,1.986A1.187,1.187,0,0,0,52.523,14.891Zm9.352,0a1.317,1.317,0,0,0,.967-.338,1.241,1.241,0,0,0,.334-.945h2.777a3.288,3.288,0,0,1-1.121,2.566,4.168,4.168,0,0,1-2.887,1,4.22,4.22,0,0,1-3.27-1.3,5.125,5.125,0,0,1-1.2-3.6v-.123A5.792,5.792,0,0,1,58.012,9.6a3.872,3.872,0,0,1,1.534-1.7,4.573,4.573,0,0,1,2.373-.593,4.116,4.116,0,0,1,2.944,1.028,3.647,3.647,0,0,1,1.09,2.786H63.176A1.626,1.626,0,0,0,62.815,10a1.244,1.244,0,0,0-.967-.4Q60.7,9.6,60.5,11.067a10.357,10.357,0,0,0-.062,1.283,4.068,4.068,0,0,0,.343,1.986A1.187,1.187,0,0,0,61.875,14.891ZM70.33,17H67.359V7.49H70.33ZM67.184,5.038A1.322,1.322,0,0,1,67.641,4a1.943,1.943,0,0,1,2.373,0,1.322,1.322,0,0,1,.457,1.037,1.322,1.322,0,0,1-.457,1.037,1.943,1.943,0,0,1-2.373,0A1.322,1.322,0,0,1,67.184,5.038Zm4.6,7.119a5.613,5.613,0,0,1,.554-2.536,3.96,3.96,0,0,1,1.591-1.709,4.791,4.791,0,0,1,2.435-.6,4.373,4.373,0,0,1,3.366,1.323,5.076,5.076,0,0,1,1.23,3.6v.105a4.925,4.925,0,0,1-1.235,3.529,4.384,4.384,0,0,1-3.344,1.305,4.434,4.434,0,0,1-3.261-1.217,4.761,4.761,0,0,1-1.327-3.3Zm2.962.185a3.538,3.538,0,0,0,.413,1.934,1.376,1.376,0,0,0,1.222.615q1.582,0,1.617-2.435v-.3q0-2.558-1.635-2.558-1.485,0-1.608,2.206ZM76.764,3.5h3.129L77.449,6.26l-2.417,0Zm8.218,3.99.1,1.116a3.225,3.225,0,0,1,2.716-1.292,2.713,2.713,0,0,1,2.219.888,4.226,4.226,0,0,1,.76,2.672V17H87.8V11a1.6,1.6,0,0,0-.29-1.059A1.342,1.342,0,0,0,86.458,9.6a1.413,1.413,0,0,0-1.292.686V17H82.2V7.49Zm20.742,4.825a5.735,5.735,0,0,1-1,3.538,3.2,3.2,0,0,1-2.694,1.323,2.742,2.742,0,0,1-2.153-.958v4.438H96.917V7.49h2.769l.088.879a2.742,2.742,0,0,1,2.241-1.055,3.224,3.224,0,0,1,2.733,1.3,5.805,5.805,0,0,1,.976,3.564Zm-2.962-.185q0-2.531-1.477-2.531a1.394,1.394,0,0,0-1.406.756V14.1a1.439,1.439,0,0,0,1.424.791q1.415,0,1.459-2.443Zm10.02-1.96-.976-.07a1.752,1.752,0,0,0-1.793.879V17h-2.962V7.49h2.777l.1,1.222a2.294,2.294,0,0,1,2.083-1.4,2.888,2.888,0,0,1,.826.105Zm5.5,7a4.889,4.889,0,0,1-3.542-1.305,4.507,4.507,0,0,1-1.354-3.4v-.246a5.84,5.84,0,0,1,.541-2.575,3.955,3.955,0,0,1,1.578-1.727,4.763,4.763,0,0,1,2.461-.611,4.117,4.117,0,0,1,3.164,1.244,4.887,4.887,0,0,1,1.16,3.467v1.151H116.4a2.135,2.135,0,0,0,.694,1.257,2.066,2.066,0,0,0,1.389.457,2.662,2.662,0,0,0,2.2-.984l1.354,1.6a3.784,3.784,0,0,1-1.569,1.217A5.3,5.3,0,0,1,118.283,17.176ZM117.949,9.6q-1.3,0-1.547,1.723h2.988v-.229a1.467,1.467,0,0,0-.36-1.1A1.434,1.434,0,0,0,117.949,9.6Zm9.211,3.876,1.5-5.985h3.12l-3.1,9.51h-3.023l-3.1-9.51h3.129ZM135.791,17H132.82V7.49h2.971ZM132.645,5.038A1.322,1.322,0,0,1,133.1,4a1.943,1.943,0,0,1,2.373,0,1.322,1.322,0,0,1,.457,1.037,1.322,1.322,0,0,1-.457,1.037,1.943,1.943,0,0,1-2.373,0A1.322,1.322,0,0,1,132.645,5.038ZM142.972,17a3.344,3.344,0,0,1-.281-.853,2.754,2.754,0,0,1-2.285,1.028,3.374,3.374,0,0,1-2.285-.813,2.588,2.588,0,0,1-.94-2.043,2.66,2.66,0,0,1,1.143-2.338,5.821,5.821,0,0,1,3.322-.791h.914v-.5q0-1.316-1.134-1.316a.927.927,0,0,0-1.055,1.042h-2.962a2.655,2.655,0,0,1,1.173-2.239,4.931,4.931,0,0,1,2.993-.86,4.323,4.323,0,0,1,2.874.888,3.086,3.086,0,0,1,1.081,2.435v4.21a4.311,4.311,0,0,0,.4,2V17Zm-1.854-1.934a1.652,1.652,0,0,0,.918-.237,1.487,1.487,0,0,0,.523-.536V12.772H141.7q-1.547,0-1.547,1.389a.848.848,0,0,0,.272.655A.986.986,0,0,0,141.117,15.066Z" fill="#fff"/>
      </g>
    </g>
    <g id="Grupo_1082504" data-name="Grupo 1082504" transform="translate(-7272.879 -81.79)">
      <g id="Grupo_20708-2" data-name="Grupo 20708" transform="translate(0)">
        <path id="Trazado_838311" data-name="Trazado 838311" d="M8.235,14.609H4.008L3.27,17h-3.3L4.667,4.2h2.9L12.3,17H8.982ZM4.746,12.228H7.5L6.117,7.789ZM15.39,7.49l.1,1.116A3.225,3.225,0,0,1,18.2,7.314a2.713,2.713,0,0,1,2.219.888,4.226,4.226,0,0,1,.76,2.672V17H18.211V11a1.6,1.6,0,0,0-.29-1.059A1.342,1.342,0,0,0,16.866,9.6a1.413,1.413,0,0,0-1.292.686V17H12.612V7.49ZM28.178,17a3.344,3.344,0,0,1-.281-.853,2.754,2.754,0,0,1-2.285,1.028,3.374,3.374,0,0,1-2.285-.813,2.588,2.588,0,0,1-.94-2.043,2.66,2.66,0,0,1,1.143-2.338,5.821,5.821,0,0,1,3.322-.791h.914v-.5q0-1.316-1.134-1.316a.927.927,0,0,0-1.055,1.042H22.614a2.655,2.655,0,0,1,1.173-2.239,4.931,4.931,0,0,1,2.993-.86,4.323,4.323,0,0,1,2.874.888,3.086,3.086,0,0,1,1.081,2.435v4.21a4.311,4.311,0,0,0,.4,2V17Zm-1.854-1.934a1.652,1.652,0,0,0,.918-.237,1.487,1.487,0,0,0,.523-.536V12.772H26.9q-1.547,0-1.547,1.389a.848.848,0,0,0,.272.655A.986.986,0,0,0,26.323,15.066ZM27.062,3.5H30.19L27.747,6.26l-2.417,0ZM35.5,17H32.528V3.5H35.5Zm4.948,0H37.477V7.49h2.971ZM37.3,5.038A1.322,1.322,0,0,1,37.758,4a1.943,1.943,0,0,1,2.373,0,1.322,1.322,0,0,1,.457,1.037,1.322,1.322,0,0,1-.457,1.037,1.943,1.943,0,0,1-2.373,0A1.322,1.322,0,0,1,37.3,5.038Zm9.949,9.29a.684.684,0,0,0-.4-.606,6.016,6.016,0,0,0-1.5-.475,6.853,6.853,0,0,1-1.828-.646,3.062,3.062,0,0,1-1.1-.971,2.319,2.319,0,0,1-.378-1.31,2.628,2.628,0,0,1,1.081-2.158,4.453,4.453,0,0,1,2.83-.848,4.934,4.934,0,0,1,3.023.853,2.666,2.666,0,0,1,1.143,2.241H47.153q0-1.143-1.2-1.143a1.194,1.194,0,0,0-.782.259.8.8,0,0,0-.316.646.737.737,0,0,0,.387.642,3.654,3.654,0,0,0,1.235.4,10.671,10.671,0,0,1,1.49.378,2.706,2.706,0,0,1,2.145,2.646,2.491,2.491,0,0,1-1.156,2.118,5.068,5.068,0,0,1-2.993.817,5.172,5.172,0,0,1-2.18-.439,3.645,3.645,0,0,1-1.494-1.2,2.707,2.707,0,0,1-.536-1.591h2.769a1.145,1.145,0,0,0,.439.962,1.808,1.808,0,0,0,1.081.3,1.422,1.422,0,0,0,.91-.246A.787.787,0,0,0,47.25,14.328ZM54.615,17H51.645V7.49h2.971ZM51.469,5.038A1.322,1.322,0,0,1,51.926,4,1.943,1.943,0,0,1,54.3,4a1.322,1.322,0,0,1,.457,1.037A1.322,1.322,0,0,1,54.3,6.075a1.943,1.943,0,0,1-2.373,0A1.322,1.322,0,0,1,51.469,5.038Zm9.949,9.29a.684.684,0,0,0-.4-.606,6.016,6.016,0,0,0-1.5-.475,6.853,6.853,0,0,1-1.828-.646,3.062,3.062,0,0,1-1.1-.971,2.319,2.319,0,0,1-.378-1.31A2.628,2.628,0,0,1,57.3,8.163a4.453,4.453,0,0,1,2.83-.848,4.934,4.934,0,0,1,3.023.853,2.666,2.666,0,0,1,1.143,2.241H61.321q0-1.143-1.2-1.143a1.194,1.194,0,0,0-.782.259.8.8,0,0,0-.316.646.737.737,0,0,0,.387.642,3.654,3.654,0,0,0,1.235.4,10.671,10.671,0,0,1,1.49.378,2.706,2.706,0,0,1,2.145,2.646,2.491,2.491,0,0,1-1.156,2.118,5.068,5.068,0,0,1-2.993.817,5.172,5.172,0,0,1-2.18-.439,3.645,3.645,0,0,1-1.494-1.2,2.707,2.707,0,0,1-.536-1.591h2.769a1.145,1.145,0,0,0,.439.962,1.808,1.808,0,0,0,1.081.3,1.422,1.422,0,0,0,.91-.246A.787.787,0,0,0,61.418,14.328Zm8.35-2.153a5.809,5.809,0,0,1,.976-3.56,3.211,3.211,0,0,1,2.725-1.3,2.731,2.731,0,0,1,2.145,1V3.5h2.971V17H75.92l-.149-1.02a2.8,2.8,0,0,1-2.32,1.2,3.205,3.205,0,0,1-2.689-1.3A5.993,5.993,0,0,1,69.768,12.175Zm2.962.185q0,2.531,1.477,2.531a1.458,1.458,0,0,0,1.406-.826V10.443A1.419,1.419,0,0,0,74.224,9.6q-1.371,0-1.485,2.215Zm12.138,4.816a4.889,4.889,0,0,1-3.542-1.305,4.507,4.507,0,0,1-1.354-3.4v-.246a5.84,5.84,0,0,1,.541-2.575A3.955,3.955,0,0,1,82.09,7.925a4.763,4.763,0,0,1,2.461-.611,4.117,4.117,0,0,1,3.164,1.244,4.887,4.887,0,0,1,1.16,3.467v1.151H82.986a2.135,2.135,0,0,0,.694,1.257,2.066,2.066,0,0,0,1.389.457,2.662,2.662,0,0,0,2.2-.984l1.354,1.6a3.784,3.784,0,0,1-1.569,1.217A5.3,5.3,0,0,1,84.867,17.176ZM84.533,9.6q-1.3,0-1.547,1.723h2.988v-.229a1.467,1.467,0,0,0-.36-1.1A1.434,1.434,0,0,0,84.533,9.6Zm18.844,2.725a5.8,5.8,0,0,1-.967,3.595,3.238,3.238,0,0,1-2.725,1.257,2.81,2.81,0,0,1-2.338-1.151L97.225,17H94.57V3.5h2.962V8.255a2.711,2.711,0,0,1,2.136-.94,3.239,3.239,0,0,1,2.742,1.274,5.826,5.826,0,0,1,.967,3.586Zm-2.971-.189a3.866,3.866,0,0,0-.365-1.952A1.229,1.229,0,0,0,98.921,9.6a1.418,1.418,0,0,0-1.389.763v3.773a1.426,1.426,0,0,0,1.406.755,1.258,1.258,0,0,0,1.327-1.018A7.309,7.309,0,0,0,100.406,12.135Zm9.94,3.836a3.054,3.054,0,0,1-2.54,1.2,3,3,0,0,1-2.369-.91,3.826,3.826,0,0,1-.8-2.615V7.49H107.6v6.179a1.065,1.065,0,0,0,1.187,1.222,1.548,1.548,0,0,0,1.45-.729V7.49h2.979V17h-2.777ZM117.958,17h-2.971V3.5h2.971ZM122.5,7.49l.1,1.116a3.225,3.225,0,0,1,2.716-1.292,2.713,2.713,0,0,1,2.219.888,4.226,4.226,0,0,1,.76,2.672V17h-2.971V11a1.6,1.6,0,0,0-.29-1.059,1.342,1.342,0,0,0-1.055-.338,1.413,1.413,0,0,0-1.292.686V17h-2.962V7.49Zm12.032,9.686a4.889,4.889,0,0,1-3.542-1.305,4.507,4.507,0,0,1-1.354-3.4v-.246a5.84,5.84,0,0,1,.541-2.575,3.955,3.955,0,0,1,1.578-1.727,4.763,4.763,0,0,1,2.461-.611,4.117,4.117,0,0,1,3.164,1.244,4.887,4.887,0,0,1,1.16,3.467v1.151h-5.889a2.135,2.135,0,0,0,.694,1.257,2.066,2.066,0,0,0,1.389.457,2.662,2.662,0,0,0,2.2-.984l1.354,1.6a3.784,3.784,0,0,1-1.569,1.217A5.3,5.3,0,0,1,134.534,17.176ZM134.2,9.6q-1.3,0-1.547,1.723h2.988v-.229a1.467,1.467,0,0,0-.36-1.1A1.434,1.434,0,0,0,134.2,9.6Zm11.285.571-.976-.07a1.752,1.752,0,0,0-1.793.879V17h-2.962V7.49h2.777l.1,1.222a2.294,2.294,0,0,1,2.083-1.4,2.888,2.888,0,0,1,.826.105ZM151.646,17a3.344,3.344,0,0,1-.281-.853,2.754,2.754,0,0,1-2.285,1.028,3.374,3.374,0,0,1-2.285-.813,2.588,2.588,0,0,1-.94-2.043A2.66,2.66,0,0,1,147,11.981a5.821,5.821,0,0,1,3.322-.791h.914v-.5q0-1.316-1.134-1.316a.927.927,0,0,0-1.055,1.042h-2.962a2.655,2.655,0,0,1,1.173-2.239,4.931,4.931,0,0,1,2.993-.86,4.323,4.323,0,0,1,2.874.888,3.086,3.086,0,0,1,1.081,2.435v4.21a4.311,4.311,0,0,0,.4,2V17Zm-1.854-1.934a1.652,1.652,0,0,0,.918-.237,1.487,1.487,0,0,0,.523-.536V12.772h-.861q-1.547,0-1.547,1.389a.848.848,0,0,0,.272.655A.986.986,0,0,0,149.792,15.066Zm9.712-1.591,1.5-5.985h3.12l-3.1,9.51H158l-3.1-9.51h3.129ZM168.135,17h-2.971V7.49h2.971ZM164.988,5.038A1.322,1.322,0,0,1,165.445,4a1.943,1.943,0,0,1,2.373,0,1.322,1.322,0,0,1,.457,1.037,1.322,1.322,0,0,1-.457,1.037,1.943,1.943,0,0,1-2.373,0A1.322,1.322,0,0,1,164.988,5.038ZM173.083,17h-2.971V3.5h2.971Zm4.948,0h-2.971V7.49h2.971ZM174.885,5.038A1.322,1.322,0,0,1,175.342,4a1.943,1.943,0,0,1,2.373,0,1.322,1.322,0,0,1,.457,1.037,1.322,1.322,0,0,1-.457,1.037,1.943,1.943,0,0,1-2.373,0A1.322,1.322,0,0,1,174.885,5.038Zm4.6,7.137a5.809,5.809,0,0,1,.976-3.56,3.211,3.211,0,0,1,2.725-1.3,2.731,2.731,0,0,1,2.145,1V3.5H188.3V17h-2.663l-.149-1.02a2.8,2.8,0,0,1-2.32,1.2,3.205,3.205,0,0,1-2.689-1.3A5.993,5.993,0,0,1,179.481,12.175Zm2.962.185q0,2.531,1.477,2.531a1.458,1.458,0,0,0,1.406-.826V10.443a1.419,1.419,0,0,0-1.389-.844q-1.371,0-1.485,2.215ZM195.337,17a3.344,3.344,0,0,1-.281-.853,2.754,2.754,0,0,1-2.285,1.028,3.374,3.374,0,0,1-2.285-.813,2.588,2.588,0,0,1-.94-2.043,2.66,2.66,0,0,1,1.143-2.338,5.821,5.821,0,0,1,3.322-.791h.914v-.5q0-1.316-1.134-1.316a.927.927,0,0,0-1.055,1.042h-2.962a2.655,2.655,0,0,1,1.173-2.239,4.931,4.931,0,0,1,2.993-.86,4.323,4.323,0,0,1,2.874.888,3.086,3.086,0,0,1,1.081,2.435v4.21a4.311,4.311,0,0,0,.4,2V17Zm-1.854-1.934a1.652,1.652,0,0,0,.918-.237,1.487,1.487,0,0,0,.523-.536V12.772h-.861q-1.547,0-1.547,1.389a.848.848,0,0,0,.272.655A.986.986,0,0,0,193.482,15.066Zm5.678-2.892a5.809,5.809,0,0,1,.976-3.56,3.211,3.211,0,0,1,2.725-1.3,2.731,2.731,0,0,1,2.145,1V3.5h2.971V17h-2.663l-.149-1.02a2.8,2.8,0,0,1-2.32,1.2,3.205,3.205,0,0,1-2.689-1.3A5.993,5.993,0,0,1,199.16,12.175Zm2.962.185q0,2.531,1.477,2.531A1.458,1.458,0,0,0,205,14.064V10.443a1.419,1.419,0,0,0-1.389-.844q-1.371,0-1.485,2.215Zm12.138,4.816a4.889,4.889,0,0,1-3.542-1.305,4.507,4.507,0,0,1-1.354-3.4v-.246a5.84,5.84,0,0,1,.541-2.575,3.955,3.955,0,0,1,1.578-1.727,4.763,4.763,0,0,1,2.461-.611,4.117,4.117,0,0,1,3.164,1.244,4.887,4.887,0,0,1,1.16,3.467v1.151h-5.889a2.135,2.135,0,0,0,.694,1.257,2.066,2.066,0,0,0,1.389.457,2.662,2.662,0,0,0,2.2-.984l1.354,1.6a3.784,3.784,0,0,1-1.569,1.217A5.3,5.3,0,0,1,214.26,17.176ZM213.926,9.6q-1.3,0-1.547,1.723h2.988v-.229a1.467,1.467,0,0,0-.36-1.1A1.434,1.434,0,0,0,213.926,9.6Zm10.512,4.729a.684.684,0,0,0-.4-.606,6.016,6.016,0,0,0-1.5-.475,6.853,6.853,0,0,1-1.828-.646,3.062,3.062,0,0,1-1.1-.971,2.319,2.319,0,0,1-.378-1.31,2.628,2.628,0,0,1,1.081-2.158,4.453,4.453,0,0,1,2.83-.848,4.934,4.934,0,0,1,3.023.853,2.666,2.666,0,0,1,1.143,2.241h-2.971q0-1.143-1.2-1.143a1.194,1.194,0,0,0-.782.259.8.8,0,0,0-.316.646.737.737,0,0,0,.387.642,3.654,3.654,0,0,0,1.235.4,10.671,10.671,0,0,1,1.49.378,2.706,2.706,0,0,1,2.145,2.646,2.491,2.491,0,0,1-1.156,2.118,5.068,5.068,0,0,1-2.993.817,5.172,5.172,0,0,1-2.18-.439,3.645,3.645,0,0,1-1.494-1.2,2.707,2.707,0,0,1-.536-1.591H221.7a1.145,1.145,0,0,0,.439.962,1.808,1.808,0,0,0,1.081.3,1.422,1.422,0,0,0,.91-.246A.787.787,0,0,0,224.438,14.328Z" fill="#fff"/>
      </g>
    </g>
    <g id="Grupo_1082508" data-name="Grupo 1082508" transform="translate(-7272.879 106.21)">
      <g id="Grupo_20708-3" data-name="Grupo 20708" transform="translate(0)">
        <text id="Reporting" fill="#fff" font-size="18" font-family="Roboto-BlackItalic, Roboto" font-weight="800" font-style="italic"><tspan x="0" y="19">Reporting</tspan></text>
      </g>
    </g>
    <g id="Grupo_1082505" data-name="Grupo 1082505" transform="translate(-7272.879 -206.79)">
      <g id="Grupo_20708-4" data-name="Grupo 20708" transform="translate(0)">
        <path id="Trazado_838309" data-name="Trazado 838309" d="M5.722,12.474H4.052V17H.967V4.2H6a5.621,5.621,0,0,1,3.56,1.01,3.421,3.421,0,0,1,1.283,2.853,4.155,4.155,0,0,1-.541,2.213A3.837,3.837,0,0,1,8.613,11.7l2.672,5.167V17H7.98ZM4.052,10.1H6a1.751,1.751,0,0,0,1.323-.463A1.788,1.788,0,0,0,7.77,8.347a1.809,1.809,0,0,0-.448-1.3A1.735,1.735,0,0,0,6,6.576H4.052Zm13.122,7.075a4.889,4.889,0,0,1-3.542-1.305,4.507,4.507,0,0,1-1.354-3.4v-.246a5.84,5.84,0,0,1,.541-2.575A3.955,3.955,0,0,1,14.4,7.925a4.763,4.763,0,0,1,2.461-.611,4.117,4.117,0,0,1,3.164,1.244,4.887,4.887,0,0,1,1.16,3.467v1.151H15.293a2.135,2.135,0,0,0,.694,1.257,2.066,2.066,0,0,0,1.389.457,2.662,2.662,0,0,0,2.2-.984l1.354,1.6a3.784,3.784,0,0,1-1.569,1.217A5.3,5.3,0,0,1,17.174,17.176ZM16.84,9.6q-1.3,0-1.547,1.723h2.988v-.229a1.467,1.467,0,0,0-.36-1.1A1.434,1.434,0,0,0,16.84,9.6Zm9.554,5.291a1.317,1.317,0,0,0,.967-.338,1.241,1.241,0,0,0,.334-.945h2.777a3.288,3.288,0,0,1-1.121,2.566,4.168,4.168,0,0,1-2.887,1,4.22,4.22,0,0,1-3.27-1.3,5.125,5.125,0,0,1-1.2-3.6v-.123A5.792,5.792,0,0,1,22.531,9.6a3.872,3.872,0,0,1,1.534-1.7,4.573,4.573,0,0,1,2.373-.593,4.116,4.116,0,0,1,2.944,1.028,3.647,3.647,0,0,1,1.09,2.786H27.694A1.626,1.626,0,0,0,27.334,10a1.244,1.244,0,0,0-.967-.4q-1.151,0-1.345,1.468a10.357,10.357,0,0,0-.062,1.283,4.068,4.068,0,0,0,.343,1.986A1.187,1.187,0,0,0,26.394,14.891Zm4.957-2.733A5.613,5.613,0,0,1,31.9,9.622,3.96,3.96,0,0,1,33.5,7.912a4.791,4.791,0,0,1,2.435-.6A4.373,4.373,0,0,1,39.3,8.637a5.076,5.076,0,0,1,1.23,3.6v.105a4.925,4.925,0,0,1-1.235,3.529,4.384,4.384,0,0,1-3.344,1.305,4.434,4.434,0,0,1-3.261-1.217,4.761,4.761,0,0,1-1.327-3.3Zm2.962.185a3.538,3.538,0,0,0,.413,1.934,1.376,1.376,0,0,0,1.222.615q1.582,0,1.617-2.435v-.3q0-2.558-1.635-2.558-1.485,0-1.608,2.206Zm16.348-.026a5.735,5.735,0,0,1-1,3.538,3.2,3.2,0,0,1-2.694,1.323,2.742,2.742,0,0,1-2.153-.958v4.438H41.854V7.49h2.769l.088.879a2.742,2.742,0,0,1,2.241-1.055,3.224,3.224,0,0,1,2.733,1.3,5.805,5.805,0,0,1,.976,3.564ZM47.7,12.131Q47.7,9.6,46.222,9.6a1.394,1.394,0,0,0-1.406.756V14.1a1.439,1.439,0,0,0,1.424.791q1.415,0,1.459-2.443ZM55.09,17H52.119V7.49H55.09ZM51.943,5.038A1.322,1.322,0,0,1,52.4,4a1.943,1.943,0,0,1,2.373,0,1.322,1.322,0,0,1,.457,1.037,1.322,1.322,0,0,1-.457,1.037,1.943,1.943,0,0,1-2.373,0A1.322,1.322,0,0,1,51.943,5.038ZM60.038,17H57.067V3.5h2.971Zm7.181,0a3.344,3.344,0,0,1-.281-.853,2.754,2.754,0,0,1-2.285,1.028,3.374,3.374,0,0,1-2.285-.813,2.588,2.588,0,0,1-.94-2.043,2.66,2.66,0,0,1,1.143-2.338,5.821,5.821,0,0,1,3.322-.791h.914v-.5q0-1.316-1.134-1.316a.927.927,0,0,0-1.055,1.042H61.655a2.655,2.655,0,0,1,1.173-2.239,4.931,4.931,0,0,1,2.993-.86A4.323,4.323,0,0,1,68.7,8.2a3.086,3.086,0,0,1,1.081,2.435v4.21a4.311,4.311,0,0,0,.4,2V17Zm-1.854-1.934a1.652,1.652,0,0,0,.918-.237,1.487,1.487,0,0,0,.523-.536V12.772h-.861q-1.547,0-1.547,1.389a.848.848,0,0,0,.272.655A.986.986,0,0,0,65.364,15.066Zm10.072-.176a1.317,1.317,0,0,0,.967-.338,1.241,1.241,0,0,0,.334-.945h2.777a3.288,3.288,0,0,1-1.121,2.566,4.168,4.168,0,0,1-2.887,1,4.22,4.22,0,0,1-3.27-1.3,5.125,5.125,0,0,1-1.2-3.6v-.123A5.792,5.792,0,0,1,71.574,9.6a3.872,3.872,0,0,1,1.534-1.7,4.573,4.573,0,0,1,2.373-.593,4.116,4.116,0,0,1,2.944,1.028,3.647,3.647,0,0,1,1.09,2.786H76.737A1.626,1.626,0,0,0,76.377,10a1.244,1.244,0,0,0-.967-.4q-1.151,0-1.345,1.468A10.357,10.357,0,0,0,74,12.351a4.068,4.068,0,0,0,.343,1.986A1.187,1.187,0,0,0,75.437,14.891ZM83.892,17H80.921V7.49h2.971ZM80.745,5.038A1.322,1.322,0,0,1,81.2,4a1.943,1.943,0,0,1,2.373,0,1.322,1.322,0,0,1,.457,1.037,1.322,1.322,0,0,1-.457,1.037,1.943,1.943,0,0,1-2.373,0A1.322,1.322,0,0,1,80.745,5.038Zm4.6,7.119A5.613,5.613,0,0,1,85.9,9.622a3.96,3.96,0,0,1,1.591-1.709,4.791,4.791,0,0,1,2.435-.6,4.373,4.373,0,0,1,3.366,1.323,5.076,5.076,0,0,1,1.23,3.6v.105a4.925,4.925,0,0,1-1.235,3.529,4.384,4.384,0,0,1-3.344,1.305,4.434,4.434,0,0,1-3.261-1.217,4.761,4.761,0,0,1-1.327-3.3Zm2.962.185a3.538,3.538,0,0,0,.413,1.934,1.376,1.376,0,0,0,1.222.615q1.582,0,1.617-2.435v-.3q0-2.558-1.635-2.558-1.485,0-1.608,2.206ZM90.325,3.5h3.129L91.011,6.26l-2.417,0Zm8.218,3.99.1,1.116a3.225,3.225,0,0,1,2.716-1.292,2.713,2.713,0,0,1,2.219.888,4.226,4.226,0,0,1,.76,2.672V17h-2.971V11a1.6,1.6,0,0,0-.29-1.059A1.342,1.342,0,0,0,100.02,9.6a1.413,1.413,0,0,0-1.292.686V17H95.766V7.49Zm11.54,4.685a5.809,5.809,0,0,1,.976-3.56,3.211,3.211,0,0,1,2.725-1.3,2.731,2.731,0,0,1,2.145,1V3.5H118.9V17h-2.663l-.149-1.02a2.8,2.8,0,0,1-2.32,1.2,3.205,3.205,0,0,1-2.689-1.3A5.993,5.993,0,0,1,110.083,12.175Zm2.962.185q0,2.531,1.477,2.531a1.458,1.458,0,0,0,1.406-.826V10.443a1.419,1.419,0,0,0-1.389-.844q-1.371,0-1.485,2.215Zm12.138,4.816a4.889,4.889,0,0,1-3.542-1.305,4.507,4.507,0,0,1-1.354-3.4v-.246a5.84,5.84,0,0,1,.541-2.575,3.955,3.955,0,0,1,1.578-1.727,4.763,4.763,0,0,1,2.461-.611,4.117,4.117,0,0,1,3.164,1.244,4.887,4.887,0,0,1,1.16,3.467v1.151H123.3A2.135,2.135,0,0,0,124,14.434a2.066,2.066,0,0,0,1.389.457,2.662,2.662,0,0,0,2.2-.984l1.354,1.6a3.784,3.784,0,0,1-1.569,1.217A5.3,5.3,0,0,1,125.183,17.176ZM124.849,9.6q-1.3,0-1.547,1.723h2.988v-.229a1.467,1.467,0,0,0-.36-1.1A1.434,1.434,0,0,0,124.849,9.6Zm13.14,7.4h-2.971V7.49h2.971ZM134.842,5.038A1.322,1.322,0,0,1,135.3,4a1.943,1.943,0,0,1,2.373,0,1.322,1.322,0,0,1,.457,1.037,1.322,1.322,0,0,1-.457,1.037,1.943,1.943,0,0,1-2.373,0A1.322,1.322,0,0,1,134.842,5.038Zm7.69,2.452.1,1.116a3.225,3.225,0,0,1,2.716-1.292,2.713,2.713,0,0,1,2.219.888,4.226,4.226,0,0,1,.76,2.672V17h-2.971V11a1.6,1.6,0,0,0-.29-1.059,1.342,1.342,0,0,0-1.055-.338,1.413,1.413,0,0,0-1.292.686V17h-2.962V7.49ZM150.618,17V9.547h-1.38V7.49h1.38V6.734a3.286,3.286,0,0,1,.958-2.522,3.785,3.785,0,0,1,2.689-.9,5.89,5.89,0,0,1,1.389.185l.009,2.18a2.706,2.706,0,0,0-.729-.079q-1.345,0-1.345,1.16V7.49h1.854V9.547h-1.854V17Zm5.493-4.843a5.613,5.613,0,0,1,.554-2.536,3.96,3.96,0,0,1,1.591-1.709,4.791,4.791,0,0,1,2.435-.6,4.373,4.373,0,0,1,3.366,1.323,5.076,5.076,0,0,1,1.23,3.6v.105a4.925,4.925,0,0,1-1.235,3.529,4.384,4.384,0,0,1-3.344,1.305,4.434,4.434,0,0,1-3.261-1.217,4.761,4.761,0,0,1-1.327-3.3Zm2.962.185a3.538,3.538,0,0,0,.413,1.934,1.376,1.376,0,0,0,1.222.615q1.582,0,1.617-2.435v-.3q0-2.558-1.635-2.558-1.485,0-1.608,2.206Zm13.271-2.171-.976-.07a1.752,1.752,0,0,0-1.793.879V17h-2.962V7.49h2.777l.1,1.222a2.294,2.294,0,0,1,2.083-1.4,2.888,2.888,0,0,1,.826.105Zm3.867-2.681.1,1.116a3.27,3.27,0,0,1,2.716-1.292,2.407,2.407,0,0,1,2.435,1.433,3.165,3.165,0,0,1,2.795-1.433q2.892,0,2.971,3.5V17h-2.971V11a1.813,1.813,0,0,0-.246-1.063,1.048,1.048,0,0,0-.9-.334,1.4,1.4,0,0,0-1.31.782l.009.123V17H178.84V11.015a1.906,1.906,0,0,0-.237-1.081A1.045,1.045,0,0,0,177.7,9.6a1.42,1.42,0,0,0-1.3.782V17h-2.962V7.49ZM194.273,17a3.344,3.344,0,0,1-.281-.853,2.754,2.754,0,0,1-2.285,1.028,3.374,3.374,0,0,1-2.285-.813,2.588,2.588,0,0,1-.94-2.043,2.66,2.66,0,0,1,1.143-2.338,5.821,5.821,0,0,1,3.322-.791h.914v-.5q0-1.316-1.134-1.316a.927.927,0,0,0-1.055,1.042H188.71a2.655,2.655,0,0,1,1.173-2.239,4.931,4.931,0,0,1,2.993-.86,4.323,4.323,0,0,1,2.874.888,3.086,3.086,0,0,1,1.081,2.435v4.21a4.311,4.311,0,0,0,.4,2V17Zm-1.854-1.934a1.652,1.652,0,0,0,.918-.237,1.487,1.487,0,0,0,.523-.536V12.772H193q-1.547,0-1.547,1.389a.848.848,0,0,0,.272.655A.986.986,0,0,0,192.419,15.066Zm10.072-.176a1.317,1.317,0,0,0,.967-.338,1.241,1.241,0,0,0,.334-.945h2.777a3.288,3.288,0,0,1-1.121,2.566,4.168,4.168,0,0,1-2.887,1,4.22,4.22,0,0,1-3.27-1.3,5.125,5.125,0,0,1-1.2-3.6v-.123a5.792,5.792,0,0,1,.532-2.544,3.872,3.872,0,0,1,1.534-1.7,4.573,4.573,0,0,1,2.373-.593,4.116,4.116,0,0,1,2.944,1.028,3.647,3.647,0,0,1,1.09,2.786h-2.777a1.626,1.626,0,0,0-.36-1.134,1.244,1.244,0,0,0-.967-.4q-1.151,0-1.345,1.468a10.357,10.357,0,0,0-.062,1.283,4.068,4.068,0,0,0,.343,1.986A1.187,1.187,0,0,0,202.491,14.891ZM210.946,17h-2.971V7.49h2.971ZM207.8,5.038A1.322,1.322,0,0,1,208.257,4a1.943,1.943,0,0,1,2.373,0,1.322,1.322,0,0,1,.457,1.037,1.322,1.322,0,0,1-.457,1.037,1.943,1.943,0,0,1-2.373,0A1.322,1.322,0,0,1,207.8,5.038Zm4.6,7.119a5.613,5.613,0,0,1,.554-2.536,3.96,3.96,0,0,1,1.591-1.709,4.791,4.791,0,0,1,2.435-.6,4.373,4.373,0,0,1,3.366,1.323,5.076,5.076,0,0,1,1.23,3.6v.105a4.925,4.925,0,0,1-1.235,3.529,4.384,4.384,0,0,1-3.344,1.305,4.434,4.434,0,0,1-3.261-1.217,4.761,4.761,0,0,1-1.327-3.3Zm2.962.185a3.538,3.538,0,0,0,.413,1.934,1.376,1.376,0,0,0,1.222.615q1.582,0,1.617-2.435v-.3q0-2.558-1.635-2.558-1.485,0-1.608,2.206ZM217.38,3.5h3.129l-2.443,2.76-2.417,0ZM225.6,7.49l.1,1.116a3.225,3.225,0,0,1,2.716-1.292,2.713,2.713,0,0,1,2.219.888,4.226,4.226,0,0,1,.76,2.672V17h-2.971V11a1.6,1.6,0,0,0-.29-1.059,1.342,1.342,0,0,0-1.055-.338,1.413,1.413,0,0,0-1.292.686V17H222.82V7.49Z" fill="#12263f"/>
      </g>
    </g>
    <g id="Grupo_1082506" data-name="Grupo 1082506" transform="translate(-7272.879 -18.79)">
      <g id="Grupo_20708-5" data-name="Grupo 20708" transform="translate(0)">
        <path id="Trazado_838312" data-name="Trazado 838312" d="M8.9,11.568H4.052v3.059h5.73V17H.967V4.2H9.8V6.585H4.052v2.7H8.9Zm5.854-1.459,1.38-2.619h3.076l-2.5,4.632L19.336,17H16.242l-1.494-2.812L13.28,17H10.169l2.637-4.878L10.31,7.49h3.111ZM29,12.315a5.735,5.735,0,0,1-1,3.538A3.2,3.2,0,0,1,25.3,17.176a2.742,2.742,0,0,1-2.153-.958v4.438H20.188V7.49h2.769l.088.879a2.742,2.742,0,0,1,2.241-1.055,3.224,3.224,0,0,1,2.733,1.3A5.805,5.805,0,0,1,29,12.175Zm-2.962-.185q0-2.531-1.477-2.531a1.394,1.394,0,0,0-1.406.756V14.1a1.439,1.439,0,0,0,1.424.791q1.415,0,1.459-2.443ZM33.425,17H30.454V3.5h2.971Zm1.45-4.843a5.613,5.613,0,0,1,.554-2.536A3.96,3.96,0,0,1,37.02,7.912a4.791,4.791,0,0,1,2.435-.6A4.373,4.373,0,0,1,42.82,8.637a5.076,5.076,0,0,1,1.23,3.6v.105a4.925,4.925,0,0,1-1.235,3.529,4.384,4.384,0,0,1-3.344,1.305,4.434,4.434,0,0,1-3.261-1.217,4.761,4.761,0,0,1-1.327-3.3Zm2.962.185a3.538,3.538,0,0,0,.413,1.934,1.376,1.376,0,0,0,1.222.615q1.582,0,1.617-2.435v-.3q0-2.558-1.635-2.558-1.485,0-1.608,2.206ZM48.806,5.126V7.49H50.37V9.547H48.806V13.9a1.111,1.111,0,0,0,.193.747,1.037,1.037,0,0,0,.765.211A4.345,4.345,0,0,0,50.5,14.8v2.118a5.466,5.466,0,0,1-1.67.255,3.1,3.1,0,0,1-2.259-.721,2.954,2.954,0,0,1-.729-2.188V9.547H44.631V7.49h1.213V5.126ZM56.892,17a3.344,3.344,0,0,1-.281-.853,2.754,2.754,0,0,1-2.285,1.028,3.374,3.374,0,0,1-2.285-.813,2.588,2.588,0,0,1-.94-2.043,2.66,2.66,0,0,1,1.143-2.338,5.821,5.821,0,0,1,3.322-.791h.914v-.5q0-1.316-1.134-1.316a.927.927,0,0,0-1.055,1.042H51.328A2.655,2.655,0,0,1,52.5,8.175a4.931,4.931,0,0,1,2.993-.86,4.323,4.323,0,0,1,2.874.888,3.086,3.086,0,0,1,1.081,2.435v4.21a4.311,4.311,0,0,0,.4,2V17Zm-1.854-1.934a1.652,1.652,0,0,0,.918-.237,1.487,1.487,0,0,0,.523-.536V12.772h-.861q-1.547,0-1.547,1.389a.848.848,0,0,0,.272.655A.986.986,0,0,0,55.037,15.066Zm10.072-.176a1.317,1.317,0,0,0,.967-.338,1.241,1.241,0,0,0,.334-.945h2.777a3.288,3.288,0,0,1-1.121,2.566,4.168,4.168,0,0,1-2.887,1,4.22,4.22,0,0,1-3.27-1.3,5.125,5.125,0,0,1-1.2-3.6v-.123A5.792,5.792,0,0,1,61.247,9.6a3.872,3.872,0,0,1,1.534-1.7,4.573,4.573,0,0,1,2.373-.593A4.116,4.116,0,0,1,68.1,8.343a3.647,3.647,0,0,1,1.09,2.786H66.41A1.626,1.626,0,0,0,66.05,10a1.244,1.244,0,0,0-.967-.4q-1.151,0-1.345,1.468a10.357,10.357,0,0,0-.062,1.283,4.068,4.068,0,0,0,.343,1.986A1.187,1.187,0,0,0,65.109,14.891ZM73.564,17H70.594V7.49h2.971ZM70.418,5.038A1.322,1.322,0,0,1,70.875,4a1.943,1.943,0,0,1,2.373,0,1.322,1.322,0,0,1,.457,1.037,1.322,1.322,0,0,1-.457,1.037,1.943,1.943,0,0,1-2.373,0A1.322,1.322,0,0,1,70.418,5.038Zm4.6,7.119a5.613,5.613,0,0,1,.554-2.536,3.96,3.96,0,0,1,1.591-1.709,4.791,4.791,0,0,1,2.435-.6A4.373,4.373,0,0,1,82.96,8.637a5.076,5.076,0,0,1,1.23,3.6v.105a4.925,4.925,0,0,1-1.235,3.529,4.384,4.384,0,0,1-3.344,1.305,4.434,4.434,0,0,1-3.261-1.217,4.761,4.761,0,0,1-1.327-3.3Zm2.962.185a3.538,3.538,0,0,0,.413,1.934,1.376,1.376,0,0,0,1.222.615q1.582,0,1.617-2.435v-.3q0-2.558-1.635-2.558-1.485,0-1.608,2.206ZM80,3.5h3.129L80.684,6.26l-2.417,0Zm8.218,3.99.1,1.116a3.225,3.225,0,0,1,2.716-1.292,2.713,2.713,0,0,1,2.219.888,4.226,4.226,0,0,1,.76,2.672V17H91.037V11a1.6,1.6,0,0,0-.29-1.059A1.342,1.342,0,0,0,89.692,9.6a1.413,1.413,0,0,0-1.292.686V17H85.438V7.49Z" fill="#12263f"/>
      </g>
    </g>
    <g id="Grupo_1082507" data-name="Grupo 1082507" transform="translate(-7272.879 -144.79)">
      <g id="Grupo_20708-6" data-name="Grupo 20708" transform="translate(0)">
        <path id="Trazado_838310" data-name="Trazado 838310" d="M5.019,4.2l2.856,8.9,2.848-8.9h4.061V17H11.689V14.012l.3-6.117L8.895,17H6.855l-3.1-9.114.3,6.126V17H.967V4.2Zm11.215,7.954a5.613,5.613,0,0,1,.554-2.536,3.96,3.96,0,0,1,1.591-1.709,4.791,4.791,0,0,1,2.435-.6,4.373,4.373,0,0,1,3.366,1.323,5.076,5.076,0,0,1,1.23,3.6v.105a4.925,4.925,0,0,1-1.235,3.529,4.384,4.384,0,0,1-3.344,1.305,4.434,4.434,0,0,1-3.261-1.217,4.761,4.761,0,0,1-1.327-3.3Zm2.962.185a3.538,3.538,0,0,0,.413,1.934,1.376,1.376,0,0,0,1.222.615q1.582,0,1.617-2.435v-.3q0-2.558-1.635-2.558-1.485,0-1.608,2.206Zm7.146-.167a5.809,5.809,0,0,1,.976-3.56,3.211,3.211,0,0,1,2.725-1.3,2.731,2.731,0,0,1,2.145,1V3.5h2.971V17H32.493l-.149-1.02a2.8,2.8,0,0,1-2.32,1.2,3.205,3.205,0,0,1-2.689-1.3A5.993,5.993,0,0,1,26.341,12.175Zm2.962.185q0,2.531,1.477,2.531a1.458,1.458,0,0,0,1.406-.826V10.443A1.419,1.419,0,0,0,30.8,9.6q-1.371,0-1.485,2.215ZM41.44,17.176A4.889,4.889,0,0,1,37.9,15.871a4.507,4.507,0,0,1-1.354-3.4v-.246a5.84,5.84,0,0,1,.541-2.575,3.955,3.955,0,0,1,1.578-1.727,4.763,4.763,0,0,1,2.461-.611,4.117,4.117,0,0,1,3.164,1.244,4.887,4.887,0,0,1,1.16,3.467v1.151H39.56a2.135,2.135,0,0,0,.694,1.257,2.066,2.066,0,0,0,1.389.457,2.662,2.662,0,0,0,2.2-.984l1.354,1.6a3.784,3.784,0,0,1-1.569,1.217A5.3,5.3,0,0,1,41.44,17.176ZM41.106,9.6q-1.3,0-1.547,1.723h2.988v-.229a1.467,1.467,0,0,0-.36-1.1A1.434,1.434,0,0,0,41.106,9.6ZM49.764,17H46.793V3.5h2.971Zm1.45-4.843a5.613,5.613,0,0,1,.554-2.536,3.96,3.96,0,0,1,1.591-1.709,4.791,4.791,0,0,1,2.435-.6,4.373,4.373,0,0,1,3.366,1.323,5.076,5.076,0,0,1,1.23,3.6v.105a4.925,4.925,0,0,1-1.235,3.529,4.384,4.384,0,0,1-3.344,1.305,4.434,4.434,0,0,1-3.261-1.217,4.761,4.761,0,0,1-1.327-3.3Zm2.962.185a3.538,3.538,0,0,0,.413,1.934,1.376,1.376,0,0,0,1.222.615q1.582,0,1.617-2.435v-.3q0-2.558-1.635-2.558-1.485,0-1.608,2.206ZM65.8,12.175a5.809,5.809,0,0,1,.976-3.56,3.211,3.211,0,0,1,2.725-1.3,2.731,2.731,0,0,1,2.145,1V3.5h2.971V17H71.956l-.149-1.02a2.8,2.8,0,0,1-2.32,1.2,3.205,3.205,0,0,1-2.689-1.3A5.993,5.993,0,0,1,65.8,12.175Zm2.962.185q0,2.531,1.477,2.531a1.458,1.458,0,0,0,1.406-.826V10.443A1.419,1.419,0,0,0,70.26,9.6q-1.371,0-1.485,2.215ZM80.9,17.176a4.889,4.889,0,0,1-3.542-1.305,4.507,4.507,0,0,1-1.354-3.4v-.246a5.84,5.84,0,0,1,.541-2.575,3.955,3.955,0,0,1,1.578-1.727,4.763,4.763,0,0,1,2.461-.611,4.117,4.117,0,0,1,3.164,1.244,4.887,4.887,0,0,1,1.16,3.467v1.151H79.022a2.135,2.135,0,0,0,.694,1.257,2.066,2.066,0,0,0,1.389.457,2.662,2.662,0,0,0,2.2-.984l1.354,1.6a3.784,3.784,0,0,1-1.569,1.217A5.3,5.3,0,0,1,80.9,17.176ZM80.569,9.6q-1.3,0-1.547,1.723h2.988v-.229a1.467,1.467,0,0,0-.36-1.1A1.434,1.434,0,0,0,80.569,9.6ZM95.941,17a3.344,3.344,0,0,1-.281-.853,2.754,2.754,0,0,1-2.285,1.028,3.374,3.374,0,0,1-2.285-.813,2.588,2.588,0,0,1-.94-2.043,2.66,2.66,0,0,1,1.143-2.338,5.821,5.821,0,0,1,3.322-.791h.914v-.5q0-1.316-1.134-1.316a.927.927,0,0,0-1.055,1.042H90.378a2.655,2.655,0,0,1,1.173-2.239,4.931,4.931,0,0,1,2.993-.86,4.323,4.323,0,0,1,2.874.888A3.086,3.086,0,0,1,98.5,10.637v4.21a4.311,4.311,0,0,0,.4,2V17Zm-1.854-1.934a1.652,1.652,0,0,0,.918-.237,1.487,1.487,0,0,0,.523-.536V12.772h-.861q-1.547,0-1.547,1.389a.848.848,0,0,0,.272.655A.986.986,0,0,0,94.087,15.066Zm8.851-7.576.1,1.116a3.27,3.27,0,0,1,2.716-1.292,2.407,2.407,0,0,1,2.435,1.433,3.165,3.165,0,0,1,2.795-1.433q2.892,0,2.971,3.5V17h-2.971V11a1.813,1.813,0,0,0-.246-1.063,1.048,1.048,0,0,0-.9-.334,1.4,1.4,0,0,0-1.31.782l.009.123V17h-2.971V11.015a1.906,1.906,0,0,0-.237-1.081,1.045,1.045,0,0,0-.905-.334,1.42,1.42,0,0,0-1.3.782V17H100.16V7.49Zm17.306,9.686a4.889,4.889,0,0,1-3.542-1.305,4.507,4.507,0,0,1-1.354-3.4v-.246a5.84,5.84,0,0,1,.541-2.575,3.955,3.955,0,0,1,1.578-1.727,4.763,4.763,0,0,1,2.461-.611,4.117,4.117,0,0,1,3.164,1.244,4.887,4.887,0,0,1,1.16,3.467v1.151h-5.889a2.135,2.135,0,0,0,.694,1.257,2.066,2.066,0,0,0,1.389.457,2.662,2.662,0,0,0,2.2-.984l1.354,1.6a3.784,3.784,0,0,1-1.569,1.217A5.3,5.3,0,0,1,120.243,17.176ZM119.909,9.6q-1.3,0-1.547,1.723h2.988v-.229a1.467,1.467,0,0,0-.36-1.1A1.434,1.434,0,0,0,119.909,9.6Zm8.253-2.109.1,1.116a3.225,3.225,0,0,1,2.716-1.292,2.713,2.713,0,0,1,2.219.888,4.226,4.226,0,0,1,.76,2.672V17h-2.971V11a1.6,1.6,0,0,0-.29-1.059,1.342,1.342,0,0,0-1.055-.338,1.413,1.413,0,0,0-1.292.686V17h-2.962V7.49ZM140.95,17a3.344,3.344,0,0,1-.281-.853,2.754,2.754,0,0,1-2.285,1.028,3.374,3.374,0,0,1-2.285-.813,2.588,2.588,0,0,1-.94-2.043,2.66,2.66,0,0,1,1.143-2.338,5.821,5.821,0,0,1,3.322-.791h.914v-.5q0-1.316-1.134-1.316a.927.927,0,0,0-1.055,1.042h-2.962a2.655,2.655,0,0,1,1.173-2.239,4.931,4.931,0,0,1,2.993-.86,4.323,4.323,0,0,1,2.874.888,3.086,3.086,0,0,1,1.081,2.435v4.21a4.311,4.311,0,0,0,.4,2V17ZM139.1,15.066a1.652,1.652,0,0,0,.918-.237,1.487,1.487,0,0,0,.523-.536V12.772h-.861q-1.547,0-1.547,1.389a.848.848,0,0,0,.272.655A.986.986,0,0,0,139.1,15.066Zm9.545-.352h4.333V17H144.9V15.348l4.219-5.572h-4.034V7.49h7.8v1.6ZM159.768,17a3.344,3.344,0,0,1-.281-.853,2.754,2.754,0,0,1-2.285,1.028,3.374,3.374,0,0,1-2.285-.813,2.588,2.588,0,0,1-.94-2.043,2.66,2.66,0,0,1,1.143-2.338,5.821,5.821,0,0,1,3.322-.791h.914v-.5q0-1.316-1.134-1.316a.927.927,0,0,0-1.055,1.042H154.2a2.655,2.655,0,0,1,1.173-2.239,4.931,4.931,0,0,1,2.993-.86,4.323,4.323,0,0,1,2.874.888,3.086,3.086,0,0,1,1.081,2.435v4.21a4.311,4.311,0,0,0,.4,2V17Zm-1.854-1.934a1.652,1.652,0,0,0,.918-.237,1.487,1.487,0,0,0,.523-.536V12.772h-.861q-1.547,0-1.547,1.389a.848.848,0,0,0,.272.655A.986.986,0,0,0,157.913,15.066Zm11.03-.738a.684.684,0,0,0-.4-.606,6.016,6.016,0,0,0-1.5-.475,6.853,6.853,0,0,1-1.828-.646,3.062,3.062,0,0,1-1.1-.971,2.319,2.319,0,0,1-.378-1.31,2.628,2.628,0,0,1,1.081-2.158,4.453,4.453,0,0,1,2.83-.848,4.934,4.934,0,0,1,3.023.853,2.666,2.666,0,0,1,1.143,2.241h-2.971q0-1.143-1.2-1.143a1.194,1.194,0,0,0-.782.259.8.8,0,0,0-.316.646.737.737,0,0,0,.387.642,3.654,3.654,0,0,0,1.235.4,10.671,10.671,0,0,1,1.49.378A2.706,2.706,0,0,1,171.8,14.24a2.491,2.491,0,0,1-1.156,2.118,5.068,5.068,0,0,1-2.993.817,5.172,5.172,0,0,1-2.18-.439,3.645,3.645,0,0,1-1.494-1.2,2.707,2.707,0,0,1-.536-1.591h2.769a1.145,1.145,0,0,0,.439.962,1.808,1.808,0,0,0,1.081.3,1.422,1.422,0,0,0,.91-.246A.787.787,0,0,0,168.943,14.328Z" fill="#12263f"/>
      </g>
    </g>
    <g id="Grupo_1082509" data-name="Grupo 1082509" transform="translate(-7272.879 43.21)">
      <g id="Grupo_20708-7" data-name="Grupo 20708" transform="translate(0)">
        <path id="Trazado_838313" data-name="Trazado 838313" d="M4.052,12.658V17H.967V4.2H6.073a5.948,5.948,0,0,1,2.6.541,4.074,4.074,0,0,1,1.749,1.538,4.2,4.2,0,0,1,.62,2.263A3.7,3.7,0,0,1,9.7,11.538a5.561,5.561,0,0,1-3.678,1.121Zm0-2.382H6.073A1.906,1.906,0,0,0,7.44,9.828a1.665,1.665,0,0,0,.47-1.266A2.059,2.059,0,0,0,7.427,7.13a1.712,1.712,0,0,0-1.318-.545H4.052Zm8.007,1.881a5.613,5.613,0,0,1,.554-2.536A3.96,3.96,0,0,1,14.2,7.912a4.791,4.791,0,0,1,2.435-.6A4.373,4.373,0,0,1,20,8.637a5.076,5.076,0,0,1,1.23,3.6v.105A4.925,4.925,0,0,1,20,15.871a4.384,4.384,0,0,1-3.344,1.305,4.434,4.434,0,0,1-3.261-1.217,4.761,4.761,0,0,1-1.327-3.3Zm2.962.185a3.538,3.538,0,0,0,.413,1.934,1.376,1.376,0,0,0,1.222.615q1.582,0,1.617-2.435v-.3q0-2.558-1.635-2.558-1.485,0-1.608,2.206Zm12.5,1.986a.684.684,0,0,0-.4-.606,6.016,6.016,0,0,0-1.5-.475,6.853,6.853,0,0,1-1.828-.646,3.062,3.062,0,0,1-1.1-.971,2.319,2.319,0,0,1-.378-1.31A2.628,2.628,0,0,1,23.4,8.163a4.453,4.453,0,0,1,2.83-.848,4.934,4.934,0,0,1,3.023.853,2.666,2.666,0,0,1,1.143,2.241H27.422q0-1.143-1.2-1.143a1.194,1.194,0,0,0-.782.259.8.8,0,0,0-.316.646.737.737,0,0,0,.387.642,3.654,3.654,0,0,0,1.235.4,10.671,10.671,0,0,1,1.49.378,2.706,2.706,0,0,1,2.145,2.646,2.491,2.491,0,0,1-1.156,2.118,5.068,5.068,0,0,1-2.993.817,5.172,5.172,0,0,1-2.18-.439,3.645,3.645,0,0,1-1.494-1.2,2.707,2.707,0,0,1-.536-1.591h2.769a1.145,1.145,0,0,0,.439.962,1.808,1.808,0,0,0,1.081.3,1.422,1.422,0,0,0,.91-.246A.787.787,0,0,0,27.519,14.328Zm7.69-9.2V7.49h1.564V9.547H35.209V13.9a1.111,1.111,0,0,0,.193.747,1.037,1.037,0,0,0,.765.211,4.345,4.345,0,0,0,.738-.053v2.118a5.466,5.466,0,0,1-1.67.255,3.1,3.1,0,0,1-2.259-.721,2.954,2.954,0,0,1-.729-2.188V9.547H31.034V7.49h1.213V5.126Zm8.517,7.5H38.443V10.338h5.282Zm6.908,4.553a4.889,4.889,0,0,1-3.542-1.305,4.507,4.507,0,0,1-1.354-3.4v-.246a5.84,5.84,0,0,1,.541-2.575,3.955,3.955,0,0,1,1.578-1.727,4.763,4.763,0,0,1,2.461-.611,4.117,4.117,0,0,1,3.164,1.244,4.887,4.887,0,0,1,1.16,3.467v1.151H48.753a2.135,2.135,0,0,0,.694,1.257,2.066,2.066,0,0,0,1.389.457,2.662,2.662,0,0,0,2.2-.984l1.354,1.6a3.784,3.784,0,0,1-1.569,1.217A5.3,5.3,0,0,1,50.634,17.176ZM50.3,9.6q-1.3,0-1.547,1.723h2.988v-.229a1.467,1.467,0,0,0-.36-1.1A1.434,1.434,0,0,0,50.3,9.6Zm9.387.51,1.38-2.619h3.076l-2.5,4.632L64.266,17H61.172l-1.494-2.812L58.21,17H55.1l2.637-4.878-2.5-4.632h3.111Zm14.238,2.206a5.735,5.735,0,0,1-1,3.538,3.2,3.2,0,0,1-2.694,1.323,2.742,2.742,0,0,1-2.153-.958v4.438H65.118V7.49h2.769l.088.879a2.742,2.742,0,0,1,2.241-1.055,3.224,3.224,0,0,1,2.733,1.3,5.805,5.805,0,0,1,.976,3.564Zm-2.962-.185q0-2.531-1.477-2.531a1.394,1.394,0,0,0-1.406.756V14.1a1.439,1.439,0,0,0,1.424.791q1.415,0,1.459-2.443ZM78.354,17H75.384V3.5h2.971ZM83.3,17H80.332V7.49H83.3ZM80.156,5.038A1.322,1.322,0,0,1,80.613,4a1.943,1.943,0,0,1,2.373,0,1.322,1.322,0,0,1,.457,1.037,1.322,1.322,0,0,1-.457,1.037,1.943,1.943,0,0,1-2.373,0A1.322,1.322,0,0,1,80.156,5.038Zm8.42.088V7.49h1.564V9.547H88.576V13.9a1.111,1.111,0,0,0,.193.747,1.037,1.037,0,0,0,.765.211,4.345,4.345,0,0,0,.738-.053v2.118a5.466,5.466,0,0,1-1.67.255,3.1,3.1,0,0,1-2.259-.721,2.954,2.954,0,0,1-.729-2.188V9.547H84.4V7.49h1.213V5.126ZM96.662,17a3.344,3.344,0,0,1-.281-.853A2.754,2.754,0,0,1,94.1,17.176a3.374,3.374,0,0,1-2.285-.813,2.588,2.588,0,0,1-.94-2.043,2.66,2.66,0,0,1,1.143-2.338,5.821,5.821,0,0,1,3.322-.791h.914v-.5q0-1.316-1.134-1.316a.927.927,0,0,0-1.055,1.042H91.1a2.655,2.655,0,0,1,1.173-2.239,4.931,4.931,0,0,1,2.993-.86,4.323,4.323,0,0,1,2.874.888,3.086,3.086,0,0,1,1.081,2.435v4.21a4.311,4.311,0,0,0,.4,2V17Zm-1.854-1.934a1.652,1.652,0,0,0,.918-.237,1.487,1.487,0,0,0,.523-.536V12.772h-.861q-1.547,0-1.547,1.389a.848.848,0,0,0,.272.655A.986.986,0,0,0,94.808,15.066Zm10.072-.176a1.317,1.317,0,0,0,.967-.338,1.241,1.241,0,0,0,.334-.945h2.777a3.288,3.288,0,0,1-1.121,2.566,4.168,4.168,0,0,1-2.887,1,4.22,4.22,0,0,1-3.27-1.3,5.125,5.125,0,0,1-1.2-3.6v-.123a5.792,5.792,0,0,1,.532-2.544,3.872,3.872,0,0,1,1.534-1.7,4.573,4.573,0,0,1,2.373-.593,4.116,4.116,0,0,1,2.944,1.028,3.647,3.647,0,0,1,1.09,2.786h-2.777A1.626,1.626,0,0,0,105.82,10a1.244,1.244,0,0,0-.967-.4q-1.151,0-1.345,1.468a10.357,10.357,0,0,0-.062,1.283,4.068,4.068,0,0,0,.343,1.986A1.187,1.187,0,0,0,104.88,14.891ZM113.335,17h-2.971V7.49h2.971ZM110.188,5.038A1.322,1.322,0,0,1,110.646,4a1.943,1.943,0,0,1,2.373,0,1.322,1.322,0,0,1,.457,1.037,1.322,1.322,0,0,1-.457,1.037,1.943,1.943,0,0,1-2.373,0A1.322,1.322,0,0,1,110.188,5.038Zm4.6,7.119a5.613,5.613,0,0,1,.554-2.536,3.96,3.96,0,0,1,1.591-1.709,4.791,4.791,0,0,1,2.435-.6,4.373,4.373,0,0,1,3.366,1.323,5.076,5.076,0,0,1,1.23,3.6v.105a4.925,4.925,0,0,1-1.235,3.529,4.384,4.384,0,0,1-3.344,1.305,4.434,4.434,0,0,1-3.261-1.217,4.761,4.761,0,0,1-1.327-3.3Zm2.962.185a3.538,3.538,0,0,0,.413,1.934,1.376,1.376,0,0,0,1.222.615q1.582,0,1.617-2.435v-.3Q121,9.6,119.364,9.6q-1.485,0-1.608,2.206ZM119.769,3.5H122.9l-2.443,2.76-2.417,0Zm8.218,3.99.1,1.116A3.225,3.225,0,0,1,130.8,7.314a2.713,2.713,0,0,1,2.219.888,4.226,4.226,0,0,1,.76,2.672V17h-2.971V11a1.6,1.6,0,0,0-.29-1.059,1.342,1.342,0,0,0-1.055-.338,1.413,1.413,0,0,0-1.292.686V17h-2.962V7.49Z" fill="#12263f"/>
      </g>
    </g>
    <g id="Enmascarar_grupo_384" data-name="Enmascarar grupo 384" transform="translate(-416 209.932)" clip-path="url(#clip-path)">
      <g id="Grupo_1082510" data-name="Grupo 1082510" transform="translate(-6773.5 -406.064)">
        <g id="Grupo_1082512" data-name="Grupo 1082512">
          <rect id="Rectángulo_380503" data-name="Rectángulo 380503" width="0.629" height="2.456" transform="translate(0.703 313.458)" fill="#dbdbdb"/>
          <g id="Grupo_1082295" data-name="Grupo 1082295">
            <g id="Grupo_1082511" data-name="Grupo 1082511">
              <path id="Trazado_836452" data-name="Trazado 836452" d="M315.558,107.261c-4.963,0-88.48.55-93.728.383-.377-.011-.579-.566-.2-.752,3.308-1.638,7.061-1.309,10.5-2.468a11.163,11.163,0,0,0,4.67-3.521,9.678,9.678,0,0,1,4.346-2.837,9.182,9.182,0,0,1,4.731-.149,40.4,40.4,0,0,1,4.783,1.986c4.012,1.514,7.911.075,10.775-2.894,2.363-2.447,4.686-4.756,7.9-6.073a10.485,10.485,0,0,1,8.367-.116c3.064,1.388,5.165,4.179,8.043,5.858,3.411,1.994,7.491,1.522,11.257,2.123s6.661,3.775,9.964,5.6a7.064,7.064,0,0,0,3.6,1.116c.739-.019,1.464-.219,2.193-.311a3,3,0,0,1,2.983.841c.186.232.148,1.212-.178,1.212" transform="translate(-47.345 -19.244)" fill="#ebebeb"/>
              <path id="Trazado_836454" data-name="Trazado 836454" d="M371.084,18.173H267.553c-.418,0-.573-.444-.153-.642,3.707-1.741,7.862-1.29,11.7-2.5,2.259-.71,3.668-2.149,5.26-3.8a10.737,10.737,0,0,1,4.885-3.046,10.187,10.187,0,0,1,5.25-.056c1.87.487,3.479,1.6,5.258,2.313,4.414,1.771,8.771.266,12.016-2.962,2.677-2.659,5.306-5.166,8.9-6.553a11.625,11.625,0,0,1,9.28.064c3.366,1.609,5.632,4.753,8.785,6.681,3.737,2.29,8.271,1.861,12.435,2.614s7.635,2.553,11.257,4.655a7.835,7.835,0,0,0,3.969,1.32c.819,0,1.627-.208,2.44-.293,1.264-.129,2.462-.068,3.289,1,.2.261,1.4,1.2-1.037,1.2" transform="translate(-57.122 0)" fill="#ebebeb"/>
              <path id="Trazado_836459" data-name="Trazado 836459" d="M345.7,420.166c.4.4,5.114.584,6.827.584s6.424-.18,6.828-.584-5.3-31.713-6.828-31.713-7.231,31.309-6.827,31.713" transform="translate(-73.913 -83.059)" fill="#37474f"/>
              <path id="Trazado_836460" data-name="Trazado 836460" d="M345.549,412.187c1.164.444,5.475,2.2,6.406,2.712,0-.2,0-.392,0-.589q-1.559-.917-3.126-1.824a36.957,36.957,0,0,1-3.365-2c-.051-.038-.023-.142.047-.113a27.877,27.877,0,0,1,3.293,1.819c1.059.621,2.107,1.262,3.153,1.907q.006-2.251.019-4.5a35.692,35.692,0,0,1-4.914-2.5c-.053-.032-.017-.131.045-.105a36.026,36.026,0,0,1,4.87,2.4c.005-.78.009-1.561.017-2.34.043-4.017.051-8.039.153-12.057-1.023-.516-2.076-.971-3.1-1.489-.067-.034-.02-.151.052-.123,1.037.4,2.035.885,3.053,1.332.055-2.072.134-4.145.261-6.214a.053.053,0,0,1,.106,0c.144,3.848.132,7.7.084,11.552,1.058-.846,2.187-1.594,3.265-2.414.042-.031.083.039.041.071-1.127.857-2.18,1.807-3.311,2.662,0,.218-.005.435-.009.653,1.149-.525,2.314-1.013,3.474-1.51.091-.039.172.091.079.136-1.182.567-2.36,1.145-3.557,1.679-.027,1.908-.06,3.815-.084,5.723-.044,3.331-.116,6.661-.188,9.992q3.251-1.644,6.55-3.2c.083-.039.156.079.073.126a68.515,68.515,0,0,1-6.629,3.329c-.059,2.767-.116,5.535-.152,8.3a.131.131,0,0,1-.261,0c.039-3.53.044-7.06.054-10.59a64.989,64.989,0,0,1-6.487-2.638c-.105-.052-.031-.236.081-.193" transform="translate(-73.857 -83.059)" fill="#455a64"/>
              <path id="Trazado_836469" data-name="Trazado 836469" d="M345.8,244.789l3.521.5-.094-4.086h-3.344Z" transform="translate(-73.939 -51.575)" fill="#ffc727"/>
              <path id="Trazado_836473" data-name="Trazado 836473" d="M356.529,237.147l-.9,3.324H343.947v-6.648h11.687l.43,1.6Z" transform="translate(-73.543 -49.996)" fill="#ffc727"/>
              <g id="Grupo_1082182" data-name="Grupo 1082182" transform="translate(270.404 183.827)" opacity="0.3">
                <g id="Grupo_1082181" data-name="Grupo 1082181">
                  <g id="Grupo_1082180" data-name="Grupo 1082180" clip-path="url(#clip-path-2)">
                    <path id="Trazado_836474" data-name="Trazado 836474" d="M356.529,237.147l-.9,3.324H343.947v-6.648h11.687l.43,1.6Z" transform="translate(-343.947 -233.823)" fill="#fff"/>
                  </g>
                </g>
              </g>
              <g id="Grupo_1082185" data-name="Grupo 1082185" transform="translate(270.404 185.422)" opacity="0.5">
                <g id="Grupo_1082184" data-name="Grupo 1082184">
                  <g id="Grupo_1082183" data-name="Grupo 1082183" clip-path="url(#clip-path-3)">
                    <path id="Trazado_836475" data-name="Trazado 836475" d="M356.529,237.581H343.947v-1.729h12.117Z" transform="translate(-343.947 -235.852)" fill="#fff"/>
                  </g>
                </g>
              </g>
              <path id="Trazado_836476" data-name="Trazado 836476" d="M340.892,220.893V169.535l1.164.373,1.758,50.985Z" transform="translate(-72.89 -36.25)" fill="#ffc727"/>
              <g id="Grupo_1082188" data-name="Grupo 1082188" transform="translate(268.002 133.285)" opacity="0.5">
                <g id="Grupo_1082187" data-name="Grupo 1082187">
                  <g id="Grupo_1082186" data-name="Grupo 1082186" clip-path="url(#clip-path-4)">
                    <path id="Trazado_836477" data-name="Trazado 836477" d="M340.892,220.893V169.535l1.164.373,1.758,50.985Z" transform="translate(-340.892 -169.535)" fill="#fff"/>
                  </g>
                </g>
              </g>
              <path id="Trazado_836478" data-name="Trazado 836478" d="M340,215.1V169.534l-.917.769-2.368,43.388Z" transform="translate(-71.996 -36.25)" fill="#ffc727"/>
              <g id="Grupo_1082191" data-name="Grupo 1082191" transform="translate(264.718 133.285)" opacity="0">
                <g id="Grupo_1082190" data-name="Grupo 1082190">
                  <g id="Grupo_1082189" data-name="Grupo 1082189" clip-path="url(#clip-path-5)">
                    <path id="Trazado_836479" data-name="Trazado 836479" d="M340,215.1V169.534l-.917.769-2.368,43.388Z" transform="translate(-336.714 -169.535)" fill="#fff"/>
                  </g>
                </g>
              </g>
              <path id="Trazado_836480" data-name="Trazado 836480" d="M338.711,188.718h3.4l-.053-1.538h-3.26Z" transform="translate(-72.423 -40.023)" fill="#ffc727"/>
              <path id="Trazado_836485" data-name="Trazado 836485" d="M384.912,258.549l-1.7,3.1,1.289.72,1.63-2.978Z" transform="translate(-81.939 -55.283)" fill="#ffc727"/>
              <path id="Trazado_836486" data-name="Trazado 836486" d="M329.96,240.887l-42.167,25.679-.276-1.249,40.982-27.1Z" transform="translate(-61.477 -50.936)" fill="#ffc727"/>
              <g id="Grupo_1082200" data-name="Grupo 1082200" transform="translate(226.041 187.283)" opacity="0.5">
                <g id="Grupo_1082199" data-name="Grupo 1082199">
                  <g id="Grupo_1082198" data-name="Grupo 1082198" clip-path="url(#clip-path-6)">
                    <path id="Trazado_836487" data-name="Trazado 836487" d="M329.96,240.887l-42.167,25.679-.276-1.249,40.982-27.1Z" transform="translate(-287.518 -238.219)" fill="#fff"/>
                  </g>
                </g>
              </g>
              <path id="Trazado_836488" data-name="Trazado 836488" d="M325.275,245.3l-37.406,22.78,1.09.453L325.764,249Z" transform="translate(-61.552 -52.45)" fill="#ffc727"/>
              <g id="Grupo_1082203" data-name="Grupo 1082203" transform="translate(226.316 192.851)" opacity="0">
                <g id="Grupo_1082202" data-name="Grupo 1082202">
                  <g id="Grupo_1082201" data-name="Grupo 1082201" clip-path="url(#clip-path-7)">
                    <path id="Trazado_836489" data-name="Trazado 836489" d="M325.275,245.3l-37.406,22.78,1.09.453L325.764,249Z" transform="translate(-287.868 -245.301)" fill="#fff"/>
                  </g>
                </g>
              </g>
              <path id="Trazado_836490" data-name="Trazado 836490" d="M304.255,265.624l-1.7-3.1-1.235.818,1.63,2.979Z" transform="translate(-64.429 -56.132)" fill="#ffc727"/>
              <path id="Trazado_836491" data-name="Trazado 836491" d="M339.2,237.147a3.324,3.324,0,1,0,3.324-3.325,3.325,3.325,0,0,0-3.324,3.325" transform="translate(-72.528 -49.996)" fill="#ffc727"/>
              <path id="Trazado_836492" data-name="Trazado 836492" d="M344.547,237.287a2.808,2.808,0,0,1-2.809,2.808c-1.551,0-4.8-2.008-4.8-2.808,0-.73,3.245-2.809,4.8-2.809a2.809,2.809,0,0,1,2.809,2.809" transform="translate(-72.045 -50.136)" fill="#ffc727"/>
              <g id="Grupo_1082206" data-name="Grupo 1082206" transform="translate(264.897 184.342)" opacity="0.5">
                <g id="Grupo_1082205" data-name="Grupo 1082205">
                  <g id="Grupo_1082204" data-name="Grupo 1082204" clip-path="url(#clip-path-8)">
                    <path id="Trazado_836493" data-name="Trazado 836493" d="M344.547,237.287a2.808,2.808,0,0,1-2.809,2.808c-1.551,0-4.8-2.008-4.8-2.808,0-.73,3.245-2.809,4.8-2.809a2.809,2.809,0,0,1,2.809,2.809" transform="translate(-336.942 -234.478)" fill="#fff"/>
                  </g>
                </g>
              </g>
              <path id="Trazado_836494" data-name="Trazado 836494" d="M348.935,240.883a8.072,8.072,0,0,0-1.984-11.657,8.31,8.31,0,0,0-4.2-1.287,8.508,8.508,0,0,1,2.219.27,7.936,7.936,0,0,1,3.965,12.674" transform="translate(-73.287 -48.738)" fill="#c7c7c7"/>
              <path id="Trazado_836495" data-name="Trazado 836495" d="M332.637,238.051a8.047,8.047,0,0,0,13.135,6.025,7.7,7.7,0,0,1-4.064,1.912,7.951,7.951,0,0,1-9.072-7.936" transform="translate(-71.123 -50.9)" fill="#c7c7c7"/>
              <path id="Trazado_836496" data-name="Trazado 836496" d="M339.341,228.118a9.059,9.059,0,0,0-5.545,4.114,7.221,7.221,0,0,1,5.545-4.114" transform="translate(-71.372 -48.776)" fill="#c7c7c7"/>
              <path id="Trazado_836497" data-name="Trazado 836497" d="M330.132,243.118a10.8,10.8,0,0,0,18.963,1.715,10.651,10.651,0,0,1-18.963-1.715" transform="translate(-70.589 -51.984)" fill="#c7c7c7"/>
              <path id="Trazado_836498" data-name="Trazado 836498" d="M333.042,227.562a11.75,11.75,0,0,0-3.889,8.247,9.872,9.872,0,0,1,3.889-8.247" transform="translate(-70.377 -48.657)" fill="#c7c7c7"/>
              <path id="Trazado_836499" data-name="Trazado 836499" d="M353.05,238.006a10.891,10.891,0,0,0-10.3-13.548,11.572,11.572,0,0,1,2.45.237,10.647,10.647,0,0,1,7.85,13.311" transform="translate(-73.287 -47.994)" fill="#c7c7c7"/>
              <path id="Trazado_836500" data-name="Trazado 836500" d="M346.233,228.748c-8.2-6.708-19.137,3.066-13.379,11.932a9.144,9.144,0,0,0,7.4,3.947,9.012,9.012,0,0,1-7.506-3.873c-5.978-8.948,5.312-19,13.487-12.007" transform="translate(-70.789 -48.411)" fill="#c7c7c7"/>
              <path id="Trazado_836501" data-name="Trazado 836501" d="M346.81,245.58a9.341,9.341,0,0,0,5.161-12.017,8.935,8.935,0,0,1-5.161,12.017" transform="translate(-74.155 -49.941)" fill="#c7c7c7"/>
              <path id="Trazado_836525" data-name="Trazado 836525" d="M288.336,278.142l.433,3.509,1.45-.3-.415-3.37Z" transform="translate(-61.652 -59.437)" fill="#ffc727"/>
              <path id="Trazado_836553" data-name="Trazado 836553" d="M278.267,163.673l38.432-41.5-1.591-.1-39.033,37.465Z" transform="translate(-59.03 -26.103)" fill="#ffc727"/>
              <g id="Grupo_1082263" data-name="Grupo 1082263" transform="translate(217.045 95.977)" opacity="0">
                <g id="Grupo_1082262" data-name="Grupo 1082262">
                  <g id="Grupo_1082261" data-name="Grupo 1082261" clip-path="url(#clip-path-9)">
                    <path id="Trazado_836554" data-name="Trazado 836554" d="M278.267,163.673l38.432-41.5-1.591-.1-39.033,37.465Z" transform="translate(-276.075 -122.08)" fill="#fff"/>
                  </g>
                </g>
              </g>
              <path id="Trazado_836555" data-name="Trazado 836555" d="M308.971,137.8l3.491,2.945L313.7,139.3l-3.352-2.828Z" transform="translate(-66.064 -29.181)" fill="#ffc727"/>
              <path id="Trazado_836619" data-name="Trazado 836619" d="M260.043,64.586a41.587,41.587,0,0,1-7.979,24.562l0,.006a41.785,41.785,0,1,1-33.8-66.35q1.719,0,3.4.137a41.522,41.522,0,0,1,18.28,5.925,41.767,41.767,0,0,1,20.1,35.72" transform="translate(-37.735 -4.876)" fill="#ffe126"/>
              <g id="Grupo_1082278" data-name="Grupo 1082278" transform="translate(145.869 17.928)" opacity="0.1">
                <g id="Grupo_1082277" data-name="Grupo 1082277">
                  <g id="Grupo_1082276" data-name="Grupo 1082276" clip-path="url(#clip-path-10)">
                    <path id="Trazado_836620" data-name="Trazado 836620" d="M229.221,84.306c-.527,1.4.351,1.463.41,2.048s0,1.7-1.7,3.394-4.506,1.346-5.091,2.048-1.58,3.686-2.984,4.682-1.638.41-3.628.819-3.511,2.984-4.1,4.213.117,3.277-1.288,3.336-2.048-2.984-3.336-4.623A10.931,10.931,0,0,1,205.4,95.19c-.41-1.931.234-5.969,0-7.548s-4.447-4.389-5.969-6.32-3.628-5.793-3.511-7.08a5.238,5.238,0,0,1,1.756-3.219c.7-.527.41-.819.527-1.288s.7-.585.819-1.17-.351-2.341-.936-2.634-1,.7-1.346.527-1.4-1.4-1.815-1.521-.292.76-.877-.351-.878-3.921-1.346-4.388-.819.819-1.931,0-1.58-2.4-2.048-2.634-1.112.059-1.593-.877.422-2.634,0-2.458-1.333,1.522-1.568.234,1.171-5.617.936-7.958a9.35,9.35,0,0,1,2.224-6.788s.234-1.287.468-2.106,5.267-4.1,5.852-5.033a4.534,4.534,0,0,0,.414-1.664A41.584,41.584,0,0,1,220.2,22.8c1.145,0,2.282.046,3.4.137.039.054.078.105.117.156a4.906,4.906,0,0,0,2.536,1.6c1.482.546,1.833,1.248,1.522,1.833a1.493,1.493,0,0,1-1.4.742c-.585.039-1.131-.274-1.756.117s-1.248,2.5-2.068,2.613-2.263-1.873-2.575-2.458.7-1.834.223-2.419-1.315-.468-2.642-.585-4.408.391-4.291.9,4.524-.079,4.642.936-3.237,2.731-3.822,2.576-1.366-1.171-2.223-1.288-1.561.585-2.1.664-1.176-.585-2-.429-1.014.858-1.443,1.131-1.443.273-1.561.9,1.288.976,1.638,1.366-.429,1.717-.078,1.99,2.535-1.639,3.083-2.107,1.013-2.5,2.184-2.458,1.561,2.028,1.951,2.223,1.248-.468,2.536-.195,2.184,3.083,2.418,3.94.78,1.717.312,2.068-2.575-.233-2.848-.781,1.4-1.366,1.288-1.56a1.67,1.67,0,0,0-1.6-.163c-.507.306-.741.943-1.288,1.1s-1.99-1.483-2.379-1.015.389,1.951.779,2.3,1.834.545,1.951.936-.975,1.248-2.3,1.171-2.418-1.093-2.926-.664-.234,1.56-.585,1.951-2.263.116-3.2,1.131-1.366,2.536-2.3,3.394-1.365-.234-2.613.976-1.443,3.9-1.483,4.837,0,1.677-.311,1.56a2.6,2.6,0,0,1-.859-1.443c-.117-.507.274-1.366.274-1.677a5.537,5.537,0,0,0-2.848-2.068c-1.053-.156-1.99.7-2.769,1.326s-2.186.508-2.692,1.014-.9,4.994-.508,6.047.9,1.053,2.146.507.546-1.6,1.287-1.366a1.742,1.742,0,0,1,1.131,1.638c0,.625-1.482,2.106-1.288,2.536s1.483-.079,2.107.117.936.585.741,2.185-.078,2.848.858,3.374,1.462-.761,1.872-.586,1,1.112,1.58,1.053.292-.585,1.4-.936.7-.585.936-1.287a1.284,1.284,0,0,1,1.7-.936c.761.351.234.877.292,1.463s1.4.643,2.458.995,1.638,0,3.745.7,2.223,2.809,3.1,3.16,3.8-.233,5.911,1.288,1.521,4.33,2.575,5.149,4.973,1.931,6.5,2.224,1.756-.761,2.984-.469a2.6,2.6,0,0,1,2.34,2.34c.361,1.494-4.213,4.624-4.74,6.028" transform="translate(-185.541 -22.804)"/>
                    <path id="Trazado_836621" data-name="Trazado 836621" d="M201.1,62.686c.039.331,1.014.468,2.185,1.131s1.6,2.614,2.223,2.575.429-.936.664-1.171a.756.756,0,0,0,0-1.248c-.624-.508-1.232-1.6-2.372-1.756s-1.334-.624-1.841-.586a.883.883,0,0,0-.858,1.053" transform="translate(-188.867 -31.106)"/>
                    <path id="Trazado_836622" data-name="Trazado 836622" d="M209.278,66.883c-.175.478,0,.82,1.248,1.132s2.418-.312,2.028-.566-.976-.136-.742-.566.155-1.053-.859-.936-1.52.506-1.676.936" transform="translate(-190.604 -32.026)"/>
                    <path id="Trazado_836623" data-name="Trazado 836623" d="M214.726,67.3c-.425.061-.663.8-.234,1.271s.429.39.936,0,1.288-.584,1.093-.975-1.366-.358-1.795-.3" transform="translate(-191.683 -32.31)"/>
                    <path id="Trazado_836624" data-name="Trazado 836624" d="M219.162,69.272c.191-.585,1.171-.01,1.6.614a2.526,2.526,0,0,1,0,2.184c-.234.664-.391,1.444-.936,1.132s.039-1.248-.039-1.795-.781-1.656-.624-2.135" transform="translate(-192.725 -32.688)"/>
                    <path id="Trazado_836625" data-name="Trazado 836625" d="M240.547,27.848c-.2.49.741.664,1.287.975s.976.508,1.288,0a.858.858,0,0,0-.546-1.209c-.428-.117-1.833-.234-2.028.234" transform="translate(-197.296 -23.81)"/>
                    <path id="Trazado_836626" data-name="Trazado 836626" d="M249.914,33.468c.36.38.976.312,1.4.859s.274,1.482.819,1.756.936,0,.976-.391-.78-1.365-.7-1.56,1.131.273,1.366.858-.234,1.4.312,1.561.428-.546.663-.7.741-.078.7-.546a3.522,3.522,0,0,0-1.17-1.833,4.378,4.378,0,0,0-1.756-.936,2.586,2.586,0,0,0-2.107.312c-.429.351-.729.39-.507.624" transform="translate(-199.289 -24.866)"/>
                    <path id="Trazado_836627" data-name="Trazado 836627" d="M268.3,40.407a.693.693,0,0,1-.22.41c-.819.586-1.8-1.443-2.926-1.833s-1.638-1.834-1.872-1.521-.157.741-.509,1.248-.858.391-1.091,1.366,1.091,2.771.78,3.355-.7.39-1.327.351-.506.506-1.325.273-.118-1.249-1.406-2.458-1.716-1.443-1.442-1.989-.118-1.326.467-1.4,1.053.781,1.443,1.015.9-.469.936-1.093-1.366-1.482-1.873-1.966a3.5,3.5,0,0,1-.351-2.6c.2-.351.781-.234.936-1.092.091-.5-.707-1.348-1.381-1.956A42,42,0,0,1,268.3,40.407" transform="translate(-200.795 -24.453)"/>
                    <path id="Trazado_836628" data-name="Trazado 836628" d="M274.819,78.931c.117-1.248-.507-1.327.117-3.628a6.686,6.686,0,0,0-1.131-5.267c-.469-.508-1.483-.351-2.3.156s-.234.9-.781,1.092-1.092-.117-1.6-.077-.976,1.326-2.068,1.287-1.794-1.6-2.613-2.712-2.5-1.814-3.043-3.179.507-3.472.273-5.072-1.288-1.248-1.483-2.145.156-.468.429-1.327-.312-1.325.234-2.808,1.521-2.224,1.287-2.886a11.192,11.192,0,0,1-1.014-2.534c-.039-.778.742-.744,2.223-1.837s1.873-1.013,3-.624a16.177,16.177,0,0,0,2.5.7c.664.117,1.561,1.833,1.834,1.756s.312-.586.429-1.326a1.648,1.648,0,0,1,.487-.84,41.805,41.805,0,0,1-1.65,46.683c3.98-6.074,4.752-14.166,4.869-15.414" transform="translate(-201.49 -28)"/>
                  </g>
                </g>
              </g>
              <g id="Grupo_1082281" data-name="Grupo 1082281" transform="translate(138.745 17.928)" opacity="0.2">
                <g id="Grupo_1082280" data-name="Grupo 1082280">
                  <g id="Grupo_1082279" data-name="Grupo 1082279" clip-path="url(#clip-path-11)">
                    <path id="Trazado_836629" data-name="Trazado 836629" d="M250.63,91.005a41.783,41.783,0,1,1-32.369-68.2q1.719,0,3.406.136.467.037.93.087A38.285,38.285,0,1,0,250.63,91.005" transform="translate(-176.48 -22.804)" fill="#fff"/>
                  </g>
                </g>
              </g>
              <g id="Grupo_1082284" data-name="Grupo 1082284" transform="translate(168.412 17.928)" opacity="0.1">
                <g id="Grupo_1082283" data-name="Grupo 1082283">
                  <g id="Grupo_1082282" data-name="Grupo 1082282" clip-path="url(#clip-path-12)">
                    <path id="Trazado_836630" data-name="Trazado 836630" d="M268.112,64.586a41.569,41.569,0,0,1-7.98,24.561l0,.007a41.978,41.978,0,0,1-15.007,12.758A42.231,42.231,0,0,0,258.3,90.106l.005-.008a42.02,42.02,0,0,0-30.576-66.59c-1.127-.092-2.271-.138-3.423-.138a42.145,42.145,0,0,0-10.091,1.219A41.719,41.719,0,0,1,226.33,22.8q1.721,0,3.406.136a41.538,41.538,0,0,1,18.279,5.925,41.969,41.969,0,0,1,11.16,9.894,41.676,41.676,0,0,1,8.936,25.827" transform="translate(-214.216 -22.804)"/>
                  </g>
                </g>
              </g>
              <path id="Trazado_836631" data-name="Trazado 836631" d="M229.57,119.22s-2.16-9.928,7.329-14.9c4.126-2.16,10.481-3.269,14.622-4.675a57.836,57.836,0,0,0,10.8-5.313s-2.639,31.876-31.585,27.457c0,0,.791-4.1,7.219-10,3.539-3.25,10.492-6.787,10.492-6.787-14.3,4.41-18.88,14.216-18.88,14.216" transform="translate(-49.042 -20.171)" fill="#60cb28"/>
              <path id="Trazado_836632" data-name="Trazado 836632" d="M220.714,119.22s2.16-9.928-7.329-14.9c-4.125-2.16-10.481-3.269-14.622-4.675a57.836,57.836,0,0,1-10.8-5.313s2.639,31.876,31.585,27.457c0,0-.791-4.1-7.219-10-3.539-3.25-10.492-6.787-10.492-6.787,14.3,4.41,18.88,14.216,18.88,14.216" transform="translate(-40.189 -20.171)" fill="#60cb28"/>
              <path id="Trazado_836634" data-name="Trazado 836634" d="M262.071,420.831c1.979.619,59.75-.629,61.86-2.037.811-.521-4.138-55.243-4.138-55.243l-36.641.7,4.167,36.6s-21.316,10.1-23.475,11.892c-2.14,1.785-3.753,7.474-1.774,8.084" transform="translate(-55.844 -77.735)" fill="#eb9481"/>
              <path id="Trazado_836635" data-name="Trazado 836635" d="M262.07,432.334c1.976.616,59.752-.632,61.859-2.041.256-.16.332-5.716-.586-12.951-10.476,1.756-47.87,7.5-50.781,5.784-2.03-1.193-.233-3.059,1.43-4.314-4.774,2.38-9.229,4.669-10.149,5.439-2.141,1.784-3.749,7.475-1.773,8.083" transform="translate(-55.844 -89.236)" fill="#263238"/>
              <path id="Trazado_836636" data-name="Trazado 836636" d="M291.074,348.028l35.969-.508s-7.128-86.15-6.83-87.805c.377-2.123,25.9-102.188,25.9-102.188H311.782s-27.072,93.266-28.043,102.253c-1.574,14.511,7.334,88.249,7.334,88.249" transform="translate(-60.629 -33.682)" fill="#263238"/>
              <path id="Trazado_836637" data-name="Trazado 836637" d="M325.807,388.816c-2.125-.153-4.274-.127-6.4-.155s-4.267-.035-6.4-.013c-4.266.042-8.53.106-12.794.226-1.167.033-2.333.068-3.5.123-1.249.057-2.491.27-3.736.317a.076.076,0,0,0,0,.151c1.046.009,2.1.166,3.144.2,1.087.031,2.175.039,3.262.039q3.2,0,6.4-.024c4.264-.036,8.532-.094,12.793-.27,2.407-.1,4.838-.129,7.236-.37a.11.11,0,0,0-.005-.219" transform="translate(-62.629 -83.098)" fill="#37474f"/>
              <path id="Trazado_836638" data-name="Trazado 836638" d="M346.928,167.8c-3.071,10.878-5.879,21.851-8.633,32.813s-5.492,21.941-8.223,32.915q-2.048,8.231-4.1,16.462c-1.329,5.342-2.872,10.712-3.2,16.233-.335,5.614.379,11.271.852,16.858q.713,8.425,1.437,16.849c.984,11.235,1.928,22.479,3.149,33.691q.23,2.1.446,4.21c.013.12.2.118.189,0-.744-11.242-1.519-22.478-2.416-33.709q-.673-8.426-1.373-16.85c-.464-5.6-1.115-11.231-1.292-16.853A60.133,60.133,0,0,1,326,253.818q2.013-8.056,4.035-16.108,4.12-16.456,8.219-32.917c3.049-12.288,6.092-24.6,8.782-36.972a.053.053,0,0,0-.1-.026" transform="translate(-68.997 -35.87)" fill="#37474f"/>
              <path id="Trazado_836639" data-name="Trazado 836639" d="M354.094,157.528s-10.95,42.929-18.611,73.149l-14.606-73.149Z" transform="translate(-68.61 -33.683)" fill="#37474f"/>
              <path id="Trazado_836640" data-name="Trazado 836640" d="M316.947,420.992c1.979.62,59.75-.629,61.86-2.037.811-.521-2.206-55.276-2.206-55.276l-36.156.7,1.75,36.635s-21.316,10.1-23.474,11.892c-2.142,1.785-3.754,7.474-1.774,8.084" transform="translate(-67.578 -77.762)" fill="#eb9481"/>
              <path id="Trazado_836641" data-name="Trazado 836641" d="M316.946,432.5c1.976.616,59.752-.632,61.859-2.041.256-.16.2-5.572-.006-12.959-10.476,1.756-48.45,7.5-51.361,5.792-2.03-1.193-.233-3.059,1.43-4.314-4.774,2.38-9.228,4.669-10.148,5.439-2.142,1.784-3.749,7.475-1.774,8.083" transform="translate(-67.578 -89.27)" fill="#263238"/>
              <path id="Trazado_836642" data-name="Trazado 836642" d="M320.872,157.509s1.939,24.271,5.941,30.367a61.155,61.155,0,0,1,9.958,4.961s2.474,64.931,2.428,68.83c-.161,14.588,3.568,85.635,3.568,85.635l36.268-.344s-3.76-80.343-3.774-85.687c-.018-5.168-2.468-37.77-4.657-66.036,0,0,3.226-9.029,2.869-13.589-.866-11.055-5.822-24.122-5.822-24.122Z" transform="translate(-68.609 -33.679)" fill="#263238"/>
              <path id="Trazado_836643" data-name="Trazado 836643" d="M334.977,181.7q-.2-1.363-.412-2.725c-.256-1.664-.594-3.316-.886-4.974-.662-3.763-1.348-7.536-2.186-11.264a.083.083,0,0,0-.163.026c.149,1.5.322,3.009.535,4.506s.36,3.006.572,4.5c.42,2.971.834,5.947,1.34,8.906.195,1.139.906,3.182-.735,3.536-1.3.28-2.252-1-2.634-2.066a25.572,25.572,0,0,1-.873-4.1c-.268-1.5-.5-3-.716-4.513-.463-3.287-.973-6.558-1.507-9.834-.015-.094-.165-.065-.163.026a99.985,99.985,0,0,0,.727,10.065q.317,2.4.721,4.784a16.888,16.888,0,0,0,1.1,4.456,3.62,3.62,0,0,0,2.715,2.179c.025,0,.05,0,.076,0a.112.112,0,0,0-.048.094c.017.533.007,1.072.064,1.6s.16,1.051.26,1.569a10.7,10.7,0,0,0,.406,1.564,4.138,4.138,0,0,0,.712,1.379c.058.093.169.035.175-.055h.008c-.008-.088-.009-.175-.01-.26,0-.016,0-.031,0-.046v0a3.745,3.745,0,0,0-.03-.466c-.039-.256-.1-.509-.152-.762-.111-.506-.249-1.011-.385-1.51s-.244-1.007-.373-1.509c-.134-.517-.3-1.022-.423-1.544a.1.1,0,0,0-.035-.049,2.369,2.369,0,0,0,2.29-1.435,4.1,4.1,0,0,0,.033-2.082" transform="translate(-69.951 -34.783)" fill="#37474f"/>
              <path id="Trazado_836644" data-name="Trazado 836644" d="M340.629,201.529a28.529,28.529,0,0,0-3.412-2.248,33.35,33.35,0,0,0-3.889-2.015c-2.624-1.139-5.329-1.917-8.036-2.813-.08-.026-.134.108-.055.14,2.622,1.043,5.136,2.428,7.67,3.668,1.247.61,2.509,1.189,3.778,1.752s2.54,1.219,3.846,1.7c.1.036.178-.114.1-.179" transform="translate(-69.534 -41.577)" fill="#37474f"/>
              <path id="Trazado_836645" data-name="Trazado 836645" d="M367.046,174.395c-1.845-.008-8.228-.465-10.118-2.583a12.919,12.919,0,0,1-2.362-4.259,40.632,40.632,0,0,1-1.433-5.172c-.019-.086-.145-.057-.148.024a20.077,20.077,0,0,0,.744,5.87,9.074,9.074,0,0,0,2.355,4.565,9.233,9.233,0,0,0,5.01,1.832,23.032,23.032,0,0,0,5.957-.082.1.1,0,0,0,0-.2" transform="translate(-75.474 -34.709)" fill="#37474f"/>
              <path id="Trazado_836646" data-name="Trazado 836646" d="M315.346,175.028a6.193,6.193,0,0,0,2.442-1.476c1.393-2.1,1.734-8.781,1.851-10.537.006-.086.045-.057.046.024.019,1.968-.068,3.973-.23,5.87a20.9,20.9,0,0,1-.726,4.565c-.425,1.195-2.773,2.02-3.385,1.75-.038-.017-.039-.2,0-.2" transform="translate(-67.421 -34.845)" fill="#37474f"/>
              <path id="Trazado_836647" data-name="Trazado 836647" d="M383.866,389.493c-2.125-.153-4.274-.127-6.4-.155s-4.267-.035-6.4-.013c-4.266.042-8.53.106-12.794.226-1.167.033-2.333.068-3.5.123-1.248.057-2.491.271-3.735.317a.076.076,0,0,0,0,.151c1.046.009,2.1.166,3.144.2,1.086.031,2.175.039,3.262.039q3.2,0,6.4-.024c4.264-.036,8.532-.094,12.794-.27,2.406-.1,4.838-.129,7.236-.37a.11.11,0,0,0-.005-.219" transform="translate(-75.043 -83.243)" fill="#37474f"/>
              <path id="Trazado_836648" data-name="Trazado 836648" d="M384.371,335.848h.022a.442.442,0,0,0,.42-.463l-8.187-140.593c.1-.616,2.411-8.469,2.617-12.481.218-4.241-4.168-20.769-4.354-21.47a.448.448,0,0,0-.541-.314.443.443,0,0,0-.314.542c.046.17,4.536,17.094,4.326,21.2-.212,4.147-2.6,12.358-2.614,12.425-.005.032,8.184,140.737,8.184,140.737a.442.442,0,0,0,.441.421" transform="translate(-79.973 -34.321)" fill="#37474f"/>
              <path id="Trazado_836649" data-name="Trazado 836649" d="M332.384,52.737c8.526,3.836,10.371,15.857,9.807,32.964-.086,2.6-22.085,7.117-32.723-.9-1.72-1.3.718-22.22,4.941-28.247,5.24-7.479,12.694-6.19,17.975-3.814" transform="translate(-66.051 -10.88)" fill="#263238"/>
              <path id="Trazado_836650" data-name="Trazado 836650" d="M338.994,53.455c4.464,2.269,7.33,6.779,8.617,11.518a71.785,71.785,0,0,1,1.768,10.7A42.056,42.056,0,0,1,349.542,86a.1.1,0,0,1-.189-.015,88.759,88.759,0,0,0-2.008-19.275c-1.11-5.313-3.839-10.064-8.522-12.927-.177-.108-.02-.426.171-.329" transform="translate(-72.431 -11.426)" fill="#263238"/>
              <path id="Trazado_836651" data-name="Trazado 836651" d="M310.96,62.55a15.649,15.649,0,0,1,10.327-11.084c.033-.01.051.047.019.061-5.689,2.241-8.9,6.739-10.351,12.7a124.954,124.954,0,0,0-2.768,19.711.112.112,0,0,1-.223-.018,83.183,83.183,0,0,1,3-21.372" transform="translate(-65.849 -11.004)" fill="#263238"/>
              <path id="Trazado_836652" data-name="Trazado 836652" d="M320.267,104.9c-2.517,18.546-7.159,37.065-10.2,39.976-4.7,4.513-30.87,10.9-39.321,11.317-2.767.137-5.174-18.571-2.947-20.524s30.325-6.817,31.876-7.756c.826-.5,7.661-14.773,12.921-24.328,4.889-8.881,8.43-4.315,7.666,1.315" transform="translate(-57.075 -21.081)" fill="#eb9481"/>
              <path id="Trazado_836653" data-name="Trazado 836653" d="M283,155.375l-3.36-23.616s19.9-4.5,22.3-5.252c1.014-.318,9.561-17.944,13.674-25.5,2.705-4.969,8.258-6.578,8,4.347-.15,6.4-5.293,36.451-10.276,40.6-3.964,3.3-30.339,9.419-30.339,9.419" transform="translate(-59.792 -20.779)" fill="#60cb28"/>
              <path id="Trazado_836654" data-name="Trazado 836654" d="M288.323,162.674c.026-1.723-1.048-8.765-1.334-10.517-.281-1.715-1.675-8.734-1.975-10.532-.016-.1-.16-.1-.145,0,.267,1.784,1.109,8.887,1.378,10.639s1.425,8.767,1.984,10.424a.046.046,0,0,0,.092-.01" transform="translate(-60.91 -30.266)" fill="#263238"/>
              <g id="Grupo_1082287" data-name="Grupo 1082287" transform="translate(229.82 76.405)" opacity="0.1">
                <g id="Grupo_1082286" data-name="Grupo 1082286">
                  <g id="Grupo_1082285" data-name="Grupo 1082285" clip-path="url(#clip-path-13)">
                    <path id="Trazado_836655" data-name="Trazado 836655" d="M326.31,103.553c.01.268.023.552.02.845s0,.634,0,.96c-.027,1.1-.194,2.894-.494,5.143-.05.41-.108.83-.171,1.266-.037.267-.074.541-.118.816q-.126.871-.27,1.793c-.018.105-.036.211-.053.324-.1.671-.215,1.367-.338,2.072-.086.51-.171,1.028-.27,1.556s-.182,1.053-.289,1.59c-.045.267-.1.535-.15.811-.556,2.972-1.207,6.075-1.92,9.058-.19.809-.389,1.611-.6,2.4-.131.524-.27,1.049-.411,1.558s-.275,1.017-.418,1.511c-1.487,5.182-3.145,9.334-4.778,10.7-2.679,2.236-15.639,5.767-23.723,7.813l29.6-56.369a3.087,3.087,0,0,1,.35-.116,2.329,2.329,0,0,1,2.083.36,3.075,3.075,0,0,1,.718.781,5.305,5.305,0,0,1,.406.756,6.669,6.669,0,0,1,.342.939,14.972,14.972,0,0,1,.485,3.433" transform="translate(-292.325 -97.185)" fill="#020100"/>
                  </g>
                </g>
              </g>
              <path id="Trazado_836656" data-name="Trazado 836656" d="M316.3,135.276l-1.606,14.178s1.937-.092,8.331-.444l1.506-5.168,2.964,4.994,40.418-3.172-6.192-11.1c-4.876-10.746-11.052-26.954-19.18-34.7-6.46-6.155-13.51-5.2-17.724-.329-1.067,1.234-11.455,18.664-12.442,25.637-.855,6.152,3.924,10.1,3.924,10.1" transform="translate(-66.771 -20.433)" fill="#60cb28"/>
              <g id="Grupo_1082290" data-name="Grupo 1082290" transform="translate(250.328 112.697)" opacity="0.1">
                <g id="Grupo_1082289" data-name="Grupo 1082289">
                  <g id="Grupo_1082288" data-name="Grupo 1082288" clip-path="url(#clip-path-14)">
                    <path id="Trazado_836657" data-name="Trazado 836657" d="M327.917,143.348a19.028,19.028,0,0,0-4.717.685,24.339,24.339,0,0,0-2.357.851c-.392.161-.782.3-1.175.435a3.093,3.093,0,0,1-1.223.226c-.035,0-.049.092-.015.1a4.654,4.654,0,0,0,1.125.125,5.087,5.087,0,0,0,1.123-.209c.8-.222,1.6-.509,2.4-.747a43.106,43.106,0,0,1,4.826-1.236c.073-.013.09-.231.016-.228" transform="translate(-318.411 -143.348)" fill="#020100"/>
                    <path id="Trazado_836658" data-name="Trazado 836658" d="M336.545,145.381a46.943,46.943,0,0,0-6.028-.27c-1.008.024-2.006.114-3.007.235-.478.057-.956.125-1.432.2-.524.082-1.039.244-1.564.316-.055.008-.054.105,0,.1.5-.051,1-.009,1.5-.028s1-.042,1.5-.061c1-.038,2.006-.063,3.01-.112,2.009-.1,4.009-.171,6.018-.189.109,0,.1-.178,0-.189" transform="translate(-319.707 -143.723)" fill="#020100"/>
                  </g>
                </g>
              </g>
              <path id="Trazado_836659" data-name="Trazado 836659" d="M329.661,105.856c-2.077,5.046-4.078,10.131-5.811,15.3-1.946,5.864-3.4,10.321,2.744,14.178l.094.057c0,1.792,0,3.583-.024,5.375-.009,1.757-.06,3.515-.1,5.273-.058-1.757-.129-3.514-.157-5.272-.045-1.757-.068-3.514-.083-5.272l.094.159c-6.366-3.956-4.964-8.558-2.9-14.606,1.769-5.173,3.895-10.213,6.136-15.2" transform="translate(-68.804 -22.634)" fill="#263238"/>
              <path id="Trazado_836660" data-name="Trazado 836660" d="M328.231,116.068a.662.662,0,1,0,.658-.667.663.663,0,0,0-.658.667" transform="translate(-70.182 -24.675)" fill="#263238"/>
              <path id="Trazado_836661" data-name="Trazado 836661" d="M326.032,125.581a.662.662,0,1,0,.658-.667.662.662,0,0,0-.658.667" transform="translate(-69.712 -26.709)" fill="#263238"/>
              <path id="Trazado_836662" data-name="Trazado 836662" d="M324.079,134.282a.662.662,0,1,0,.658-.667.663.663,0,0,0-.658.667" transform="translate(-69.295 -28.57)" fill="#263238"/>
              <path id="Trazado_836663" data-name="Trazado 836663" d="M329.433,142.077a.662.662,0,1,0,.658-.667.663.663,0,0,0-.658.667" transform="translate(-70.439 -30.236)" fill="#263238"/>
              <path id="Trazado_836664" data-name="Trazado 836664" d="M329.834,150.746a.662.662,0,1,0,.658-.667.663.663,0,0,0-.658.667" transform="translate(-70.525 -32.09)" fill="#263238"/>
              <path id="Trazado_836665" data-name="Trazado 836665" d="M337.609,93.951c-.1.915-3.638,7.2-7.725,7.511-1.332.1-2.188-7.146-2.188-7.146l-.185-.52-2.59-7.285,8.107-6.719,1.18-.9s.578,2.04,1.27,4.587c.033.118.066.236.1.363s.086.278.12.413c.109.379.217.767.318,1.155.078.3.156.582.226.895s.149.617.227.929a49.743,49.743,0,0,1,1.142,6.72" transform="translate(-69.475 -16.868)" fill="#eb9481"/>
              <path id="Trazado_836666" data-name="Trazado 836666" d="M335.479,83.476a15.508,15.508,0,0,1-7.968,10.32l-2.59-7.285,8.107-6.719,1.18-.9s.578,2.039,1.27,4.587" transform="translate(-69.475 -16.868)" fill="#263238"/>
              <path id="Trazado_836667" data-name="Trazado 836667" d="M311.5,66.835c-3.046,13.222,4.529,16.54,7.381,17.193,2.589.594,11.479,2.285,15.875-10.551s-.789-18.433-6.638-20.1-13.573.239-16.618,13.461" transform="translate(-66.452 -11.303)" fill="#eb9481"/>
              <path id="Trazado_836668" data-name="Trazado 836668" d="M314.5,69.418a8.849,8.849,0,0,0,.936-.048,1.515,1.515,0,0,0,.945-.231.483.483,0,0,0,.091-.583,1.2,1.2,0,0,0-1.122-.46,1.762,1.762,0,0,0-1.187.442.515.515,0,0,0,.337.88" transform="translate(-67.14 -14.56)" fill="#263238"/>
              <path id="Trazado_836669" data-name="Trazado 836669" d="M325.616,70.713a8.925,8.925,0,0,1-.876-.334,1.515,1.515,0,0,1-.828-.51.483.483,0,0,1,.093-.583,1.2,1.2,0,0,1,1.209-.092,1.755,1.755,0,0,1,.993.786.515.515,0,0,1-.591.733" transform="translate(-69.246 -14.77)" fill="#263238"/>
              <path id="Trazado_836670" data-name="Trazado 836670" d="M316.319,72.962c0-.036-.078.034-.081.072-.094.919-.356,1.957-1.225,2.15-.027.005-.031.052,0,.052,1.03-.007,1.364-1.388,1.305-2.274" transform="translate(-67.352 -15.599)" fill="#263238"/>
              <path id="Trazado_836671" data-name="Trazado 836671" d="M315.421,71.6c-1.458-.308-1.969,2.63-.618,2.917,1.329.281,1.84-2.657.618-2.917" transform="translate(-67.143 -15.305)" fill="#263238"/>
              <path id="Trazado_836672" data-name="Trazado 836672" d="M314.553,71.6c-.259.116-.539.358-.818.329-.325-.035-.508-.394-.66-.734-.016-.035-.043-.015-.051.024-.113.559-.029,1.176.492,1.378.475.184.92-.235,1.151-.771.043-.1-.009-.271-.113-.225" transform="translate(-66.921 -15.22)" fill="#263238"/>
              <path id="Trazado_836673" data-name="Trazado 836673" d="M321.21,83.871c-.241.194-.489.47-.826.465a2.434,2.434,0,0,1-.966-.325.033.033,0,0,0-.045.043,1.245,1.245,0,0,0,1.12.611.981.981,0,0,0,.8-.744c.02-.052-.049-.079-.084-.05" transform="translate(-68.288 -17.931)" fill="#263238"/>
              <path id="Trazado_836674" data-name="Trazado 836674" d="M317.073,76.525s-.4,1.335-.5,1.978c-.009.061.142.113.358.16.009,0,.015.009.025,0a3.093,3.093,0,0,0,3.146-.685c.054-.057-.017-.135-.082-.1a4.658,4.658,0,0,1-2.916.371c-.018-.185.759-2.263.657-2.286a5.621,5.621,0,0,0-1.512.106c.749-2.805,1.941-5.466,2.645-8.27a.089.089,0,0,0-.161-.068,46.956,46.956,0,0,0-3.227,8.786c-.109.358,1.289.078,1.564.008" transform="translate(-67.461 -14.473)" fill="#263238"/>
              <path id="Trazado_836675" data-name="Trazado 836675" d="M317.453,81.222a3.748,3.748,0,0,0,1.221,1.452,1.687,1.687,0,0,0,.987.278c.765-.035.926-.694.916-1.292a4.038,4.038,0,0,0-.137-.939,4.855,4.855,0,0,1-2.987.5" transform="translate(-67.878 -17.26)" fill="#263238"/>
              <path id="Trazado_836676" data-name="Trazado 836676" d="M319.006,82.926a1.687,1.687,0,0,0,.987.278c.765-.035.926-.695.916-1.292a1.742,1.742,0,0,0-1.9,1.013" transform="translate(-68.21 -17.512)" fill="#ff9abb"/>
              <path id="Trazado_836677" data-name="Trazado 836677" d="M325.8,74.356a2.784,2.784,0,0,0-.748-.246,2.852,2.852,0,0,0-.807-.026,2.283,2.283,0,0,0-.8.261,1.946,1.946,0,0,0-.637.6l-.3.443.539-.006a5.473,5.473,0,0,1,1.134.1,2.35,2.35,0,0,1,1.064.48,1.719,1.719,0,0,0-.932-.878,3.284,3.284,0,0,0-1.281-.267l.241.436a1.925,1.925,0,0,1,1.067-.709,5.987,5.987,0,0,1,1.462-.193" transform="translate(-68.958 -15.837)" fill="#263238"/>
              <path id="Trazado_836678" data-name="Trazado 836678" d="M324.08,76.544A4.8,4.8,0,0,1,322.969,76c-.079-.061-.381-.327-.357-.392a2.281,2.281,0,0,1,.259-.554,1.582,1.582,0,0,0-.377.527.8.8,0,0,0,.369.571,2.474,2.474,0,0,0,1.219.39" transform="translate(-68.956 -16.049)" fill="#263238"/>
              <path id="Trazado_836679" data-name="Trazado 836679" d="M335.07,73.971a5.609,5.609,0,0,1-2.773-4.8,14.639,14.639,0,0,1-5.572-5.252c.07.287.568,2.357.855,3.4-8.48-2.283-10.628-9.077-10.628-9.077a14.859,14.859,0,0,0-4.18,5.162s.351-5.285,3.343-8.608a8.538,8.538,0,0,1,8.131-2.892A12.2,12.2,0,0,1,335.839,56.5c5.113,6.528-.769,17.475-.769,17.475" transform="translate(-66.877 -11.065)" fill="#263238"/>
              <path id="Trazado_836680" data-name="Trazado 836680" d="M322.231,66.772a15.927,15.927,0,0,0,4.288,1.967c.013,0,.017-.015.005-.02a13.526,13.526,0,0,1-6.019-4.314,12.851,12.851,0,0,1-1.654-2.741,8.876,8.876,0,0,1-.886-3.371.067.067,0,0,0-.134,0,10.4,10.4,0,0,0,.417,3.445,9.475,9.475,0,0,0,1.689,3,10.878,10.878,0,0,0,2.294,2.034" transform="translate(-67.959 -12.45)" fill="#263238"/>
              <path id="Trazado_836681" data-name="Trazado 836681" d="M322.715,78.6a4.292,4.292,0,0,1-2.519-5.516h0a4.293,4.293,0,1,1,2.519,5.517m-1.982-5.316a3.712,3.712,0,1,0,3.88-2.395,3.72,3.72,0,0,0-3.88,2.395" transform="translate(-68.407 -15.031)" fill="#ffc727"/>
              <path id="Trazado_836682" data-name="Trazado 836682" d="M311.837,76.008c-1.733-.309-2.805-2.454-2.391-4.782a5.119,5.119,0,0,1,1.417-2.793,2.671,2.671,0,0,1,4.5.8,5.124,5.124,0,0,1,.366,3.111c-.392,2.2-1.976,3.792-3.616,3.7a2.6,2.6,0,0,1-.279-.033m-.575-7.161a4.541,4.541,0,0,0-1.251,2.48c-.359,2.017.506,3.863,1.927,4.116s2.871-1.181,3.23-3.2a4.562,4.562,0,0,0-.318-2.759,2.289,2.289,0,0,0-1.61-1.357,1.85,1.85,0,0,0-.217-.025,2.36,2.36,0,0,0-1.762.743" transform="translate(-66.147 -14.438)" fill="#ffc727"/>
              <path id="Trazado_836683" data-name="Trazado 836683" d="M319.592,74.083l.458-.346c-.513-.678-1.815-1.729-3.086-.87l.322.475c1.137-.771,2.259.679,2.307.741" transform="translate(-67.773 -15.511)" fill="#ffc727"/>
              <path id="Trazado_836684" data-name="Trazado 836684" d="M340.828,80.011l.555-.143c-.068-.259-.687-2.543-1.888-3.032-1.124-.453-8.776-1.462-9.1-1.5l-.075.568c2.194.287,8.092,1.116,8.959,1.468.793.322,1.388,2.017,1.55,2.643" transform="translate(-70.629 -16.108)" fill="#ffc727"/>
              <path id="Trazado_836685" data-name="Trazado 836685" d="M337.96,79.012s3.523-3.782,5.278-2.468-1.305,7.083-3.657,7.6a2.294,2.294,0,0,1-2.872-1.65Z" transform="translate(-71.995 -16.308)" fill="#eb9481"/>
              <path id="Trazado_836686" data-name="Trazado 836686" d="M342.65,78.7a.031.031,0,0,1,0,.061,5.8,5.8,0,0,0-3.474,3.175,1.266,1.266,0,0,1,1.925-.079c.037.035-.011.093-.053.078a1.411,1.411,0,0,0-1.607.271,6.771,6.771,0,0,0-.912,1.14c-.094.131-.336.02-.259-.134.005-.011.013-.023.018-.035.241-2,2.187-4.579,4.36-4.478" transform="translate(-72.326 -16.826)" fill="#263238"/>
              <path id="Trazado_836687" data-name="Trazado 836687" d="M327.888,97.342l2.689,6.062,7.366-8.053,2.255,2.42s-7.036,12.629-7.1,12.072l-2.723-5.211-3.528,3.818-.031-9.27Z" transform="translate(-69.879 -20.388)" fill="#ebebeb"/>
              <path id="Trazado_836688" data-name="Trazado 836688" d="M326.494,104.517c.046-1.531.049-3.074.167-4.6,0-.054.087-.081.1-.018.358,1.464.152,7.317.208,8.716l.016-.017c.147-.165,3.276-3.366,3.31-3.318.579.822,2.577,4.616,2.716,4.964,1.112-2.006,5.855-9.926,7.189-11.834a.053.053,0,0,1,.094.05c-.971,2.111-7.091,12.558-7.183,12.534a59.773,59.773,0,0,1-2.85-5.51,40.651,40.651,0,0,1-3.689,4.063,47.915,47.915,0,0,1-.079-5.03" transform="translate(-69.805 -21.037)" fill="#263238"/>
              <path id="Trazado_836689" data-name="Trazado 836689" d="M347.311,106.262c7.3,13.53,15.508,36.55,13.2,40.847-5.783,10.763-19.423,21.994-25.758,25.677-3.7,2.149-16-16.809-12.809-18.881,5.032-3.268,18.269-14.541,19.862-16.059.849-.811-1.7-17.075-2.4-27.842-.755-11.7,4.348-10.337,7.906-3.741" transform="translate(-68.726 -21.647)" fill="#eb9481"/>
              <path id="Trazado_836690" data-name="Trazado 836690" d="M306.028,178.87c.785-1.246.136-1.667-2.329-.788-2.5.884-11.481,6.451-13.158,3.143s11.153-10.988,15.371-12.137a69.5,69.5,0,0,1,11.445-1.53c-2.2,1.995-7.068,7.342-11.329,11.312" transform="translate(-62.091 -35.827)" fill="#eb9481"/>
              <rect id="Rectángulo_380578" data-name="Rectángulo 380578" width="8.623" height="54.191" transform="translate(206.344 105.293) rotate(-37.621)" fill="#c7c7c7"/>
              <path id="Trazado_836691" data-name="Trazado 836691" d="M314.011,203.254l10.328-7.959h0L302.889,167.46l-10.328,7.959Z" transform="translate(-62.555 -35.806)" fill="#263238"/>
              <path id="Trazado_836693" data-name="Trazado 836693" d="M199.935,113.99A55.012,55.012,0,1,1,267.67,75.721a55.075,55.075,0,0,1-67.736,38.269m1.689-6.076a48.706,48.706,0,1,0-33.882-59.971,48.762,48.762,0,0,0,33.882,59.971" transform="translate(-34.136 -1.276)" fill="#37474f"/>
              <path id="Trazado_836694" data-name="Trazado 836694" d="M263.894,52.293a50.573,50.573,0,0,0-5.859-16.5,50.03,50.03,0,1,0,5.859,16.5m-4.329,20.856A47.121,47.121,0,1,1,255.181,37.4a47.121,47.121,0,0,1,4.385,35.748m4.329-20.856a50.573,50.573,0,0,0-5.859-16.5,50.03,50.03,0,1,0,5.859,16.5m-4.329,20.856A47.121,47.121,0,1,1,255.181,37.4a47.121,47.121,0,0,1,4.385,35.748m10.55-21.886A56.631,56.631,0,1,0,268.8,75.712a56.572,56.572,0,0,0,1.316-24.449m-4.471,23.577A53.393,53.393,0,1,1,266.87,51.8a53.049,53.049,0,0,1-1.226,23.034m-7.609-39.047a50.03,50.03,0,1,0,5.859,16.5,50.573,50.573,0,0,0-5.859-16.5m1.53,37.357A47.121,47.121,0,1,1,255.181,37.4a47.121,47.121,0,0,1,4.385,35.748" transform="translate(-33.688 -0.831)" fill="#37474f"/>
              <path id="Trazado_836695" data-name="Trazado 836695" d="M184.17,83.813a36.111,36.111,0,0,1-4.036-14.407,38.682,38.682,0,0,1,.173-7.672,40.876,40.876,0,0,1,1.734-7.569,37.657,37.657,0,0,1,8.008-13.306,41.631,41.631,0,0,1,12.322-9.1,74.46,74.46,0,0,0-10.4,10.683,45.629,45.629,0,0,0-3.961,6.1,38.067,38.067,0,0,0-2.9,6.585,46.383,46.383,0,0,0-2.451,14.139,60.848,60.848,0,0,0,1.518,14.542" transform="translate(-38.491 -6.792)" fill="#fff"/>
              <path id="Trazado_836696" data-name="Trazado 836696" d="M268.035,69.38a36.117,36.117,0,0,1-.053,14.961,38.719,38.719,0,0,1-2.263,7.333,40.877,40.877,0,0,1-3.735,6.807,37.643,37.643,0,0,1-11.338,10.612,41.635,41.635,0,0,1-14.338,5.384,74.346,74.346,0,0,0,12.926-7.435,45.607,45.607,0,0,0,5.477-4.785,38.166,38.166,0,0,0,4.591-5.542,46.375,46.375,0,0,0,6.221-12.932,60.826,60.826,0,0,0,2.513-14.4" transform="translate(-50.527 -14.835)" fill="#fff"/>
              <path id="Trazado_836697" data-name="Trazado 836697" d="M329.129,185.253c-6.4,5.392-14.03,12.5-23.335,14.08a4.677,4.677,0,0,1-3.031-.425c-4.157.784-5.776-.944-5.776-.944-4.1-.456-5.51-2.451-5.51-2.451s-4.892.867-5.907-2c-1.148-3.215,5.947-3.8,9.65-6.513,8.485-6.208,18.811-17.406,21.08-19.439Z" transform="translate(-61.034 -35.827)" fill="#eb9481"/>
              <path id="Trazado_836698" data-name="Trazado 836698" d="M310.324,191.949a67.783,67.783,0,0,1-7.737,5.014,67.944,67.944,0,0,1-9.417,3.654.082.082,0,0,0,.042.159,35.746,35.746,0,0,0,17.195-8.713c.11-.1.045-.2-.083-.114" transform="translate(-62.673 -41.035)" fill="#263238"/>
              <path id="Trazado_836699" data-name="Trazado 836699" d="M316.3,197.769c-2.561,1.593-7.08,4.363-16.215,6.547-.03.008-.027.061.007.057a32.081,32.081,0,0,0,16.283-6.482c.152-.113.1-.227-.075-.122" transform="translate(-64.16 -42.278)" fill="#263238"/>
              <path id="Trazado_836700" data-name="Trazado 836700" d="M320.253,200.957a50.331,50.331,0,0,1-12.768,5.058c-.029.009-.022.062.011.056,6.059-1.062,8.137-2.134,12.865-4.973.163-.1.065-.24-.108-.141" transform="translate(-65.743 -42.961)" fill="#263238"/>
              <path id="Trazado_836701" data-name="Trazado 836701" d="M340.1,173.25l-16.231-22.681,17.392-13.617c-1.062-8.811-3.179-26.428-3-32.63.212-7.277,5.278-7.6,9.214-1.318,9,14.378,17.721,40.436,17.04,44.622-.976,6-24.416,25.625-24.416,25.625" transform="translate(-69.25 -21.074)" fill="#60cb28"/>
              <path id="Trazado_836702" data-name="Trazado 836702" d="M343.274,181.8c-.74-1.583-4.837-7.528-5.874-9-1.015-1.44-5.394-7.224-6.464-8.731-.058-.083-.193-.024-.134.061,1.034,1.509,4.946,7.613,5.968,9.091s5.182,7.363,6.425,8.628a.047.047,0,0,0,.079-.05" transform="translate(-70.729 -35.073)" fill="#263238"/>
              <path id="Trazado_836703" data-name="Trazado 836703" d="M356.215,168.307c5.132-5.027,10.7-9.893,14.459-16.067,1.006-1.755.365-3.745,0-5.611q-.454-1.907-1.026-3.793c-3.179-10.041-7.319-19.742-11.242-29.514a232.1,232.1,0,0,1,9.424,21.787,90.065,90.065,0,0,1,3.471,11.383c.331,1.913.865,4.178-.21,5.963-3.856,6.177-9.574,10.964-14.875,15.852" transform="translate(-76.166 -24.231)" fill="#263238"/>
              <path id="Trazado_836704" data-name="Trazado 836704" d="M361.033,117.417a24.055,24.055,0,0,1-.655-2.674,6.045,6.045,0,0,1,.655,2.674" transform="translate(-77.056 -24.534)" fill="#263238"/>
              <path id="Trazado_836705" data-name="Trazado 836705" d="M339.072,120.623c.759,5.933,1.77,12.808,2.389,18.773.072.76.158,1.481.163,2.259a.557.557,0,0,1-.151.361c-4.011,3.589-8.866,6.906-13.191,10.132l-4.415,3.124.009-.053.393.641-.456-.6-.022-.028.031-.024,4.227-3.371c4.132-3.343,8.921-6.812,12.841-10.307.011-.013.012-.019.011-.012a.226.226,0,0,0-.033.108c-.005-.259-.03-.528-.055-.817-.589-6.591-1.539-13.58-1.741-20.188" transform="translate(-69.233 -25.792)" fill="#263238"/>
              <path id="Trazado_836706" data-name="Trazado 836706" d="M342.518,122.162c.4.932.614,1.962.941,2.916a7.01,7.01,0,0,1-.941-2.916" transform="translate(-73.237 -26.121)" fill="#263238"/>
              <path id="Trazado_836707" data-name="Trazado 836707" d="M284.924,158.527c.086-2.869-3.344-1.328-3.344-1.328s4.4-3.408,3.348-6.4c-1.024-2.881-5.1-.873-5.4-.733.232-.182,4.2-3.42,2.826-6.317-1.427-3.01-5.175-.292-5.416-.116.164-.241,2.285-3.46.743-5.425-2.65-3.375-9.482,5.315-12.925,5.778l-4.585-4.567a8.619,8.619,0,0,1,.147,4.888c-.54,2.341-.917,3.9-.553,5.36a3.147,3.147,0,0,0,2.822,2.476s-2.054,2.247-1.046,4.562c.52,1.187,2.881,1.411,2.881,1.411a3.757,3.757,0,0,0-.545,3.872c.812,1.6,3.055,1.578,3.055,1.578s-.675,2.492.686,3.859c2.739,2.763,17.114-2.754,17.3-8.9" transform="translate(-55.512 -29.386)" fill="#eb9481"/>
              <path id="Trazado_836708" data-name="Trazado 836708" d="M260.734,143.174l-3.293-3.576c-.15-.1-.307-.211-.458-.3-5.279-3.279-12.793-.645-9.844,2.7,2.24,2.547,7.933,1.68,9.85,4.621l.005-.006Z" transform="translate(-52.702 -29.463)" fill="#eb9481"/>
              <path id="Trazado_836709" data-name="Trazado 836709" d="M269.366,168.895a.04.04,0,0,0,.014.079,26.706,26.706,0,0,0,14.47-6.56c.125-.118-.012-.373-.175-.27a54.661,54.661,0,0,1-14.31,6.75" transform="translate(-57.589 -34.665)" fill="#263238"/>
              <path id="Trazado_836710" data-name="Trazado 836710" d="M265.645,161.541c-.057.016-.031.112.033.1a25.01,25.01,0,0,0,15.341-8.137c.135-.16.1-.438-.073-.266-2.84,2.9-10.519,6.919-15.3,8.3" transform="translate(-56.794 -32.755)" fill="#263238"/>
              <path id="Trazado_836711" data-name="Trazado 836711" d="M277.959,144.778c-3.93,4.319-8.849,6.944-14.29,8.913-.071.026-.027.123.038.118,2.924-.238,6.261-1.855,8.751-3.333a15.4,15.4,0,0,0,5.652-5.561c.054-.093-.067-.23-.151-.138" transform="translate(-56.37 -30.95)" fill="#263238"/>
              <path id="Trazado_836712" data-name="Trazado 836712" d="M387.671,31.136a18.045,18.045,0,0,1-28.806,14.492l-8.843,2.257,3.682-8.234a18.051,18.051,0,1,1,33.967-8.515" transform="translate(-74.842 -2.798)" fill="#fff"/>
              <path id="Trazado_836713" data-name="Trazado 836713" d="M387.506,31.093a18.225,18.225,0,0,1-28.972,14.716l.237.046-8.827,2.321-.691.182.291-.657,3.651-8.247.012.333a18.37,18.37,0,0,1,4.44-22.72c11.841-9.782,29.854-1.327,29.861,14.025m0,0c.053-11.535-11.234-20.341-22.386-17.283a17.893,17.893,0,0,0-11.248,25.618l.088.166-.075.167-3.712,8.221-.4-.476,8.859-2.2.132-.032.1.079a17.755,17.755,0,0,0,9.048,3.532,17.976,17.976,0,0,0,19.59-17.8" transform="translate(-74.677 -2.754)" fill="#263238"/>
              <path id="Trazado_836714" data-name="Trazado 836714" d="M369.03,43.866l-8.09-8.189,2.718-2.685,4.726,4.783L378.2,22.385l3.221,2.054Z" transform="translate(-77.176 -4.786)" fill="#60cb28"/>
            </g>
          </g>
        </g>
      </g>
    </g>
  </g>
</svg>
