<svg xmlns="http://www.w3.org/2000/svg" xmlns:xlink="http://www.w3.org/1999/xlink" width="141" height="141" viewBox="0 0 141 141">
  <defs>
    <clipPath id="clip-path">
      <rect id="Rectángulo_380413" data-name="Rectángulo 380413" width="84.154" height="84.173" fill="none"/>
    </clipPath>
  </defs>
  <g id="Grupo_1082955" data-name="Grupo 1082955" transform="translate(-727 -8154.146)">
    <g id="Grupo_1071490" data-name="Grupo 1071490" transform="translate(458 7196.146)">
      <circle id="Elipse_5614" data-name="Elipse 5614" cx="70.5" cy="70.5" r="70.5" transform="translate(269 958)" fill="#304c8e"/>
    </g>
    <g id="Grupo_1082116" data-name="Grupo 1082116" transform="translate(755.423 8186.537)">
      <g id="Grupo_1082115" data-name="Grupo 1082115" clip-path="url(#clip-path)">
        <path id="Trazado_836322" data-name="Trazado 836322" d="M0,41.1c.6-.263.426-.883.523-1.321a24.056,24.056,0,0,1,7.736-13.2c.786-.693.817-1.13.346-2.05A15.791,15.791,0,0,1,22.658,1.408,15.953,15.953,0,0,0,29.225.459C32.358-.9,35.938.9,37.367,4.048a6.55,6.55,0,0,1-2.675,8.523c-1.026.594-1.133.972-.582,2a21.617,21.617,0,0,1,2.425,8.049,1.936,1.936,0,0,0,.942,1.611c10.7,7.2,14.207,19.336,8.963,31.048a1.5,1.5,0,0,0,.461,2c5.293,5.258,10.537,10.565,15.858,15.793a2.992,2.992,0,0,1,.951,2.842,9.679,9.679,0,0,1-8.287,8.22,2.865,2.865,0,0,1-2.7-.9C47.5,77.907,42.183,72.672,36.942,67.363a1.7,1.7,0,0,0-2.3-.408A24.368,24.368,0,0,1,.6,50.213c-.127-.552.022-1.26-.6-1.653ZM18.992,60.172c0-5.587-.025-10.95.025-16.314.008-.882-.452-1.143-1.087-1.445-.346-.164-1-.267-.638-.912.342-.614.383-1.534,1.143-1.752,1-.288,3.274,1.768,3.274,2.845,0,5.647.035,11.294-.028,16.941-.012,1.1.333,1.478,1.387,1.543a17.071,17.071,0,0,0,8.538-1.653,1.448,1.448,0,0,0,.975-1.521c-.048-4.291,0-8.583-.04-12.874a8.814,8.814,0,0,0-2.094-5.594c-2.188-2.677-2.708-2.712-5.113-.391a.876.876,0,0,0-.119.121c-.519.732-.965.7-1.589.028-1.345-1.446-2.815-2.775-4.16-4.222a1.078,1.078,0,0,0-1.7-.164,9.249,9.249,0,0,0-4.183,7.716c-.052,3.613.306,7.265-.106,10.831-.4,3.482,1.31,5.043,4.054,6.19.408.171.812.349,1.459.628M12.817,29.756c-2.024-2.034-2.06-2.068-3.931-.068A21.3,21.3,0,0,0,3,48.186a21.7,21.7,0,1,0,33.32-21.5,3,3,0,0,0-.873-.505,2.652,2.652,0,0,0-2.741.81c-.651,1.047.78,1.115,1.337,1.444a18.979,18.979,0,1,1-21.227,1.322m12-25.494C17.788,3.4,11.539,7.455,9.905,13.933c-1.47,5.827.964,12.322,7.681,15.58.081-2.344.382-4.56-1.764-6.478-1.739-1.555-1.146-4.558.862-5.91a1.959,1.959,0,0,0,.971-1.89,4.044,4.044,0,0,1,4.352-4.321c3.051-.027,6.1.028,9.153-.02a4.063,4.063,0,0,0,4.1-3.726,4.149,4.149,0,0,0-3.273-4.334,3.924,3.924,0,0,0-4.66,2.956c-.415,1.772-1.676,1.1-2.467.96-.916-.165-.235-1.07-.174-1.658.029-.277.086-.551.131-.829M44.551,58.7a24.441,24.441,0,0,1-5.211,5.4c-.97.686-.863,1.063-.091,1.824,4.665,4.6,9.281,9.248,13.913,13.881,1.9,1.9,2.794,1.97,5.014.4a6.915,6.915,0,0,0,2.7-3.97,1.474,1.474,0,0,0-.447-1.643C55.15,69.332,49.9,64.054,44.551,58.7M25.957,13.624c-.4,0-.791,0-1.186,0-4.5.051-4.536-.665-4.419,4.323,0,.113-.011.227,0,.339.066.566-.142.832-.748.771-.847-.084-1.615.08-1.906,1.01a1.865,1.865,0,0,0,.854,2.052,5.053,5.053,0,0,1,1.814,4.514c-.081,1.237-.016,2.485-.015,3.728,0,1.333,2.659,5.118,3.862,5.535.263.091.4-.017.589-.143a2.336,2.336,0,0,0,.941-2.672c-.193-.9-1.038-.457-1.537-.425-1.036.068-1.143-.382-1.181-1.268-.049-1.127.181-1.687,1.439-1.5A10.944,10.944,0,0,0,26.5,29.9c1.985-.085,3.407-1.343,3.3-3.3a1.948,1.948,0,0,1,1.865-2.362c.384-.074.74-.306,1.124-.359,1.077-.15,1.158-.745.99-1.685A36.494,36.494,0,0,0,32.1,16.531c-.8-2.285-2.12-3.43-4.618-2.921a7.749,7.749,0,0,1-1.522.014m9.319,43.19a16.207,16.207,0,0,0-1.107-25.035c-1.419-1.053-2.787-2.23-4.317-.172a1.4,1.4,0,0,1-.426.27,1.69,1.69,0,0,0-.032,3.079,11.988,11.988,0,0,1,5.88,10.763c.007,3.605,0,7.21,0,11.1M10.855,53.747c0-3.391.108-6.315-.024-9.23-.227-4.98,1.285-9.106,5.468-12.024-.669-1.1-1.312-.965-2.189-.25-6.307,5.14-7.83,14.108-3.255,21.5" transform="translate(0 0)" fill="#fff"/>
        <path id="Trazado_836323" data-name="Trazado 836323" d="M87.428.071C94.154.071,100.88.1,107.6.045c1.132-.009,1.56.188,1.513,1.437-.105,2.765-.059,5.538-.017,8.306.013.83-.142,1.162-1.089,1.16q-20.6-.05-41.2-.008c-.821,0-1.188-.126-1.166-1.085.069-2.881.075-5.765,0-8.646C65.615.163,66.03.05,66.913.054,73.751.086,80.59.071,87.428.071M73.81,5.376c0-2.591,0-2.591-2.5-2.591-2.93,0-2.93,0-2.93,3.006,0,2.422,0,2.422,2.5,2.422,2.93,0,2.93,0,2.93-2.837m5.508-2.591c-2.795,0-2.795,0-2.795,2.8,0,2.625,0,2.625,2.632,2.625,2.795,0,2.795,0,2.795-2.8,0-2.625,0-2.625-2.632-2.625M90.09,5.513c0-2.728,0-2.728-2.7-2.728-2.728,0-2.728,0-2.728,2.7,0,2.728,0,2.728,2.7,2.728,2.728,0,2.728,0,2.728-2.7m8.141-.126c0-2.6,0-2.6-2.656-2.6-2.771,0-2.771,0-2.771,2.826,0,2.6,0,2.6,2.656,2.6,2.771,0,2.771,0,2.771-2.826m5.473-2.6c-2.76,0-2.76,0-2.76,2.836,0,2.591,0,2.591,2.666,2.591,2.761,0,2.761,0,2.761-2.837,0-2.591,0-2.591-2.667-2.591" transform="translate(-24.967 -0.017)" fill="#fff"/>
        <path id="Trazado_836324" data-name="Trazado 836324" d="M100.7,57.574c0-2.713.042-5.426-.022-8.137-.023-.96.255-1.22,1.213-1.212q8.307.068,16.614,0c.958-.008,1.219.255,1.211,1.212q-.068,8.308,0,16.615c.008.959-.255,1.219-1.212,1.212q-8.307-.068-16.614,0c-.959.007-1.234-.253-1.212-1.213.063-2.824.022-5.651.022-8.477m2.712.007c0,1.979.039,3.958-.019,5.934-.024.827.242,1.04,1.047,1.032q5.764-.059,11.529,0c.825.009,1.039-.242,1.031-1.047q-.059-5.765,0-11.53c.009-.825-.242-1.039-1.047-1.031q-5.765.059-11.529,0c-.825-.009-1.055.24-1.031,1.047.055,1.863.017,3.73.017,5.595" transform="translate(-38.294 -18.342)" fill="#fff"/>
        <path id="Trazado_836325" data-name="Trazado 836325" d="M119.7,92.949c0,2.713-.042,5.426.022,8.137.023.961-.257,1.219-1.213,1.211q-8.307-.067-16.613,0c-.959.007-1.219-.257-1.211-1.213q.068-8.307,0-16.615c-.008-.959.256-1.219,1.213-1.211q8.307.067,16.614,0c.959-.007,1.232.255,1.211,1.213-.063,2.824-.022,5.651-.022,8.477m-9.49-6.956c-1.922,0-3.844.037-5.765-.018-.806-.023-1.056.206-1.047,1.032q.063,5.765,0,11.53c-.008.8.206,1.056,1.031,1.047q5.765-.063,11.529,0c.8.009,1.056-.206,1.047-1.031q-.063-5.765,0-11.53c.009-.8-.2-1.072-1.031-1.047-1.92.059-3.843.019-5.765.019" transform="translate(-38.295 -31.667)" fill="#fff"/>
        <path id="Trazado_836326" data-name="Trazado 836326" d="M91.187,21.964c3.617,0,7.235.059,10.85-.033,1.192-.03,1.218.49,1.216,1.389s-.019,1.4-1.213,1.39q-11.019-.1-22.04,0c-1.189.011-1.218-.49-1.216-1.388S78.8,21.9,80,21.93c3.728.092,7.459.033,11.189.033" transform="translate(-29.966 -8.341)" fill="#fff"/>
        <path id="Trazado_836327" data-name="Trazado 836327" d="M90.849,33.436c-3.617,0-7.235-.059-10.85.033-1.2.032-1.213-.5-1.214-1.39S78.81,30.68,80,30.69q11.019.1,22.04,0c1.193-.01,1.213.5,1.213,1.39s-.022,1.418-1.215,1.389c-3.728-.09-7.459-.033-11.189-.033" transform="translate(-29.966 -11.673)" fill="#fff"/>
        <path id="Trazado_836328" data-name="Trazado 836328" d="M80.181,39.525c1.425-.389,1.26.5,1.36,1.392.146,1.3-.562,1.212-1.48,1.3-1.3.128-1.228-.561-1.3-1.485-.094-1.25.433-1.5,1.419-1.208" transform="translate(-29.953 -14.992)" fill="#fff"/>
        <path id="Trazado_836329" data-name="Trazado 836329" d="M88.939,39.525c1.425-.389,1.26.5,1.36,1.392.146,1.3-.562,1.212-1.48,1.3-1.3.128-1.228-.561-1.3-1.485-.094-1.25.433-1.5,1.419-1.208" transform="translate(-33.284 -14.992)" fill="#fff"/>
        <path id="Trazado_836330" data-name="Trazado 836330" d="M97.726,39.528c1.45-.392,1.217.554,1.327,1.414.171,1.343-.612,1.178-1.5,1.28-1.346.156-1.19-.613-1.277-1.5-.127-1.3.506-1.43,1.447-1.193" transform="translate(-36.614 -14.998)" fill="#fff"/>
        <path id="Trazado_836331" data-name="Trazado 836331" d="M106.193,42.162c-1.433.389-1.021-.7-1.149-1.491-.232-1.428.712-1.109,1.53-1.228,1.431-.209,1.114.717,1.228,1.536.2,1.411-.677,1.254-1.609,1.183" transform="translate(-39.94 -14.991)" fill="#fff"/>
        <path id="Trazado_836332" data-name="Trazado 836332" d="M116.51,40.64c.115.951.175,1.743-1.2,1.571-.85-.107-1.7.14-1.521-1.252.112-.848-.137-1.718,1.253-1.515.822.121,1.845-.207,1.464,1.2" transform="translate(-43.271 -14.991)" fill="#fff"/>
        <path id="Trazado_836333" data-name="Trazado 836333" d="M45.224,29.1a1.336,1.336,0,0,1-1.406-1.349,1.237,1.237,0,0,1,1.2-1.351,1.251,1.251,0,0,1,1.477,1.231c.075.856-.459,1.309-1.267,1.469" transform="translate(-16.666 -10.036)" fill="#fff"/>
        <path id="Trazado_836334" data-name="Trazado 836334" d="M111.838,65.234c-.251-.215-.465-.378-.656-.565a20.8,20.8,0,0,0-1.933-1.9c-1.143-.861-.864-1.474.037-2.339.711-.682,1.13-.542,1.592.117.692.987,1.24.718,1.944-.045,1.264-1.368,2.676-2.6,3.922-3.982.726-.806,1.174-.751,1.843.027.542.628,1.094,1,.18,1.849-2.106,1.962-4.1,4.05-6.135,6.085-.234.234-.482.454-.8.748" transform="translate(-41.267 -21.278)" fill="#fff"/>
        <path id="Trazado_836335" data-name="Trazado 836335" d="M119.575,92.408c-.33.386-.5.609-.69.8-2.114,2.12-4.251,4.215-6.341,6.359-1.185,1.216-1.734-.18-1.995-.683-.529-1.02-2.893-1.079-1.7-2.959.589-.926,1.39-1.544,2.274-.193.481.734.913.542,1.449-.02,1.4-1.471,2.852-2.9,4.31-4.315.275-.266.512-.9,1.068-.462s1.063.959,1.619,1.47" transform="translate(-41.276 -34.532)" fill="#fff"/>
      </g>
    </g>
  </g>
</svg>
