<svg xmlns="http://www.w3.org/2000/svg" xmlns:xlink="http://www.w3.org/1999/xlink" width="125.072" height="125.072" viewBox="0 0 125.072 125.072">
  <defs>
    <clipPath id="clip-path">
      <rect id="Rectángulo_380916" data-name="Rectángulo 380916" width="74.854" height="74.854" fill="none"/>
    </clipPath>
  </defs>
  <g id="Grupo_1082950" data-name="Grupo 1082950" transform="translate(-743 -10844.395)">
    <g id="Grupo_1082817" data-name="Grupo 1082817" transform="translate(5 8698.395)">
      <path id="Trazado_608386" data-name="Trazado 608386" d="M62.5,0A62.5,62.5,0,1,1,0,62.5,62.5,62.5,0,0,1,62.5,0Z" transform="translate(738 2146)" fill="#304c8e"/>
      <g id="Group_43_" data-name="Group (43)" transform="translate(831 2239)">
        <path id="Trazado_598926" data-name="Trazado 598926" d="M36.549,16.055,16.055,36.549a15.864,15.864,0,0,0,.655,1.582l21.422-21.42a15.863,15.863,0,0,0-1.582-.655Z" transform="translate(-15.17 -15.17)" fill="#4ca220"/>
        <path id="Trazado_598927" data-name="Trazado 598927" d="M18.367.8.8,18.367a16.022,16.022,0,0,0,.26,1.7L20.065,1.058A16.022,16.022,0,0,0,18.367.8Z" transform="translate(-0.754 -0.754)" fill="#4ca220"/>
        <path id="Trazado_598928" data-name="Trazado 598928" d="M299.7,283.668c0-.137-.008-.274-.01-.41l-16.454,16.453c.137,0,.273.01.41.01a16.091,16.091,0,0,0,1.678-.088l14.289-14.289a16.09,16.09,0,0,0,.088-1.678Z" transform="translate(-267.627 -267.648)" fill="#4ca220"/>
        <path id="Trazado_598929" data-name="Trazado 598929" d="M68.634,46.122q-.611-.481-1.267-.9L45.2,67.389q.42.656.9,1.267Z" transform="translate(-42.708 -42.73)" fill="#4ca220"/>
        <path id="Trazado_598930" data-name="Trazado 598930" d="M0,15.009,15.009,0c-.434.026-.863.07-1.287.131L.131,13.722C.07,14.145.026,14.575,0,15.009Z" fill="#4ca220"/>
        <path id="Trazado_598931" data-name="Trazado 598931" d="M106.76,84.058l-22.7,22.7a16.114,16.114,0,0,0,1.365,1.222l22.559-22.559A16.123,16.123,0,0,0,106.76,84.058Z" transform="translate(-79.426 -79.426)" fill="#4ca220"/>
        <path id="Trazado_598932" data-name="Trazado 598932" d="M159.927,138.548a16.093,16.093,0,0,0-.877-1.6l-22.108,22.108a15.959,15.959,0,0,0,1.6.877Z" transform="translate(-129.396 -129.396)" fill="#4ca220"/>
        <path id="Trazado_598933" data-name="Trazado 598933" d="M28.816,19.794a16.1,16.1,0,0,0-9.022,9.022Z" transform="translate(-18.704 -18.704)" fill="#4ca220"/>
        <path id="Trazado_598934" data-name="Trazado 598934" d="M382.436,392.617a16.085,16.085,0,0,0,10.18-10.18Z" transform="translate(-361.361 -361.361)" fill="#4ca220"/>
        <path id="Trazado_598935" data-name="Trazado 598935" d="M220.714,200.477l-20.237,20.237a15.962,15.962,0,0,0,2.154.537l18.619-18.619A16.154,16.154,0,0,0,220.714,200.477Z" transform="translate(-189.429 -189.429)" fill="#4ca220"/>
      </g>
    </g>
    <g id="Grupo_1082825" data-name="Grupo 1082825" transform="translate(768.073 10869.504)">
      <g id="Grupo_1082824" data-name="Grupo 1082824" clip-path="url(#clip-path)">
        <path id="Trazado_837909" data-name="Trazado 837909" d="M77.09,90.984c-3.406,0-6.813.038-10.218-.025-.935-.017-2.368.633-2.341-1.327.025-1.851,1.379-1.243,2.27-1.249,6.411-.044,12.823-.02,19.234-.025,4.488,0,6.153-1.685,6.158-6.207,0-3.807.041-7.614-.02-11.42-.02-1.249.416-1.663,1.648-1.642.956.016,2.306.535,2.8-.392s-.718-1.724-1.229-2.533c-1.363-2.16-2.8-4.272-4.24-6.382-.931-1.366-1.567-1.379-2.48-.037q-2.662,3.913-5.255,7.873c-.728,1.111-.52,1.434.861,1.5,3.324.16,3.325.16,3.324,3.52,0,2.755.016,5.51-.008,8.264-.017,1.964-.891,2.852-2.851,2.857-6.211.018-12.422,0-18.633.018-.983,0-1.6-.137-1.6-1.369.01-1.315.8-1.268,1.69-1.267,5.66.006,11.32-.032,16.98.028,1.329.014,1.9-.294,1.822-1.746-.117-2.1-.055-4.206-.019-6.309.016-.906-.209-1.346-1.244-1.394-3.3-.155-4.569-2.6-2.788-5.36q2.806-4.357,5.747-8.628c1.769-2.578,4.65-2.548,6.43.056q2.84,4.156,5.585,8.375c1.922,2.946.751,5.351-2.74,5.556-1.1.064-1.173.631-1.168,1.465q.025,5.034,0,10.068c-.013,4.734-2.963,7.711-7.659,7.726-3.356.011-6.711,0-10.068,0" transform="translate(-28.422 -24.59)" fill="#fff"/>
        <path id="Trazado_837910" data-name="Trazado 837910" d="M29.118,15.119c3.606,0,7.213.005,10.819,0,.894,0,1.668-.045,1.691,1.268.023,1.39-.783,1.366-1.748,1.364q-9.918-.016-19.835,0c-4.4,0-6.087,1.7-6.094,6.118-.006,3.857-.036,7.715.017,11.57.016,1.17-.375,1.578-1.556,1.582-1,0-2.438-.6-2.912.439-.424.924.82,1.8,1.367,2.662,1.316,2.071,2.695,4.1,4.074,6.132.986,1.452,1.608,1.471,2.567.057q2.615-3.854,5.17-7.749c.789-1.2.6-1.516-.876-1.574-3.262-.127-3.262-.127-3.262-3.432,0-2.755-.013-5.51.006-8.265.015-2.077.857-2.941,2.913-2.946,6.161-.016,12.322,0,18.483-.01.9,0,1.665-.036,1.686,1.272.022,1.393-.791,1.362-1.752,1.36-5.66-.011-11.321.041-16.98-.036-1.426-.019-1.82.457-1.757,1.812.1,2.1.058,4.207.012,6.31-.021.968.332,1.292,1.307,1.332,3.189.13,4.494,2.6,2.775,5.285-1.89,2.952-3.842,5.866-5.831,8.753-1.724,2.5-4.612,2.484-6.34-.034q-2.934-4.273-5.749-8.628c-1.788-2.772-.53-5.228,2.758-5.375,1.017-.045,1.273-.45,1.265-1.374-.031-3.456-.023-6.912-.008-10.369.02-4.5,3.038-7.5,7.571-7.515,3.406-.015,6.812,0,10.218,0" transform="translate(-2.863 -6.659)" fill="#fff"/>
        <path id="Trazado_837911" data-name="Trazado 837911" d="M58.254,69.889a14.337,14.337,0,0,1-1.95-.015,3.514,3.514,0,0,1-2.938-3.168,17.593,17.593,0,0,1-.022-2.553,4.013,4.013,0,0,0-1.79-3.7,10.37,10.37,0,0,1-4.009-10.934A10.437,10.437,0,0,1,55.8,41.109a10.945,10.945,0,0,1,9.384,19.148A4.431,4.431,0,0,0,63.171,64.6a3.9,3.9,0,0,1,0,.45c0,3.826-1.07,4.885-4.918,4.838m1.312-11.182h.012c0,1-.006,2,0,3.005,0,.307.059.615.438.684a.376.376,0,0,0,.464-.283c.34-2.359,2.411-3.323,3.832-4.818a8.056,8.056,0,0,0,1.347-9.072,8.2,8.2,0,0,0-15.232.986,7.989,7.989,0,0,0,2.876,9.105A6.172,6.172,0,0,1,55.873,61.7c.081.329.133.76.622.686.466-.07.435-.492.437-.835.01-1.6-.027-3.207.022-4.809a2.226,2.226,0,0,0-.971-2.026,3.7,3.7,0,0,1-.427-5.551,3.77,3.77,0,0,1,5.4,0,3.7,3.7,0,0,1-.436,5.549,2.15,2.15,0,0,0-.961,2.03c.045.648.009,1.3.009,1.953m-1.392,8.643c0-.026,0-.052,0-.078a6.779,6.779,0,0,0,1.188-.012,1.274,1.274,0,0,0,1.146-1.342c0-.937-.726-.767-1.293-.784-.694-.021-1.39-.013-2.084,0-.488.008-1.068-.07-1.139.638a1.229,1.229,0,0,0,.862,1.4,7.065,7.065,0,0,0,1.316.178" transform="translate(-20.823 -17.972)" fill="#fff"/>
        <path id="Trazado_837912" data-name="Trazado 837912" d="M99.318,26.715a13.873,13.873,0,0,0-1.65.011,1.764,1.764,0,0,1-2.257-1.571c-.21-1.18-.884-1.184-1.71-.61a1.679,1.679,0,0,1-2.576-.441,14.906,14.906,0,0,0-1.907-1.912c-1.2-1.022-2.047-2.043-.823-3.631.48-.623.044-1.061-.6-1.166-1.593-.262-1.977-1.251-1.806-2.7A11.3,11.3,0,0,0,86,12.6c-.11-1.583-.1-3,2-3.323.942-.145.579-.911.242-1.4a1.832,1.832,0,0,1,.49-2.821,13.076,13.076,0,0,0,1.807-1.8c1.019-1.2,2.033-2.031,3.634-.826.748.563,1.078-.106,1.206-.738A1.865,1.865,0,0,1,97.729.026a13.38,13.38,0,0,0,2.4.007c1.584-.105,3-.1,3.322,2,.144.943.914.575,1.4.239a1.83,1.83,0,0,1,2.82.489,12.988,12.988,0,0,0,1.8,1.807C110.681,5.59,111.5,6.6,110.3,8.2c-.562.75.106,1.07.747,1.191a1.867,1.867,0,0,1,1.652,2.363,14.818,14.818,0,0,0-.005,2.551c.11,1.561.007,2.877-1.988,3.177-.949.143-.592.9-.255,1.4a1.832,1.832,0,0,1-.482,2.823,12.889,12.889,0,0,0-1.807,1.8c-1.019,1.205-2.053,2.063-3.628.82-.408-.322-.98-.274-1.06.314-.307,2.257-1.892,2.2-3.553,2.08-.2-.015-.4,0-.6,0m-.192-2.627c1.537.026,1.577,0,2.06-1.316.761-2.071,1.537-2.437,3.486-1.461a1.674,1.674,0,0,0,2.242-.387,1.661,1.661,0,0,0,.346-2.247c-.943-1.871-.582-2.754,1.377-3.393a1.738,1.738,0,0,0,1.46-1.9,1.74,1.74,0,0,0-1.454-1.907c-1.962-.638-2.325-1.525-1.385-3.389a1.659,1.659,0,0,0-.341-2.248,1.675,1.675,0,0,0-2.241-.394c-1.955.979-2.776.631-3.467-1.46a1.635,1.635,0,0,0-1.824-1.346A1.667,1.667,0,0,0,97.5,3.9c-.726,2.2-1.5,2.517-3.552,1.512a1.6,1.6,0,0,0-2.117.366,1.667,1.667,0,0,0-.446,2.231c1.01,2.024.657,2.84-1.511,3.572A1.564,1.564,0,0,0,88.606,13.3a1.648,1.648,0,0,0,1.266,1.878c2.18.712,2.528,1.543,1.52,3.563a1.664,1.664,0,0,0,.441,2.231,1.6,1.6,0,0,0,2.116.372c2.059-1.006,2.809-.686,3.562,1.5.305.89.727,1.407,1.616,1.24" transform="translate(-37.867 0)" fill="#fff"/>
        <path id="Trazado_837913" data-name="Trazado 837913" d="M18.091,110.1c-.657.1-.693.675-.8,1.125a1.691,1.691,0,0,1-2.045,1.466,17.641,17.641,0,0,0-2.851,0c-1.521.116-2.782-.019-3.074-1.916-.138-.9-.822-.766-1.365-.37-1.26.922-2.177.472-3.046-.6a11.5,11.5,0,0,0-1.59-1.592c-1.261-1.043-2.119-2.1-.867-3.752.5-.666-.091-1.026-.674-1.123-1.527-.255-1.889-1.206-1.747-2.591a12.979,12.979,0,0,0,0-2.4c-.13-1.525.028-2.777,1.918-3.07.9-.139.76-.827.365-1.367-.923-1.262-.471-2.18.6-3.045a11.606,11.606,0,0,0,1.489-1.482c1.064-1.241,2.107-2.3,3.856-.973.666.507,1.023-.1,1.12-.678.254-1.531,1.213-1.883,2.594-1.744a13.034,13.034,0,0,0,2.4,0c1.526-.13,2.777.029,3.069,1.92.139.9.827.761,1.367.366,1.26-.922,2.179-.477,3.045.6a11.6,11.6,0,0,0,1.482,1.488c1.241,1.065,2.312,2.118.967,3.854-.43.555-.035.991.543,1.071,1.7.234,2.045,1.306,1.88,2.792a11.708,11.708,0,0,0-.006,1.951c.093,1.61.164,3.129-2.041,3.437-.833.116-.565.845-.239,1.3.912,1.258.487,2.178-.591,3.049A11.345,11.345,0,0,0,22.26,109.4c-1.043,1.258-2.125,2.162-3.742.856a1.427,1.427,0,0,0-.427-.155m1.437-2.49a2.134,2.134,0,0,0,1.841-2.778c-.986-2.25-.761-2.885,1.535-3.671A1.576,1.576,0,0,0,24.117,99.4a1.646,1.646,0,0,0-1.24-1.9c-2.231-.74-2.539-1.489-1.539-3.54a1.591,1.591,0,0,0-.345-2.121,1.675,1.675,0,0,0-2.228-.465c-2.046,1.016-2.814.693-3.545-1.521a1.643,1.643,0,0,0-1.888-1.252,1.579,1.579,0,0,0-1.767,1.207c-.789,2.306-1.45,2.58-3.656,1.522a1.609,1.609,0,0,0-2.1.477A1.582,1.582,0,0,0,5.4,93.923c1.026,2.12.711,2.864-1.577,3.649a1.918,1.918,0,0,0,.029,3.551c2.277.775,2.579,1.5,1.535,3.667a1.6,1.6,0,0,0,.442,2.1,1.6,1.6,0,0,0,2.1.444c2.134-1.033,2.872-.74,3.588,1.423a1.719,1.719,0,0,0,1.836,1.335c1.361.083,1.673-.713,2.014-1.723.53-1.573,1.524-1.961,3.03-1.279.408.185.814.377,1.127.522" transform="translate(0 -37.868)" fill="#fff"/>
        <path id="Trazado_837914" data-name="Trazado 837914" d="M105.067,25.214a6.009,6.009,0,0,1-6.115-6.194,6.117,6.117,0,0,1,12.233.153,6.006,6.006,0,0,1-6.118,6.041m.018-9.554A3.437,3.437,0,1,0,108.5,19.15a3.517,3.517,0,0,0-3.419-3.491" transform="translate(-43.591 -5.718)" fill="#fff"/>
        <path id="Trazado_837915" data-name="Trazado 837915" d="M18.969,111.18a6.119,6.119,0,0,1,.268-12.235,6.119,6.119,0,1,1-.268,12.235m3.569-6.075a3.436,3.436,0,1,0-3.516,3.393,3.519,3.519,0,0,0,3.516-3.393" transform="translate(-5.721 -43.588)" fill="#fff"/>
      </g>
    </g>
  </g>
</svg>
