<svg xmlns="http://www.w3.org/2000/svg" xmlns:xlink="http://www.w3.org/1999/xlink" width="125.072" height="125.072" viewBox="0 0 125.072 125.072">
  <defs>
    <clipPath id="clip-path">
      <rect id="Rectángulo_380734" data-name="Rectángulo 380734" width="85.298" height="85.379" fill="none"/>
    </clipPath>
  </defs>
  <g id="Grupo_1082933" data-name="Grupo 1082933" transform="translate(-386 -4127.9)">
    <g id="Grupo_1082560" data-name="Grupo 1082560" transform="translate(0 1981.9)">
      <path id="Trazado_608385" data-name="Trazado 608385" d="M62.5,0A62.5,62.5,0,1,1,0,62.5,62.5,62.5,0,0,1,62.5,0Z" transform="translate(386 2146)" fill="#304c8e"/>
      <g id="Group_43_" data-name="Group (43)" transform="translate(479 2239)">
        <path id="Trazado_598926" data-name="Trazado 598926" d="M36.549,16.055,16.055,36.549a15.864,15.864,0,0,0,.655,1.582l21.422-21.42a15.863,15.863,0,0,0-1.582-.655Z" transform="translate(-15.17 -15.17)" fill="#4ca220"/>
        <path id="Trazado_598927" data-name="Trazado 598927" d="M18.367.8.8,18.367a16.022,16.022,0,0,0,.26,1.7L20.065,1.058A16.022,16.022,0,0,0,18.367.8Z" transform="translate(-0.754 -0.754)" fill="#4ca220"/>
        <path id="Trazado_598928" data-name="Trazado 598928" d="M299.7,283.668c0-.137-.008-.274-.01-.41l-16.454,16.453c.137,0,.273.01.41.01a16.091,16.091,0,0,0,1.678-.088l14.289-14.289a16.09,16.09,0,0,0,.088-1.678Z" transform="translate(-267.627 -267.648)" fill="#4ca220"/>
        <path id="Trazado_598929" data-name="Trazado 598929" d="M68.634,46.122q-.611-.481-1.267-.9L45.2,67.389q.42.656.9,1.267Z" transform="translate(-42.708 -42.73)" fill="#4ca220"/>
        <path id="Trazado_598930" data-name="Trazado 598930" d="M0,15.009,15.009,0c-.434.026-.863.07-1.287.131L.131,13.722C.07,14.145.026,14.575,0,15.009Z" fill="#4ca220"/>
        <path id="Trazado_598931" data-name="Trazado 598931" d="M106.76,84.058l-22.7,22.7a16.114,16.114,0,0,0,1.365,1.222l22.559-22.559A16.123,16.123,0,0,0,106.76,84.058Z" transform="translate(-79.426 -79.426)" fill="#4ca220"/>
        <path id="Trazado_598932" data-name="Trazado 598932" d="M159.927,138.548a16.093,16.093,0,0,0-.877-1.6l-22.108,22.108a15.959,15.959,0,0,0,1.6.877Z" transform="translate(-129.396 -129.396)" fill="#4ca220"/>
        <path id="Trazado_598933" data-name="Trazado 598933" d="M28.816,19.794a16.1,16.1,0,0,0-9.022,9.022Z" transform="translate(-18.704 -18.704)" fill="#4ca220"/>
        <path id="Trazado_598934" data-name="Trazado 598934" d="M382.436,392.617a16.085,16.085,0,0,0,10.18-10.18Z" transform="translate(-361.361 -361.361)" fill="#4ca220"/>
        <path id="Trazado_598935" data-name="Trazado 598935" d="M220.714,200.477l-20.237,20.237a15.962,15.962,0,0,0,2.154.537l18.619-18.619A16.154,16.154,0,0,0,220.714,200.477Z" transform="translate(-189.429 -189.429)" fill="#4ca220"/>
      </g>
    </g>
    <g id="Grupo_1082569" data-name="Grupo 1082569" transform="translate(405.852 4141.994)">
      <g id="Grupo_1082568" data-name="Grupo 1082568" transform="translate(0 0)" clip-path="url(#clip-path)">
        <path id="Trazado_837549" data-name="Trazado 837549" d="M64.016,51.468c-3.262,0-5.979.014-8.7-.008-.838-.007-1.52.047-1.714,1.093-.126.676-.719,1.093-1.224,1.531Q40.014,64.822,27.651,75.565c-.126.109-.249.221-.377.327-.813.675-1.678,1.159-2.711.486-1.081-.705-1.065-1.688-.664-2.788,1.879-5.154,3.712-10.325,5.62-15.467.484-1.3.709-2.126-1.2-2.16a35.825,35.825,0,0,1-5.1-.645c-1.943-.318-2.47-1.025-2.053-2.95.2-.941-.256-.9-.853-.9-1.885,0-3.77.008-5.655-.005a14.806,14.806,0,0,1-1.594-29.508c2.206-.259,2.119-.254,2-2.376A18.332,18.332,0,0,1,32.386.012C40.822-.242,46.817,3.551,50.345,11.2a1.377,1.377,0,0,0,1.9.938c7.32-1.741,12.985,1.468,15.382,8.707.286.862.671,1.15,1.539,1.063a14.82,14.82,0,0,1,3.769,29.376c-3.118.537-6.31.071-8.92.184M57.28,47.59c4.38,0,8.76.01,13.139,0a10.537,10.537,0,0,0,5.96-1.792,10.994,10.994,0,0,0,3.963-13.667,10.882,10.882,0,0,0-12.725-6c-2.754.7-3.258.334-3.516-2.567-.6-6.715-7.025-10.035-12.893-6.661-2.028,1.166-3.139.665-3.686-1.663A14.42,14.42,0,1,0,19.7,22.688c.8,2.649-.1,3.683-2.8,3.241A11.008,11.008,0,0,0,4.235,34.366a10.843,10.843,0,0,0,8.718,12.993c3.064.583,6.2.09,9.291.251a2.3,2.3,0,0,0,2.381-1.363c2.052-3.679,4.2-7.3,6.264-10.976A2.934,2.934,0,0,1,33.847,33.6c4.485.167,8.973.263,13.459.375,1.037.025,2.029.141,2.557,1.189.538,1.069-.027,1.915-.641,2.737q-3.135,4.2-6.262,8.4c-.225.3-.655.6-.5.989.207.526.777.294,1.185.3,4.546.017,9.093.011,13.639.008m-9.7,5.429c-3.1-.738-5.826-1.371-8.546-2.043-2.589-.639-3.037-1.9-1.45-4.052,1.94-2.631,3.906-5.244,5.849-7.872.218-.294.645-.577.417-1s-.7-.233-1.066-.243a68.133,68.133,0,0,1-7.136-.3,1.823,1.823,0,0,0-2.053,1.006q-3.388,6.007-6.872,11.96c-.6,1.036-.241,1.346.821,1.451,1.706.169,3.405.415,5.1.672q2.724.413,1.906,3.079c-.273.9-.626,1.775-.946,2.661q-1.7,4.717-3.4,9.434l.256.149,17.119-14.9" transform="translate(0 0)" fill="#fff"/>
        <path id="Trazado_837550" data-name="Trazado 837550" d="M21.993,100.532a14.833,14.833,0,0,1,2.21-4.49,1.645,1.645,0,0,1,2.27-.238,1.709,1.709,0,0,1,.847,2.128,33.237,33.237,0,0,1-1.792,3.91,1.748,1.748,0,0,1-2.262.88,1.975,1.975,0,0,1-1.273-2.19" transform="translate(-7.038 -30.553)" fill="#fff"/>
        <path id="Trazado_837551" data-name="Trazado 837551" d="M90.077,122.123a1.818,1.818,0,0,1-1.859-2.327,25.828,25.828,0,0,1,1.948-4.19,1.655,1.655,0,0,1,2.2-.626,1.675,1.675,0,0,1,1.163,1.968,14.5,14.5,0,0,1-2,4.509,1.6,1.6,0,0,1-1.446.665" transform="translate(-28.204 -36.745)" fill="#fff"/>
        <path id="Trazado_837552" data-name="Trazado 837552" d="M78.372,86.634a18.038,18.038,0,0,1,2.281-4.586,1.567,1.567,0,0,1,1.964-.4,1.655,1.655,0,0,1,1.164,1.807,11.149,11.149,0,0,1-2.117,4.781,1.635,1.635,0,0,1-2.113.392,2.038,2.038,0,0,1-1.178-1.995" transform="translate(-25.083 -26.076)" fill="#fff"/>
        <path id="Trazado_837553" data-name="Trazado 837553" d="M76.44,99.873a16.717,16.717,0,0,1-2.2,4.537,1.641,1.641,0,0,1-2.265.265,1.691,1.691,0,0,1-.9-2.1,32.62,32.62,0,0,1,1.871-4.052,1.676,1.676,0,0,1,2.151-.772,1.994,1.994,0,0,1,1.338,2.126" transform="translate(-22.713 -31.244)" fill="#fff"/>
        <path id="Trazado_837554" data-name="Trazado 837554" d="M104.938,89.825a1.872,1.872,0,0,1-1.914-2.277,15.928,15.928,0,0,1,1.9-4.2,1.684,1.684,0,0,1,2.166-.7,1.629,1.629,0,0,1,1.216,1.762,10.025,10.025,0,0,1-2.295,5.011,1.266,1.266,0,0,1-1.072.4" transform="translate(-32.953 -26.408)" fill="#fff"/>
        <path id="Trazado_837555" data-name="Trazado 837555" d="M97.5,105.969a1.847,1.847,0,0,1-1.857-2.33,16.279,16.279,0,0,1,1.937-4.181,1.659,1.659,0,0,1,2.036-.681,1.608,1.608,0,0,1,1.309,1.691,10.343,10.343,0,0,1-2.222,5.055,1.42,1.42,0,0,1-1.2.446" transform="translate(-30.586 -31.579)" fill="#fff"/>
        <path id="Trazado_837556" data-name="Trazado 837556" d="M20.011,113.759a14.394,14.394,0,0,1-2.35,4.731,1.538,1.538,0,0,1-1.977.289,1.761,1.761,0,0,1-1.027-2.053,13.7,13.7,0,0,1,1.938-4.351,1.673,1.673,0,0,1,2.056-.64,2.034,2.034,0,0,1,1.361,2.024" transform="translate(-4.673 -35.722)" fill="#fff"/>
        <path id="Trazado_837557" data-name="Trazado 837557" d="M69.087,115.779a14.456,14.456,0,0,1-2.317,4.785,1.629,1.629,0,0,1-2.263.221,1.713,1.713,0,0,1-.8-2.146,34.276,34.276,0,0,1,1.789-3.9,1.723,1.723,0,0,1,2.113-.884,2.037,2.037,0,0,1,1.477,1.923" transform="translate(-20.35 -36.412)" fill="#fff"/>
        <path id="Trazado_837558" data-name="Trazado 837558" d="M32.683,20.354c.25-4.989,4.907-9.707,10.267-10.037,1.333-.082,2.6.155,2.8,1.673.211,1.535-.877,2.028-2.264,2.238-4.19.635-6.491,2.945-6.916,6.861-.149,1.374-.633,2.457-2.194,2.344-1.627-.119-1.818-1.355-1.7-3.079" transform="translate(-10.451 -3.297)" fill="#fff"/>
      </g>
    </g>
  </g>
</svg>
