<svg xmlns="http://www.w3.org/2000/svg" xmlns:xlink="http://www.w3.org/1999/xlink" width="125.072" height="125.072" viewBox="0 0 125.072 125.072">
  <defs>
    <clipPath id="clip-path">
      <rect id="Rectángulo_380735" data-name="Rectángulo 380735" width="72.686" height="72.803" fill="none"/>
    </clipPath>
  </defs>
  <g id="Grupo_1082932" data-name="Grupo 1082932" transform="translate(-738 -4127.9)">
    <g id="Grupo_1082562" data-name="Grupo 1082562" transform="translate(0 1981.9)">
      <path id="Trazado_608386" data-name="Trazado 608386" d="M62.5,0A62.5,62.5,0,1,1,0,62.5,62.5,62.5,0,0,1,62.5,0Z" transform="translate(738 2146)" fill="#304c8e"/>
      <g id="Group_43_" data-name="Group (43)" transform="translate(831 2239)">
        <path id="Trazado_598926" data-name="Trazado 598926" d="M36.549,16.055,16.055,36.549a15.864,15.864,0,0,0,.655,1.582l21.422-21.42a15.863,15.863,0,0,0-1.582-.655Z" transform="translate(-15.17 -15.17)" fill="#4ca220"/>
        <path id="Trazado_598927" data-name="Trazado 598927" d="M18.367.8.8,18.367a16.022,16.022,0,0,0,.26,1.7L20.065,1.058A16.022,16.022,0,0,0,18.367.8Z" transform="translate(-0.754 -0.754)" fill="#4ca220"/>
        <path id="Trazado_598928" data-name="Trazado 598928" d="M299.7,283.668c0-.137-.008-.274-.01-.41l-16.454,16.453c.137,0,.273.01.41.01a16.091,16.091,0,0,0,1.678-.088l14.289-14.289a16.09,16.09,0,0,0,.088-1.678Z" transform="translate(-267.627 -267.648)" fill="#4ca220"/>
        <path id="Trazado_598929" data-name="Trazado 598929" d="M68.634,46.122q-.611-.481-1.267-.9L45.2,67.389q.42.656.9,1.267Z" transform="translate(-42.708 -42.73)" fill="#4ca220"/>
        <path id="Trazado_598930" data-name="Trazado 598930" d="M0,15.009,15.009,0c-.434.026-.863.07-1.287.131L.131,13.722C.07,14.145.026,14.575,0,15.009Z" fill="#4ca220"/>
        <path id="Trazado_598931" data-name="Trazado 598931" d="M106.76,84.058l-22.7,22.7a16.114,16.114,0,0,0,1.365,1.222l22.559-22.559A16.123,16.123,0,0,0,106.76,84.058Z" transform="translate(-79.426 -79.426)" fill="#4ca220"/>
        <path id="Trazado_598932" data-name="Trazado 598932" d="M159.927,138.548a16.093,16.093,0,0,0-.877-1.6l-22.108,22.108a15.959,15.959,0,0,0,1.6.877Z" transform="translate(-129.396 -129.396)" fill="#4ca220"/>
        <path id="Trazado_598933" data-name="Trazado 598933" d="M28.816,19.794a16.1,16.1,0,0,0-9.022,9.022Z" transform="translate(-18.704 -18.704)" fill="#4ca220"/>
        <path id="Trazado_598934" data-name="Trazado 598934" d="M382.436,392.617a16.085,16.085,0,0,0,10.18-10.18Z" transform="translate(-361.361 -361.361)" fill="#4ca220"/>
        <path id="Trazado_598935" data-name="Trazado 598935" d="M220.714,200.477l-20.237,20.237a15.962,15.962,0,0,0,2.154.537l18.619-18.619A16.154,16.154,0,0,0,220.714,200.477Z" transform="translate(-189.429 -189.429)" fill="#4ca220"/>
      </g>
    </g>
    <g id="Grupo_1082571" data-name="Grupo 1082571" transform="translate(764.157 4149.035)">
      <g id="Grupo_1082570" data-name="Grupo 1082570" clip-path="url(#clip-path)">
        <path id="Trazado_837559" data-name="Trazado 837559" d="M36.309,88.56H3.008q-.638,0-1.275,0C.892,88.555,0,88.516,0,87.395c0-1.061.859-1.318,1.707-1.241,1.359.123,1.7-.472,1.646-1.729-.088-1.885-.036-3.778-.018-5.667a6.524,6.524,0,0,0-.77-3.5A3.423,3.423,0,0,1,5.7,70.269c2.17-.081,4.347-.078,6.517,0,1.2.041,1.651-.305,1.672-1.582.149-9.205.366-18.41.576-27.614.033-1.462.155-2.922.2-4.384.034-1.034.514-1.59,1.562-1.594q3.046-.012,6.093,0c1.144,0,1.565.673,1.594,1.729.063,2.312.17,4.623.215,6.935q.2,10.2.365,20.4c.013.746-.145,1.54,1.058,1.573,1.071.029,1.644-.187,1.707-1.43.185-3.721.482-7.437.737-11.155.084-1.224.232-2.447.241-3.67.01-1.5.779-1.989,2.158-1.923,1.037.05,2.078.019,3.117.012a1.51,1.51,0,0,1,1.747,1.584q.408,6.569.848,13.135c.053.8.156,1.6.207,2.4.044.673.315,1.026,1.047,1.037s1.158-.235,1.214-1.02c.14-1.976.322-3.948.454-5.924.208-3.107.423-6.214.564-9.324.059-1.289.578-1.926,1.9-1.89,1.133.03,2.268.012,3.4.008a1.508,1.508,0,0,1,1.721,1.609c.259,4.143.544,8.285.825,12.427.063.941.16,1.88.215,2.821.042.713.129,1.277,1.084,1.3,1,.026,1.208-.565,1.268-1.324.137-1.74.252-3.482.361-5.224q.3-4.8.585-9.607c.1-1.637.429-1.979,2.055-2,1.039-.016,2.079.014,3.118,0,1.13-.021,1.77.428,1.846,1.632.248,3.955.529,7.907.8,11.861.081,1.176.209,2.351.244,3.529.025.859.418,1.151,1.236,1.137,1.653-.03,3.307-.019,4.96,0,3.564.035,5.087,2.682,3.291,5.748a2.774,2.774,0,0,0-.349,1.484c0,3.92.036,7.842-.021,11.761-.017,1.15.422,1.515,1.5,1.438a8.309,8.309,0,0,1,1.974.085,1.124,1.124,0,0,1,1.02,1.307,1.1,1.1,0,0,1-1.173,1c-.471.029-.944.023-1.416.023H36.309m6.91-20.414c-7.084,0-14.167-.016-21.25.019-.941,0-2.46-.464-2.456,1.074,0,1.441,1.475.984,2.372.987q17.779.04,35.559.02A10.9,10.9,0,0,1,59,70.3a1.177,1.177,0,0,1,1.151,1.212c0,.746-.5,1.086-1.189,1.141-.47.037-.944.026-1.416.026-11.806,0-23.612.017-35.417-.021-1.215,0-1.668.316-1.64,1.589.075,3.446.063,6.895.006,10.341-.019,1.161.358,1.559,1.537,1.556q21.109-.046,42.217,0c1.092,0,1.507-.337,1.49-1.462-.053-3.4-.064-6.8.006-10.2.026-1.277-.229-1.992-1.691-1.821-.819.1-1.6-.194-1.62-1.157s.738-1.214,1.565-1.251c.236-.01.473.008.708-.012.841-.073,2.089.271,2.032-1.076-.053-1.261-1.273-1.008-2.125-1.01q-10.7-.024-21.392-.009m-21.17-6.2h-.033q-.256-10.9-.511-21.8c-.067-2.9.329-2.542-2.7-2.654-1.406-.052-1.743.48-1.755,1.8-.046,5.192-.187,10.385-.312,15.576q-.36,14.865-.74,29.728c-.019.76-.132,1.562,1.071,1.539,1.235-.024,1-.9,1-1.609.014-3.542,0-7.085.013-10.627a5.833,5.833,0,0,0-.7-3.1,3.393,3.393,0,0,1,2.425-5.013c2.257-.461,2.256-.461,2.242-2.841,0-.331,0-.662,0-.992M9.434,72.687c-1.037,0-2.074,0-3.112,0-.681,0-1.406.051-1.59.857-.2.863.5,1.056,1.135,1.328,1.1.468,1.256,1.177.442,2.08a1.911,1.911,0,0,0-.546,1.383c.009,2.168.024,4.337-.007,6.505-.012.87.26,1.315,1.209,1.295q2.686-.058,5.373,0c.937.021,1.239-.393,1.222-1.278-.027-1.46.015-2.922.034-4.384.039-3.067.041-3.075-3.023-3.255-.774-.046-1.478-.214-1.5-1.126-.024-.965.687-1.26,1.52-1.295.753-.031,1.508-.033,2.262-.021s.97-.378.975-1.065c0-.713-.274-1.043-1-1.03-1.131.02-2.263,0-3.394,0m24.253-9.515c-.109-2.072-.2-4.145-.334-6.215-.134-2.022-.325-4.04-.478-6.062-.05-.649-.389-.9-1.017-.9s-1.132.1-1.2.86c-.048.516-.161,1.027-.191,1.544-.226,3.954-.387,7.914-.686,11.863-.086,1.14.163,1.484,1.316,1.468,2.655-.037,2.656.017,2.593-2.559m11.327-.685c-.08-1.37-.18-3.159-.293-4.948q-.2-3.1-.415-6.208c-.054-.748-.2-1.37-1.222-1.35-.945.019-1.066.566-1.11,1.281-.276,4.517-.548,9.035-.844,13.551-.047.716.28.857.91.9,3.065.22,3.064.236,2.974-3.229m11.372.529c-.122-2.29-.223-4.357-.344-6.423q-.16-2.746-.359-5.49c-.058-.786-.476-1.137-1.307-1.117-.852.021-.987.5-1.03,1.186-.264,4.318-.518,8.637-.842,12.951-.1,1.28.391,1.631,1.606,1.605,2.378-.05,2.378.007,2.277-2.371-.008-.188,0-.376,0-.342" transform="translate(0 -15.757)" fill="#fff"/>
        <path id="Trazado_837560" data-name="Trazado 837560" d="M86.5,13.789a13.647,13.647,0,0,1-24.323,8.474,1.83,1.83,0,0,0-2.145-.758,9.561,9.561,0,0,1-8.027-1.794,2.406,2.406,0,0,0-2.312-.5,7.234,7.234,0,0,1-6.213-1.069,1.937,1.937,0,0,0-2.2-.246,4.471,4.471,0,0,1-1.773.407,1.158,1.158,0,0,1-1.3-1.052A1.067,1.067,0,0,1,39.119,16a5.58,5.58,0,0,0,2.5-1.242,1.343,1.343,0,0,1,2,.284,5.44,5.44,0,0,0,6.686,1.4,1.892,1.892,0,0,1,2.267.587,7.612,7.612,0,0,0,8.254,1.731,1.821,1.821,0,0,1,2.478.89A11.051,11.051,0,0,0,71.082,24.8a11.232,11.232,0,0,0,8.39-20.168A11.017,11.017,0,0,0,65.923,4.9a2.426,2.426,0,0,1-3.456.123,7.546,7.546,0,0,0-9.856.823,2.058,2.058,0,0,1-2.514.512,5.393,5.393,0,0,0-7.305,2.894c-.578,1.264-1.163,1.891-2.688,1.33-1.566-.576-2.931.3-3.434,2.044-.318,1.1-.8,1.651-2.018,1.3-.775-.224-1.249.178-1.468.937s-.664,1.352-1.526,1.073c-.978-.317-1-1.161-.767-2A3.255,3.255,0,0,1,33.4,11.5a2.241,2.241,0,0,0,1.543-1.059A4.8,4.8,0,0,1,39.444,8a1.78,1.78,0,0,0,1.718-.945A7.884,7.884,0,0,1,49.942,3.7a1.865,1.865,0,0,0,1.7-.307C55.356.685,59.271.335,63.311,2.617a1.431,1.431,0,0,0,1.762-.189A13.679,13.679,0,0,1,86.3,11.114a14.192,14.192,0,0,1,.2,2.676" transform="translate(-13.817 0)" fill="#fff"/>
        <path id="Trazado_837561" data-name="Trazado 837561" d="M90.818,109.7c0,.33.025.663,0,.991-.064.691-.4,1.18-1.146,1.186a1.163,1.163,0,0,1-1.21-1.148,12.688,12.688,0,0,1-.043-1.837c.019-.835.3-1.57,1.265-1.543.873.024,1.138.716,1.151,1.5,0,.283,0,.566,0,.85h-.014" transform="translate(-39.7 -48.209)" fill="#fff"/>
        <path id="Trazado_837562" data-name="Trazado 837562" d="M99.069,109.631c0,.236,0,.472,0,.708,0,.772-.19,1.486-1.1,1.528-.962.044-1.28-.651-1.32-1.494-.024-.518-.023-1.038,0-1.556.034-.78.322-1.457,1.2-1.471s1.185.638,1.213,1.436c.01.283,0,.566,0,.849Z" transform="translate(-43.397 -48.208)" fill="#fff"/>
        <path id="Trazado_837563" data-name="Trazado 837563" d="M107.292,109.653c-.023.454-.012.835-.068,1.206a1.14,1.14,0,0,1-2.22.212,5.408,5.408,0,0,1-.014-2.93,1.058,1.058,0,0,1,1.177-.822,1.116,1.116,0,0,1,1.041,1,13.02,13.02,0,0,1,.084,1.334" transform="translate(-47.062 -48.193)" fill="#fff"/>
        <path id="Trazado_837564" data-name="Trazado 837564" d="M49.671,109.595a9.468,9.468,0,0,1-.061,1.128,1.181,1.181,0,0,1-1.208,1.149c-.747-.007-1.089-.517-1.144-1.193a17.15,17.15,0,0,1-.019-1.977c.026-.739.355-1.336,1.147-1.359.879-.025,1.2.615,1.256,1.4.02.281,0,.565,0,.848h.027" transform="translate(-21.206 -48.206)" fill="#fff"/>
        <path id="Trazado_837565" data-name="Trazado 837565" d="M82.593,109.758c-.083.731.283,2.065-1.18,2.077-1.427.012-1.209-1.276-1.249-2.244-.01-.235,0-.472.007-.707.034-.835.307-1.565,1.269-1.535.872.026,1.137.716,1.153,1.5,0,.236,0,.471,0,.908" transform="translate(-35.998 -48.209)" fill="#fff"/>
        <path id="Trazado_837566" data-name="Trazado 837566" d="M55.414,109.551a10.076,10.076,0,0,1,.106-1.262,1.113,1.113,0,0,1,1.069-.964,1.084,1.084,0,0,1,1.193.977,12.293,12.293,0,0,1,.074,2.109c-.019.781-.321,1.441-1.209,1.437s-1.162-.666-1.2-1.448c-.013-.282,0-.564,0-.847l-.033,0" transform="translate(-24.886 -48.198)" fill="#fff"/>
        <path id="Trazado_837567" data-name="Trazado 837567" d="M63.668,109.442a8.118,8.118,0,0,1,.058-.985c.118-.674.5-1.157,1.223-1.123a1.169,1.169,0,0,1,1.133,1.221,16.051,16.051,0,0,1,.012,1.974c-.037.733-.366,1.311-1.172,1.326s-1.145-.55-1.212-1.284c-.034-.373-.006-.752-.006-1.128h-.035" transform="translate(-28.593 -48.202)" fill="#fff"/>
        <path id="Trazado_837568" data-name="Trazado 837568" d="M74.364,109.6c0,.141,0,.283,0,.424-.01.891-.086,1.851-1.247,1.82s-1.182-1.008-1.189-1.885c0-.424-.012-.848.018-1.27.052-.731.371-1.33,1.165-1.345.877-.017,1.2.616,1.24,1.41.015.282,0,.565,0,.847h.01" transform="translate(-32.301 -48.206)" fill="#fff"/>
      </g>
    </g>
  </g>
</svg>
