<svg xmlns="http://www.w3.org/2000/svg" xmlns:xlink="http://www.w3.org/1999/xlink" width="125.072" height="125.072" viewBox="0 0 125.072 125.072">
  <defs>
    <clipPath id="clip-path">
      <rect id="Rectángulo_380650" data-name="Rectángulo 380650" width="82.42" height="82.405" fill="none" stroke="#fff" stroke-width="1"/>
    </clipPath>
  </defs>
  <g id="Grupo_1082940" data-name="Grupo 1082940" transform="translate(-391 -16030.305)">
    <g id="Grupo_1013381" data-name="Grupo 1013381" transform="translate(5 13884.305)">
      <path id="Trazado_608385" data-name="Trazado 608385" d="M62.5,0A62.5,62.5,0,1,1,0,62.5,62.5,62.5,0,0,1,62.5,0Z" transform="translate(386 2146)" fill="#304c8e"/>
      <g id="Group_43_" data-name="Group (43)" transform="translate(479 2239)">
        <path id="Trazado_598926" data-name="Trazado 598926" d="M36.549,16.055,16.055,36.549a15.864,15.864,0,0,0,.655,1.582l21.422-21.42a15.863,15.863,0,0,0-1.582-.655Z" transform="translate(-15.17 -15.17)" fill="#4ca220"/>
        <path id="Trazado_598927" data-name="Trazado 598927" d="M18.367.8.8,18.367a16.022,16.022,0,0,0,.26,1.7L20.065,1.058A16.022,16.022,0,0,0,18.367.8Z" transform="translate(-0.754 -0.754)" fill="#4ca220"/>
        <path id="Trazado_598928" data-name="Trazado 598928" d="M299.7,283.668c0-.137-.008-.274-.01-.41l-16.454,16.453c.137,0,.273.01.41.01a16.091,16.091,0,0,0,1.678-.088l14.289-14.289a16.09,16.09,0,0,0,.088-1.678Z" transform="translate(-267.627 -267.648)" fill="#4ca220"/>
        <path id="Trazado_598929" data-name="Trazado 598929" d="M68.634,46.122q-.611-.481-1.267-.9L45.2,67.389q.42.656.9,1.267Z" transform="translate(-42.708 -42.73)" fill="#4ca220"/>
        <path id="Trazado_598930" data-name="Trazado 598930" d="M0,15.009,15.009,0c-.434.026-.863.07-1.287.131L.131,13.722C.07,14.145.026,14.575,0,15.009Z" fill="#4ca220"/>
        <path id="Trazado_598931" data-name="Trazado 598931" d="M106.76,84.058l-22.7,22.7a16.114,16.114,0,0,0,1.365,1.222l22.559-22.559A16.123,16.123,0,0,0,106.76,84.058Z" transform="translate(-79.426 -79.426)" fill="#4ca220"/>
        <path id="Trazado_598932" data-name="Trazado 598932" d="M159.927,138.548a16.093,16.093,0,0,0-.877-1.6l-22.108,22.108a15.959,15.959,0,0,0,1.6.877Z" transform="translate(-129.396 -129.396)" fill="#4ca220"/>
        <path id="Trazado_598933" data-name="Trazado 598933" d="M28.816,19.794a16.1,16.1,0,0,0-9.022,9.022Z" transform="translate(-18.704 -18.704)" fill="#4ca220"/>
        <path id="Trazado_598934" data-name="Trazado 598934" d="M382.436,392.617a16.085,16.085,0,0,0,10.18-10.18Z" transform="translate(-361.361 -361.361)" fill="#4ca220"/>
        <path id="Trazado_598935" data-name="Trazado 598935" d="M220.714,200.477l-20.237,20.237a15.962,15.962,0,0,0,2.154.537l18.619-18.619A16.154,16.154,0,0,0,220.714,200.477Z" transform="translate(-189.429 -189.429)" fill="#4ca220"/>
      </g>
    </g>
    <g id="Grupo_1082457" data-name="Grupo 1082457" transform="translate(412.326 16051.639)">
      <g id="Grupo_1082456" data-name="Grupo 1082456" transform="translate(0 0)" clip-path="url(#clip-path)">
        <path id="Trazado_836986" data-name="Trazado 836986" d="M50,66.648a28.1,28.1,0,0,1-10.791-2.033,1.823,1.823,0,0,0-2.362.539C35.625,66.5,34.269,67.713,32.985,69a1.633,1.633,0,0,1-2.527.211c-.91-.817-1.356-.283-1.82.53a53.76,53.76,0,0,1-5.359,7.778c-.239.287-.473.58-.727.854-.636.685-1.337,1.444-2.305.658-1.023-.831-.5-1.693.189-2.483a51.469,51.469,0,0,0,5.082-6.993c1.716-2.806,1.713-2.768-.584-5.018q-2.69-2.635-5.254-5.4c-.644-.7-1.165-.936-2.048-.414A47.044,47.044,0,0,0,6.247,67.491a12.838,12.838,0,0,0-3.4,6.421c-.765,4.4,5.329,10.7,10.87,7.949.764-.379,1.514-.79,2.257-1.212.718-.407,1.443-.59,1.993.181.57.8.266,1.492-.436,2.092a10.3,10.3,0,0,1-12.9.144c-5.195-4.19-6.057-9.242-2.39-14.827,3.248-4.95,7.956-8.294,12.938-11.275,1.082-.647,1.958-1.086.742-2.43-.666-.737-.164-1.517.425-2.128,1.261-1.308,2.5-2.643,3.832-3.874a1.882,1.882,0,0,0,.559-2.362c-4.114-11.812-2.187-22.591,5.693-32.3a15.4,15.4,0,0,1,1.21-1.28c.681-.666,1.461-1,2.25-.241.76.733.351,1.462-.208,2.117-.66.771-1.371,1.5-1.99,2.3-6.9,8.955-8.217,18.813-3.924,29.137,4.155,9.992,11.749,16.04,22.609,17.734a38.512,38.512,0,0,0,5.914.251c.975,0,1.963.122,2.01,1.311s-.915,1.428-1.9,1.444c-.8.014-1.6,0-2.4,0m-18.344-.331a18.979,18.979,0,0,0,2.434-2.194c1.043-.839,1.134-1.357-.182-2.13A30.008,30.008,0,0,1,24.3,52.95c-2.077-3.027-2.047-3.005-4.544-.151A1.4,1.4,0,0,0,19.7,54.98,89.074,89.074,0,0,0,30.475,65.706a1.948,1.948,0,0,0,1.178.611" transform="translate(0 -2.861)" fill="#fff" stroke="#fff" stroke-width="1"/>
        <path id="Trazado_836987" data-name="Trazado 836987" d="M85.014,33.412C85.36,49.237,71.8,60.718,57.49,60.545A27.108,27.108,0,1,1,58.533,6.338c14.378.155,27.09,13.139,26.481,27.074m-2.773.033a24.277,24.277,0,0,0-48.554.036,24.277,24.277,0,0,0,48.554-.036" transform="translate(-7.421 -1.522)" fill="#fff" stroke="#fff" stroke-width="1"/>
        <path id="Trazado_836988" data-name="Trazado 836988" d="M92.494,31.435c-.012,14.449-8.8,26.65-21.961,30.872-.3.1-.614.18-.92.275-.889.277-1.646.1-1.944-.837s.253-1.532,1.128-1.8a30.028,30.028,0,0,0,6.745-2.913,29.62,29.62,0,0,0,13.774-30.63A29.235,29.235,0,0,0,65.948,3.277a28.854,28.854,0,0,0-20.62,3.867c-.32.193-.627.408-.952.592-.775.44-1.553.568-2.1-.3-.563-.886-.054-1.528.66-2.021A30.337,30.337,0,0,1,53.439.828a31.981,31.981,0,0,1,38.532,24.8,24.054,24.054,0,0,1,.524,5.81" transform="translate(-10.094 0)" fill="#fff" stroke="#fff" stroke-width="1"/>
        <path id="Trazado_836989" data-name="Trazado 836989" d="M60.405,51.544A20.958,20.958,0,0,1,41.57,39.07a3.3,3.3,0,0,1-.04-2.76,20.549,20.549,0,0,1,37.922.133,2.731,2.731,0,0,1,.038,2.313,23.534,23.534,0,0,1-5.737,7.83c-.7.631-1.53,1.189-2.379.289-.868-.921-.225-1.659.485-2.31a21.927,21.927,0,0,0,4.442-5.64,2.407,2.407,0,0,0-.006-2.566c-3.552-6.231-8.685-9.928-16.065-9.831-7.242.1-12.2,3.893-15.679,9.978a2.31,2.31,0,0,0,.065,2.415,17.716,17.716,0,0,0,21.427,9c.255-.079.511-.157.764-.241a1.335,1.335,0,0,1,1.856.754c.359.877-.148,1.467-.9,1.774a17.686,17.686,0,0,1-7.353,1.333" transform="translate(-9.906 -5.704)" fill="#fff" stroke="#fff" stroke-width="1"/>
        <path id="Trazado_836990" data-name="Trazado 836990" d="M72.042,39.62a8.055,8.055,0,0,1-8.322,7.948A8.091,8.091,0,0,1,64,31.39a8.052,8.052,0,0,1,8.041,8.23m-2.751-.126a5.476,5.476,0,0,0-5.3-5.338A5.323,5.323,0,0,0,63.966,44.8a5.476,5.476,0,0,0,5.324-5.307" transform="translate(-13.419 -7.539)" fill="#fff" stroke="#fff" stroke-width="1"/>
      </g>
    </g>
  </g>
</svg>
