<svg xmlns="http://www.w3.org/2000/svg" xmlns:xlink="http://www.w3.org/1999/xlink" width="125.072" height="125.072" viewBox="0 0 125.072 125.072">
  <defs>
    <clipPath id="clip-path">
      <rect id="Rectángulo_380736" data-name="Rectángulo 380736" width="72.971" height="84.13" fill="none"/>
    </clipPath>
  </defs>
  <g id="Grupo_1082934" data-name="Grupo 1082934" transform="translate(-1089 -4127.9)">
    <g id="Grupo_1082563" data-name="Grupo 1082563" transform="translate(0 1981.9)">
      <path id="Trazado_608387" data-name="Trazado 608387" d="M62.5,0A62.5,62.5,0,1,1,0,62.5,62.5,62.5,0,0,1,62.5,0Z" transform="translate(1089 2146)" fill="#304c8e"/>
      <g id="Group_43_" data-name="Group (43)" transform="translate(1182 2239)">
        <path id="Trazado_598926" data-name="Trazado 598926" d="M36.549,16.055,16.055,36.549a15.864,15.864,0,0,0,.655,1.582l21.422-21.42a15.863,15.863,0,0,0-1.582-.655Z" transform="translate(-15.17 -15.17)" fill="#4ca220"/>
        <path id="Trazado_598927" data-name="Trazado 598927" d="M18.367.8.8,18.367a16.022,16.022,0,0,0,.26,1.7L20.065,1.058A16.022,16.022,0,0,0,18.367.8Z" transform="translate(-0.754 -0.754)" fill="#4ca220"/>
        <path id="Trazado_598928" data-name="Trazado 598928" d="M299.7,283.668c0-.137-.008-.274-.01-.41l-16.454,16.453c.137,0,.273.01.41.01a16.091,16.091,0,0,0,1.678-.088l14.289-14.289a16.09,16.09,0,0,0,.088-1.678Z" transform="translate(-267.627 -267.648)" fill="#4ca220"/>
        <path id="Trazado_598929" data-name="Trazado 598929" d="M68.634,46.122q-.611-.481-1.267-.9L45.2,67.389q.42.656.9,1.267Z" transform="translate(-42.708 -42.73)" fill="#4ca220"/>
        <path id="Trazado_598930" data-name="Trazado 598930" d="M0,15.009,15.009,0c-.434.026-.863.07-1.287.131L.131,13.722C.07,14.145.026,14.575,0,15.009Z" fill="#4ca220"/>
        <path id="Trazado_598931" data-name="Trazado 598931" d="M106.76,84.058l-22.7,22.7a16.114,16.114,0,0,0,1.365,1.222l22.559-22.559A16.123,16.123,0,0,0,106.76,84.058Z" transform="translate(-79.426 -79.426)" fill="#4ca220"/>
        <path id="Trazado_598932" data-name="Trazado 598932" d="M159.927,138.548a16.093,16.093,0,0,0-.877-1.6l-22.108,22.108a15.959,15.959,0,0,0,1.6.877Z" transform="translate(-129.396 -129.396)" fill="#4ca220"/>
        <path id="Trazado_598933" data-name="Trazado 598933" d="M28.816,19.794a16.1,16.1,0,0,0-9.022,9.022Z" transform="translate(-18.704 -18.704)" fill="#4ca220"/>
        <path id="Trazado_598934" data-name="Trazado 598934" d="M382.436,392.617a16.085,16.085,0,0,0,10.18-10.18Z" transform="translate(-361.361 -361.361)" fill="#4ca220"/>
        <path id="Trazado_598935" data-name="Trazado 598935" d="M220.714,200.477l-20.237,20.237a15.962,15.962,0,0,0,2.154.537l18.619-18.619A16.154,16.154,0,0,0,220.714,200.477Z" transform="translate(-189.429 -189.429)" fill="#4ca220"/>
      </g>
    </g>
    <g id="Grupo_1082573" data-name="Grupo 1082573" transform="translate(1115.051 4143.372)">
      <g id="Grupo_1082572" data-name="Grupo 1082572" clip-path="url(#clip-path)">
        <path id="Trazado_837569" data-name="Trazado 837569" d="M72.962,46.3c0,5.458.014,10.916,0,16.374C72.944,67.985,69.35,71.6,64,71.621c-9.551.031-19.1.043-28.656-.021a6.62,6.62,0,0,0-4.484,1.487c-4.221,3.371-8.55,6.609-12.815,9.924-1.2.93-2.44,1.528-3.911.785-1.415-.715-1.65-2.055-1.64-3.487.013-2.02,0-4.04,0-6.059,0-2.615,0-2.613-2.547-2.62A14.006,14.006,0,0,1,6.7,71.377,8.336,8.336,0,0,1,.024,63.159q-.045-16.948,0-33.9a8.3,8.3,0,0,1,8.225-8.272c2.947-.041,5.9-.057,8.842.011a2.443,2.443,0,0,0,2.384-1.318c3.2-5.142,6.461-10.248,9.7-15.37C30.93,1.531,33.316-.081,36.735,0A8.243,8.243,0,0,1,43.8,4.316c3.207,5.075,6.441,10.133,9.6,15.235a2.668,2.668,0,0,0,2.643,1.455c2.835-.087,5.676-.049,8.514-.019a8.318,8.318,0,0,1,8.391,8.443c.034,5.622.008,11.244.009,16.866M15.641,80.864c.81-.607,1.327-.984,1.832-1.375,4.274-3.306,8.557-6.6,12.812-9.933a4.8,4.8,0,0,1,3.162-1.087c4.039.039,8.079.014,12.119.014,6.059,0,12.119.021,18.179-.011,3.58-.018,6.029-2.111,6.043-5.3q.073-16.868,0-33.736a5.168,5.168,0,0,0-5.3-5.3c-2.128-.044-4.258-.028-6.387-.009-1.58.014-1.66.173-.8,1.537q2.919,4.645,5.862,9.273a8.21,8.21,0,0,1-7.072,12.842q-19.57-.052-39.141,0a7.975,7.975,0,0,1-7.563-4.254A7.9,7.9,0,0,1,9.776,35c2.011-3.184,4.009-6.377,6.045-9.545.621-.967.453-1.351-.719-1.336-2.183.029-4.368-.021-6.55.018a5.2,5.2,0,0,0-5.373,5.4q-.054,16.787,0,33.573a5.188,5.188,0,0,0,4.054,5.114,17.222,17.222,0,0,0,4.559.259c2.933.042,3.839.906,3.848,3.789.008,2.725,0,5.451,0,8.6M36.466,44.617c6.436,0,12.872-.027,19.308.015,2.133.014,3.9-.592,4.949-2.53a5.343,5.343,0,0,0-.384-5.728Q50.795,21.312,41.257,6.245c-2.672-4.2-6.857-4.218-9.517-.035Q22.173,21.257,12.656,36.338a5.377,5.377,0,0,0-.425,5.727c1.032,1.942,2.789,2.58,4.928,2.566,6.435-.041,12.871-.014,19.308-.014" transform="translate(0 0)" fill="#fff"/>
        <path id="Trazado_837570" data-name="Trazado 837570" d="M52.339,93.553q-7.531,0-15.063-.006a7.66,7.66,0,0,1-1.782-.155,1.443,1.443,0,0,1-1.167-1.567A1.35,1.35,0,0,1,35.5,90.449a11.468,11.468,0,0,1,2.11-.207q15.064-.02,30.127,0c1.267,0,2.811-.231,3.117,1.589.2,1.169-.864,1.715-3.123,1.717q-7.7.006-15.391,0" transform="translate(-14.707 -38.66)" fill="#fff"/>
        <path id="Trazado_837571" data-name="Trazado 837571" d="M32.755,102.645q6.386,0,12.772,0a6.939,6.939,0,0,1,1.464.1,1.5,1.5,0,0,1,.026,2.934,5.863,5.863,0,0,1-1.461.113q-12.854.009-25.708,0a9.354,9.354,0,0,1-.981-.029c-.924-.1-1.575-.542-1.583-1.536s.62-1.464,1.553-1.553c.433-.042.873-.031,1.309-.031q6.3,0,12.609,0" transform="translate(-7.406 -43.98)" fill="#fff"/>
        <path id="Trazado_837572" data-name="Trazado 837572" d="M20.78,93.6a19.793,19.793,0,0,1-2.409-.265,1.389,1.389,0,0,1-1.107-1.582A1.373,1.373,0,0,1,18.458,90.4a13.415,13.415,0,0,1,4.528-.067,1.471,1.471,0,0,1,1.419,1.511A1.537,1.537,0,0,1,22.9,93.457a16.639,16.639,0,0,1-2.11.018c0,.041,0,.081-.006.121" transform="translate(-7.395 -38.637)" fill="#fff"/>
        <path id="Trazado_837573" data-name="Trazado 837573" d="M79.4,105.769c-.652,0-1.308.044-1.956-.009a1.511,1.511,0,0,1-1.584-1.534,1.471,1.471,0,0,1,1.566-1.541c1.356-.055,2.718-.054,4.075,0a1.478,1.478,0,0,1,1.583,1.525,1.5,1.5,0,0,1-1.565,1.549c-.7.058-1.412.011-2.119.013" transform="translate(-32.504 -43.979)" fill="#fff"/>
        <path id="Trazado_837574" data-name="Trazado 837574" d="M104.974,90.29c1.058.116,2.2.213,2.169,1.656-.031,1.392-1.109,1.6-2.211,1.611-1.073.008-2.071-.325-2.114-1.557-.048-1.37,1.05-1.612,2.156-1.71" transform="translate(-44.053 -38.686)" fill="#fff"/>
        <path id="Trazado_837575" data-name="Trazado 837575" d="M65.193,26.28c-.226,2.754-.417,5.851-.753,8.931A4.625,4.625,0,0,1,59.793,39.4a4.531,4.531,0,0,1-4.573-4.245c-.314-3.247-.592-6.5-.717-9.763-.134-3.5,2.122-5.863,5.362-5.85s5.354,2.368,5.328,5.911c0,.163,0,.326,0,.829m-3.15-.884c.038-1.567-.786-2.707-2.254-2.676-1.425.03-2.252,1.113-2.136,3.029.177,2.923.432,5.842.693,8.76.078.863.458,1.659,1.454,1.672,1.092.014,1.457-.833,1.537-1.76.246-2.865.452-5.732.706-9.024" transform="translate(-23.35 -8.372)" fill="#fff"/>
        <path id="Trazado_837576" data-name="Trazado 837576" d="M60.512,67.274a4.288,4.288,0,0,1-4.279-4.385,4.349,4.349,0,1,1,8.7.138,4.292,4.292,0,0,1-4.418,4.247" transform="translate(-24.094 -25.1)" fill="#fff"/>
      </g>
    </g>
  </g>
</svg>
