<svg xmlns="http://www.w3.org/2000/svg" xmlns:xlink="http://www.w3.org/1999/xlink" width="125.072" height="125.072" viewBox="0 0 125.072 125.072">
  <defs>
    <clipPath id="clip-path">
      <rect id="Rectángulo_380919" data-name="Rectángulo 380919" width="70.105" height="70.178" fill="none"/>
    </clipPath>
  </defs>
  <g id="Grupo_1082953" data-name="Grupo 1082953" transform="translate(3968 820.605)">
    <g id="Grupo_1082821" data-name="Grupo 1082821" transform="translate(-4706 -2966.605)">
      <path id="Trazado_608386" data-name="Trazado 608386" d="M62.5,0A62.5,62.5,0,1,1,0,62.5,62.5,62.5,0,0,1,62.5,0Z" transform="translate(738 2146)" fill="#304c8e"/>
      <g id="Group_43_" data-name="Group (43)" transform="translate(831 2239)">
        <path id="Trazado_598926" data-name="Trazado 598926" d="M36.549,16.055,16.055,36.549a15.864,15.864,0,0,0,.655,1.582l21.422-21.42a15.863,15.863,0,0,0-1.582-.655Z" transform="translate(-15.17 -15.17)" fill="#4ca220"/>
        <path id="Trazado_598927" data-name="Trazado 598927" d="M18.367.8.8,18.367a16.022,16.022,0,0,0,.26,1.7L20.065,1.058A16.022,16.022,0,0,0,18.367.8Z" transform="translate(-0.754 -0.754)" fill="#4ca220"/>
        <path id="Trazado_598928" data-name="Trazado 598928" d="M299.7,283.668c0-.137-.008-.274-.01-.41l-16.454,16.453c.137,0,.273.01.41.01a16.091,16.091,0,0,0,1.678-.088l14.289-14.289a16.09,16.09,0,0,0,.088-1.678Z" transform="translate(-267.627 -267.648)" fill="#4ca220"/>
        <path id="Trazado_598929" data-name="Trazado 598929" d="M68.634,46.122q-.611-.481-1.267-.9L45.2,67.389q.42.656.9,1.267Z" transform="translate(-42.708 -42.73)" fill="#4ca220"/>
        <path id="Trazado_598930" data-name="Trazado 598930" d="M0,15.009,15.009,0c-.434.026-.863.07-1.287.131L.131,13.722C.07,14.145.026,14.575,0,15.009Z" fill="#4ca220"/>
        <path id="Trazado_598931" data-name="Trazado 598931" d="M106.76,84.058l-22.7,22.7a16.114,16.114,0,0,0,1.365,1.222l22.559-22.559A16.123,16.123,0,0,0,106.76,84.058Z" transform="translate(-79.426 -79.426)" fill="#4ca220"/>
        <path id="Trazado_598932" data-name="Trazado 598932" d="M159.927,138.548a16.093,16.093,0,0,0-.877-1.6l-22.108,22.108a15.959,15.959,0,0,0,1.6.877Z" transform="translate(-129.396 -129.396)" fill="#4ca220"/>
        <path id="Trazado_598933" data-name="Trazado 598933" d="M28.816,19.794a16.1,16.1,0,0,0-9.022,9.022Z" transform="translate(-18.704 -18.704)" fill="#4ca220"/>
        <path id="Trazado_598934" data-name="Trazado 598934" d="M382.436,392.617a16.085,16.085,0,0,0,10.18-10.18Z" transform="translate(-361.361 -361.361)" fill="#4ca220"/>
        <path id="Trazado_598935" data-name="Trazado 598935" d="M220.714,200.477l-20.237,20.237a15.962,15.962,0,0,0,2.154.537l18.619-18.619A16.154,16.154,0,0,0,220.714,200.477Z" transform="translate(-189.429 -189.429)" fill="#4ca220"/>
      </g>
    </g>
    <g id="Grupo_1082831" data-name="Grupo 1082831" transform="translate(-3945.552 -793.158)">
      <g id="Grupo_1082830" data-name="Grupo 1082830" clip-path="url(#clip-path)">
        <path id="Trazado_837928" data-name="Trazado 837928" d="M70.105,34.028q0,15.205,0,30.41c0,2.762-.606,3.355-3.414,3.355q-20.836,0-41.673-.01a3.044,3.044,0,0,0-2.478.947c-1.78,1.857-6.557,1.918-8.516.229a4.267,4.267,0,0,1-1.562-3.334c-.008-3.754.005-7.509-.012-11.263A2.3,2.3,0,0,1,13.882,52a1.26,1.26,0,0,0,.83-1.423c-.027-1.407-.073-2.82.013-4.222.066-1.071-.411-1.43-1.369-1.725C6.226,42.439,1.767,37.7.327,30.361A18.11,18.11,0,0,1,14.716,9.311c2.457-.463,2.222.139,2.241-2.692.008-1.314-.014-2.628.007-3.942C16.994.839,17.8.02,19.645.011,23.728-.009,27.811,0,31.894,0Q49.351,0,66.809,0c2.674,0,3.295.629,3.3,3.332q0,15.345,0,30.691M27.834,11.473c.117.255.126.313.159.337.224.17.457.328.681.5,6.094,4.623,8.717,10.756,7.307,18.258-1.345,7.157-5.813,11.824-12.758,13.991-1.243.388-1.663.906-1.575,2.14.093,1.307.034,2.626.016,3.938a1.17,1.17,0,0,0,.755,1.324,2.468,2.468,0,0,1,1.512,2.6c-.035,3,.067,6.006-.043,9-.054,1.459.433,1.8,1.835,1.8,13.367-.05,26.735-.029,40.1-.03,1.816,0,1.819,0,1.819-1.889q0-25.046,0-50.093c0-1.874,0-1.878-1.829-1.879H27.834Zm6.009,15.6c-.355-8.949-6.966-15.438-15.687-15.555A15.6,15.6,0,0,0,2.564,27.134c.157,8.993,6.959,15.675,15.723,15.594,9.05-.083,15.307-7.032,15.556-15.655M43.532,4.509h4.646q9.081,0,18.162-.005c1.148,0,1.643-.629,1.254-1.542-.332-.778-1.049-.487-1.606-.487q-22.456-.023-44.913-.012c-.234,0-.47.015-.7,0-.753-.036-.946.375-.959,1.055-.021,1.124.755.986,1.453.986q11.334,0,22.668,0m.141,2.459H38.745q-9.011,0-18.022.005c-1.148,0-1.643.627-1.255,1.541C19.8,9.293,20.517,9,21.074,9q22.457.023,44.913.012c.235,0,.47-.015.7,0,.752.036.947-.374.96-1.054.022-1.124-.753-.987-1.451-.987q-11.264,0-22.527,0M14.913,60.239v4.494c0,.094,0,.188,0,.281.113,1.86,1.016,2.573,3.257,2.574s3.231-.7,3.264-2.55c.059-3.229.008-6.46.029-9.69,0-.784-.32-1.091-1.093-1.076-1.4.028-2.811.053-4.212-.009-1.019-.044-1.3.407-1.265,1.342.05,1.543.013,3.089.015,4.634m2.255-11.807c0,.8.017,1.6,0,2.394-.02.723.309,1,1.021,1s1.038-.264,1.028-.992c-.019-1.5-.025-3,0-4.505.015-.791-.316-1.083-1.1-1.07-.757.012-.976.388-.957,1.062.019.7,0,1.408.005,2.112" transform="translate(0 0)" fill="#fff"/>
        <path id="Trazado_837929" data-name="Trazado 837929" d="M89.7,81.476c3.612,0,7.225.036,10.836-.02,1.163-.018,1.542.378,1.533,1.537q-.066,8.724,0,17.45c.009,1.163-.381,1.538-1.538,1.532q-10.977-.059-21.954,0c-1.161.006-1.542-.378-1.533-1.536q.066-8.725,0-17.45c-.009-1.163.379-1.55,1.537-1.533,3.705.055,7.412.02,11.118.02M89.6,99.5c2.861,0,5.723-.029,8.584.016.989.016,1.441-.233,1.429-1.331-.048-4.314-.04-8.63,0-12.945.008-.966-.308-1.323-1.3-1.318q-8.724.049-17.449,0c-1.069-.007-1.365.389-1.356,1.4q.061,6.4,0,12.805c-.01,1.031.314,1.411,1.369,1.391,2.908-.054,5.816-.018,8.724-.019" transform="translate(-38.705 -40.92)" fill="#fff"/>
        <path id="Trazado_837930" data-name="Trazado 837930" d="M22.851,27.172a13.619,13.619,0,1,1-.173,27.236,13.619,13.619,0,0,1,.173-27.236M33.939,40.8A11.344,11.344,0,0,0,22.807,29.65a11.14,11.14,0,0,0-.017,22.281A11.348,11.348,0,0,0,33.939,40.8" transform="translate(-4.612 -13.65)" fill="#fff"/>
        <path id="Trazado_837931" data-name="Trazado 837931" d="M94.112,102.051c-2.251,0-4.5-.022-6.752.011-.9.013-1.245-.329-1.245-1.238s.355-1.238,1.25-1.234q6.752.036,13.5,0c.9,0,1.245.329,1.245,1.238s-.355,1.247-1.25,1.234c-2.25-.033-4.5-.011-6.752-.011" transform="translate(-43.261 -50.031)" fill="#fff"/>
        <path id="Trazado_837932" data-name="Trazado 837932" d="M104.423,93c-1.218,0-2.437-.023-3.655.007-.934.023-1.057-.525-1.051-1.271.007-.7.152-1.185,1-1.179,2.39.016,4.78.021,7.17,0,.933-.01,1.041.527,1.053,1.271.014.821-.284,1.213-1.142,1.188-1.124-.033-2.249-.008-3.374-.008v0" transform="translate(-50.095 -45.49)" fill="#fff"/>
        <path id="Trazado_837933" data-name="Trazado 837933" d="M104.206,111.106c-1.125,0-2.25-.024-3.374.009-.875.026-1.128-.405-1.121-1.207.006-.763.161-1.262,1.075-1.253q3.515.039,7.03,0c.875-.01,1.128.407,1.121,1.209-.006.763-.161,1.274-1.075,1.251-1.218-.032-2.437-.008-3.656-.007" transform="translate(-50.091 -54.584)" fill="#fff"/>
        <path id="Trazado_837934" data-name="Trazado 837934" d="M88.51,90.539c.327,0,.657.023.983,0,.929-.076,1.365.258,1.349,1.269-.015.943-.423,1.241-1.286,1.193-.607-.033-1.218-.018-1.826,0-.9.026-1.657.03-1.636-1.271.019-1.22.731-1.216,1.573-1.19.28.008.561,0,.843,0" transform="translate(-43.25 -45.477)" fill="#fff"/>
        <path id="Trazado_837935" data-name="Trazado 837935" d="M88.5,111.1c-.422,0-.844-.02-1.264,0-.883.052-1.112-.423-1.109-1.214,0-.77.179-1.278,1.084-1.239.654.028,1.311,0,1.966,0,.853,0,1.682-.122,1.688,1.217,0,1.321-.788,1.262-1.663,1.242-.234-.005-.468,0-.7,0Z" transform="translate(-43.268 -54.581)" fill="#fff"/>
      </g>
    </g>
  </g>
</svg>
