<svg xmlns="http://www.w3.org/2000/svg" xmlns:xlink="http://www.w3.org/1999/xlink" width="125.072" height="125.072" viewBox="0 0 125.072 125.072">
  <defs>
    <clipPath id="clip-path">
      <rect id="Rectángulo_380915" data-name="Rectángulo 380915" width="80.454" height="80.188" fill="none"/>
    </clipPath>
  </defs>
  <g id="Grupo_1082949" data-name="Grupo 1082949" transform="translate(-391 -10844.395)">
    <g id="Grupo_1082815" data-name="Grupo 1082815" transform="translate(5 8698.395)">
      <path id="Trazado_608385" data-name="Trazado 608385" d="M62.5,0A62.5,62.5,0,1,1,0,62.5,62.5,62.5,0,0,1,62.5,0Z" transform="translate(386 2146)" fill="#304c8e"/>
      <g id="Group_43_" data-name="Group (43)" transform="translate(479 2239)">
        <path id="Trazado_598926" data-name="Trazado 598926" d="M36.549,16.055,16.055,36.549a15.864,15.864,0,0,0,.655,1.582l21.422-21.42a15.863,15.863,0,0,0-1.582-.655Z" transform="translate(-15.17 -15.17)" fill="#4ca220"/>
        <path id="Trazado_598927" data-name="Trazado 598927" d="M18.367.8.8,18.367a16.022,16.022,0,0,0,.26,1.7L20.065,1.058A16.022,16.022,0,0,0,18.367.8Z" transform="translate(-0.754 -0.754)" fill="#4ca220"/>
        <path id="Trazado_598928" data-name="Trazado 598928" d="M299.7,283.668c0-.137-.008-.274-.01-.41l-16.454,16.453c.137,0,.273.01.41.01a16.091,16.091,0,0,0,1.678-.088l14.289-14.289a16.09,16.09,0,0,0,.088-1.678Z" transform="translate(-267.627 -267.648)" fill="#4ca220"/>
        <path id="Trazado_598929" data-name="Trazado 598929" d="M68.634,46.122q-.611-.481-1.267-.9L45.2,67.389q.42.656.9,1.267Z" transform="translate(-42.708 -42.73)" fill="#4ca220"/>
        <path id="Trazado_598930" data-name="Trazado 598930" d="M0,15.009,15.009,0c-.434.026-.863.07-1.287.131L.131,13.722C.07,14.145.026,14.575,0,15.009Z" fill="#4ca220"/>
        <path id="Trazado_598931" data-name="Trazado 598931" d="M106.76,84.058l-22.7,22.7a16.114,16.114,0,0,0,1.365,1.222l22.559-22.559A16.123,16.123,0,0,0,106.76,84.058Z" transform="translate(-79.426 -79.426)" fill="#4ca220"/>
        <path id="Trazado_598932" data-name="Trazado 598932" d="M159.927,138.548a16.093,16.093,0,0,0-.877-1.6l-22.108,22.108a15.959,15.959,0,0,0,1.6.877Z" transform="translate(-129.396 -129.396)" fill="#4ca220"/>
        <path id="Trazado_598933" data-name="Trazado 598933" d="M28.816,19.794a16.1,16.1,0,0,0-9.022,9.022Z" transform="translate(-18.704 -18.704)" fill="#4ca220"/>
        <path id="Trazado_598934" data-name="Trazado 598934" d="M382.436,392.617a16.085,16.085,0,0,0,10.18-10.18Z" transform="translate(-361.361 -361.361)" fill="#4ca220"/>
        <path id="Trazado_598935" data-name="Trazado 598935" d="M220.714,200.477l-20.237,20.237a15.962,15.962,0,0,0,2.154.537l18.619-18.619A16.154,16.154,0,0,0,220.714,200.477Z" transform="translate(-189.429 -189.429)" fill="#4ca220"/>
      </g>
    </g>
    <g id="Grupo_1082823" data-name="Grupo 1082823" transform="translate(417.309 10866.837)">
      <g id="Grupo_1082822" data-name="Grupo 1082822" transform="translate(0 0)" clip-path="url(#clip-path)">
        <path id="Trazado_837898" data-name="Trazado 837898" d="M0,40.161Q0,21.751,0,3.342C0,.306.283.026,3.3.026,15.264.023,27.225.044,39.186,0A4.533,4.533,0,0,1,42.8,1.5C47.766,6.753,52.785,11.95,57.8,17.155a3.343,3.343,0,0,1,1.133,2.459c-.033,2.117-.01,4.236-.011,6.354,0,1.1-.32,2.092-1.559,2.166-1.357.08-1.782-.975-1.865-2.11-.087-1.178-.091-2.367-.061-3.548s-.442-1.7-1.655-1.677c-2.117.046-4.236.032-6.354,0-5.208-.074-8.521-3.4-8.553-8.569-.014-2.43-.042-4.86.011-7.289.026-1.179-.368-1.673-1.609-1.669q-16.073.047-32.145,0c-1.222,0-1.671.492-1.653,1.666.034,2.3.006,4.61.006,6.915q0,31.024,0,62.048c0,2.77.005,2.774,2.778,2.774q21.587,0,43.173-.007c3.93,0,6.091-2.308,6.035-6.219-.02-1.379-.41-1.837-1.9-1.6-10.905,1.716-20.387-5.107-22.375-16.013-2-10.966,7.034-21.952,18.13-22.171,7.818-.155,13.852,3.021,17.665,9.765,3.9,6.9,3.349,13.846-.92,20.507-.313.489-.938.93-.475,1.65.446.694,1.047.436,1.666.292a3.889,3.889,0,0,1,3.889,1.228c2.616,2.67,5.3,5.27,7.916,7.942,2,2.05,1.842,3.8-.459,6.108-2.249,2.252-4.028,2.374-6.119.327-2.626-2.571-5.19-5.206-7.81-7.784a3.84,3.84,0,0,1-1.282-4.195,1.179,1.179,0,0,0-.356-1.5c-.558-.384-.9.153-1.332.348-2.163.984-2.928,2.526-2.842,5.005.2,5.87-3.472,9.727-9.363,9.768-15.574.109-31.149.05-46.723.027-2.251,0-2.768-.618-2.77-2.987q-.011-18.5,0-37M50.27,65.537A15.636,15.636,0,0,0,66.181,49.745,15.843,15.843,0,0,0,50.257,33.891a15.823,15.823,0,0,0,.013,31.646m2.836-48.288L42.5,6.171c0,2.943-.149,5.344.048,7.716a3.857,3.857,0,0,0,3.715,3.337c2.093.112,4.2.026,6.844.026M76.751,74.643a4.228,4.228,0,0,0-.407-.555c-2.46-2.468-4.931-4.926-7.388-7.4-.655-.659-1.087-.218-1.556.241-.524.512-.684,1.011-.095,1.594q3.646,3.614,7.279,7.242c.326.324.7.568,1.149.22a2.107,2.107,0,0,0,1.018-1.347" transform="translate(0 0)" fill="#fff"/>
        <path id="Trazado_837899" data-name="Trazado 837899" d="M11.3,31.946c0-3.3-.014-6.6,0-9.9.013-2.238.494-2.716,2.77-2.736,2.739-.024,5.478.014,8.217-.008,1.608-.012,2.5.769,2.511,2.346.028,6.909.012,13.817-.011,20.727a2.193,2.193,0,0,1-2.471,2.4c-2.8.015-5.6.064-8.4-.018-2.147-.064-2.6-.606-2.615-2.729-.017-3.362,0-6.723,0-10.085m10.113.292c0-1.494.03-2.989-.005-4.483-.134-5.781,1.095-4.8-5.07-4.944-1.42-.033-1.833.547-1.791,1.888.127,3.98.157,7.964.241,11.946.116,5.476-.882,4.573,4.986,4.691,1.2.024,1.681-.408,1.653-1.627-.055-2.49-.017-4.981-.014-7.471" transform="translate(-2.725 -4.656)" fill="#fff"/>
        <path id="Trazado_837900" data-name="Trazado 837900" d="M23.393,81.093c-3.172,0-6.345.022-9.516-.008-2.065-.019-2.539-.5-2.566-2.535-.027-2.052.02-4.105-.011-6.157a2,2,0,0,1,2.24-2.33q7.837-.015,15.674,0c1.162,0,2.185.385,2.176,1.754s-1.058,1.725-2.205,1.732c-4.229.026-8.459.059-12.688,0-1.43-.021-1.993.416-1.971,1.915.021,1.424.278,2.182,1.942,2.156,5.037-.079,10.076-.03,15.114-.024a13.71,13.71,0,0,1,1.862.061c1.09.152,1.967.683,1.858,1.909-.1,1.12-.983,1.51-2.019,1.513-3.3.01-6.593,0-9.89,0v.009" transform="translate(-2.725 -16.895)" fill="#fff"/>
        <path id="Trazado_837901" data-name="Trazado 837901" d="M19.046,62.8c-1.861,0-3.721.012-5.581,0-1.1-.009-2.012-.385-2.065-1.644-.055-1.289.9-1.755,1.956-1.77q5.764-.082,11.531.005c1.085.017,1.971.61,1.889,1.848-.074,1.125-.921,1.547-1.963,1.556-1.922.017-3.845.005-5.767.007" transform="translate(-2.749 -14.313)" fill="#fff"/>
        <path id="Trazado_837902" data-name="Trazado 837902" d="M39.2,33.19c-1.179,0-2.359.03-3.537-.009-1.114-.037-2-.525-2.009-1.741a1.687,1.687,0,0,1,1.863-1.691q3.813-.1,7.631-.007a1.636,1.636,0,0,1,1.8,1.727c-.016,1.151-.805,1.645-1.838,1.694-1.3.062-2.606.015-3.909.015v.011" transform="translate(-8.115 -7.163)" fill="#fff"/>
        <path id="Trazado_837903" data-name="Trazado 837903" d="M16.889,92.36c-1.178,0-2.355.019-3.532,0-1.034-.02-1.865-.416-1.955-1.559-.1-1.282.8-1.805,1.872-1.836q3.805-.107,7.616.011a1.657,1.657,0,0,1,1.789,1.749c-.032,1.13-.838,1.6-1.886,1.63-1.3.033-2.6.008-3.9.009" transform="translate(-2.748 -21.443)" fill="#fff"/>
        <path id="Trazado_837904" data-name="Trazado 837904" d="M37.149,43.57c-.187,0-.373,0-.559,0-1.326-.017-2.913.076-2.877-1.773.031-1.643,1.509-1.726,2.8-1.736a19.927,19.927,0,0,1,2.419.065c1.027.116,1.821.656,1.793,1.774s-.854,1.582-1.9,1.644c-.557.033-1.118.006-1.677.006v.019" transform="translate(-8.13 -9.66)" fill="#fff"/>
        <path id="Trazado_837905" data-name="Trazado 837905" d="M37.2,22.865a18.325,18.325,0,0,1-2.226-.231,1.575,1.575,0,0,1-1.342-1.574,1.545,1.545,0,0,1,1.287-1.616,11.729,11.729,0,0,1,4.437,0,1.622,1.622,0,0,1,.047,3.186,17.177,17.177,0,0,1-2.2.237" transform="translate(-8.111 -4.638)" fill="#fff"/>
        <path id="Trazado_837906" data-name="Trazado 837906" d="M62.589,72.36c0,1.307.031,2.615-.012,3.92-.036,1.093-.442,2.015-1.707,2.036s-1.716-.884-1.759-1.981a41.578,41.578,0,0,1-.01-4.478c.11-1.59-.4-2.286-2.09-2.169-1.8.124-3.607.029-5.412.017-1.109-.008-2.061-.383-2.1-1.626s.93-1.751,2-1.774c2.984-.062,5.972-.069,8.956,0a2.054,2.054,0,0,1,2.132,2.32c.005,1.244,0,2.489,0,3.733" transform="translate(-11.939 -15.979)" fill="#fff"/>
        <path id="Trazado_837907" data-name="Trazado 837907" d="M81.346,62.823a10.175,10.175,0,0,1-1.806,5.411c-.616.946-1.455,1.415-2.528.732-1-.635-.909-1.531-.406-2.453,2.22-4.07,1.735-7.754-1.573-11.037-.788-.782-1.206-1.687-.357-2.623s1.816-.591,2.641.129c2.746,2.4,4.045,5.442,4.028,9.841" transform="translate(-17.897 -12.608)" fill="#fff"/>
        <path id="Trazado_837908" data-name="Trazado 837908" d="M56.781,58.413a17.456,17.456,0,0,1-2.033-.016,1.479,1.479,0,0,1-1.4-1.473,1.46,1.46,0,0,1,1.421-1.637,37.673,37.673,0,0,1,3.884-.046,1.514,1.514,0,0,1,1.658,1.607,1.537,1.537,0,0,1-1.674,1.6c-.615.03-1.234.005-1.852.005v-.039" transform="translate(-12.864 -13.316)" fill="#fff"/>
      </g>
    </g>
  </g>
</svg>
