<svg xmlns="http://www.w3.org/2000/svg" xmlns:xlink="http://www.w3.org/1999/xlink" width="125.072" height="125.072" viewBox="0 0 125.072 125.072">
  <defs>
    <clipPath id="clip-path">
      <rect id="Rectángulo_380917" data-name="Rectángulo 380917" width="74.798" height="74.854" fill="none"/>
    </clipPath>
  </defs>
  <g id="Grupo_1082951" data-name="Grupo 1082951" transform="translate(-1094 -10844.395)">
    <g id="Grupo_1082819" data-name="Grupo 1082819" transform="translate(5 8698.395)">
      <path id="Trazado_608387" data-name="Trazado 608387" d="M62.5,0A62.5,62.5,0,1,1,0,62.5,62.5,62.5,0,0,1,62.5,0Z" transform="translate(1089 2146)" fill="#304c8e"/>
      <g id="Group_43_" data-name="Group (43)" transform="translate(1182 2239)">
        <path id="Trazado_598926" data-name="Trazado 598926" d="M36.549,16.055,16.055,36.549a15.864,15.864,0,0,0,.655,1.582l21.422-21.42a15.863,15.863,0,0,0-1.582-.655Z" transform="translate(-15.17 -15.17)" fill="#4ca220"/>
        <path id="Trazado_598927" data-name="Trazado 598927" d="M18.367.8.8,18.367a16.022,16.022,0,0,0,.26,1.7L20.065,1.058A16.022,16.022,0,0,0,18.367.8Z" transform="translate(-0.754 -0.754)" fill="#4ca220"/>
        <path id="Trazado_598928" data-name="Trazado 598928" d="M299.7,283.668c0-.137-.008-.274-.01-.41l-16.454,16.453c.137,0,.273.01.41.01a16.091,16.091,0,0,0,1.678-.088l14.289-14.289a16.09,16.09,0,0,0,.088-1.678Z" transform="translate(-267.627 -267.648)" fill="#4ca220"/>
        <path id="Trazado_598929" data-name="Trazado 598929" d="M68.634,46.122q-.611-.481-1.267-.9L45.2,67.389q.42.656.9,1.267Z" transform="translate(-42.708 -42.73)" fill="#4ca220"/>
        <path id="Trazado_598930" data-name="Trazado 598930" d="M0,15.009,15.009,0c-.434.026-.863.07-1.287.131L.131,13.722C.07,14.145.026,14.575,0,15.009Z" fill="#4ca220"/>
        <path id="Trazado_598931" data-name="Trazado 598931" d="M106.76,84.058l-22.7,22.7a16.114,16.114,0,0,0,1.365,1.222l22.559-22.559A16.123,16.123,0,0,0,106.76,84.058Z" transform="translate(-79.426 -79.426)" fill="#4ca220"/>
        <path id="Trazado_598932" data-name="Trazado 598932" d="M159.927,138.548a16.093,16.093,0,0,0-.877-1.6l-22.108,22.108a15.959,15.959,0,0,0,1.6.877Z" transform="translate(-129.396 -129.396)" fill="#4ca220"/>
        <path id="Trazado_598933" data-name="Trazado 598933" d="M28.816,19.794a16.1,16.1,0,0,0-9.022,9.022Z" transform="translate(-18.704 -18.704)" fill="#4ca220"/>
        <path id="Trazado_598934" data-name="Trazado 598934" d="M382.436,392.617a16.085,16.085,0,0,0,10.18-10.18Z" transform="translate(-361.361 -361.361)" fill="#4ca220"/>
        <path id="Trazado_598935" data-name="Trazado 598935" d="M220.714,200.477l-20.237,20.237a15.962,15.962,0,0,0,2.154.537l18.619-18.619A16.154,16.154,0,0,0,220.714,200.477Z" transform="translate(-189.429 -189.429)" fill="#4ca220"/>
      </g>
    </g>
    <g id="Grupo_1082827" data-name="Grupo 1082827" transform="translate(1119.101 10869.504)">
      <g id="Grupo_1082826" data-name="Grupo 1082826" clip-path="url(#clip-path)">
        <path id="Trazado_837916" data-name="Trazado 837916" d="M27.58,75.85c0,3.415-.009,6.829,0,10.244a5.325,5.325,0,0,1-3.112,5.135,5.327,5.327,0,0,1-5.984-.54c-.792-.625-1.223-.519-1.961.043a5.353,5.353,0,0,1-5.857.539,5.289,5.289,0,0,1-3.189-5.085q0-10.244.006-20.488c0-1.039.1-1.674-1.449-1.33a4.865,4.865,0,0,1-6-4.971c-.039-4.863-.05-9.727,0-14.59a9.4,9.4,0,0,1,9.036-9.1q8.458-.092,16.918,0a9.391,9.391,0,0,1,9.026,9.106c.056,4.811.034,9.623.01,14.435a4.814,4.814,0,0,1-5.856,4.927c-1.413-.265-1.645.151-1.616,1.433.076,3.413.026,6.829.025,10.244m-2.711-7.386q0-8.151,0-16.3c0-.466-.008-.933.022-1.4.055-.841.474-1.379,1.361-1.362s1.271.587,1.309,1.42c.023.516.017,1.035.019,1.552.007,2.173-.045,4.349.038,6.519a2.455,2.455,0,0,0,2.4,2.555c1.4-.01,2.277-.919,2.289-2.568.033-4.45.1-8.9-.018-13.35-.112-4.211-2.889-6.865-7.091-7.14-1.5-.1-2.761-.055-2.974,1.884a2.664,2.664,0,0,1-.776,1.318,2.038,2.038,0,0,0-.473,1.984c.515,2.584.9,5.195,1.432,7.777a5.43,5.43,0,0,1-.453,3.613q-1.435,2.927-2.895,5.842c-.307.616-.657,1.2-1.455,1.232-.881.041-1.274-.564-1.608-1.236-.967-1.947-1.938-3.891-2.893-5.843a5.441,5.441,0,0,1-.454-3.614c.529-2.582.953-5.185,1.41-7.781.36-2.043-1.691-3.174-1.936-5-.011-.086-.463-.137-.714-.162-5.118-.52-8.635,2.608-8.67,7.75-.028,4.088-.007,8.177,0,12.264A5.941,5.941,0,0,0,2.794,59.5a2.3,2.3,0,0,0,4.587.055,7.719,7.719,0,0,0,.09-1.545c.013-2.38,0-4.761.021-7.141.006-.826.37-1.429,1.262-1.466.972-.04,1.383.56,1.418,1.466.018.465.015.931.015,1.4q0,15.991,0,31.981c0,.569-.024,1.141.025,1.706a3.109,3.109,0,0,0,2.9,3.09,3.122,3.122,0,0,0,3.02-2.977,13.234,13.234,0,0,0,.035-1.551q0-8.772,0-17.543c0-.466-.015-.934.03-1.4A1.241,1.241,0,0,1,17.5,64.312a1.224,1.224,0,0,1,1.345,1.209,13.811,13.811,0,0,1,.041,1.55c0,6.159-.017,12.317.018,18.475.013,2.106,1.27,3.5,2.978,3.5s2.9-1.407,2.984-3.507c.016-.413.007-.828.007-1.242V68.464m-5.2-16.218c-.483-2.611-.973-5.292-1.482-7.97-.065-.341-.141-.768-.586-.815-.568-.061-.66.431-.734.818-.4,2.071-.6,4.2-1.195,6.208-.693,2.336.425,4.1,1.379,5.961.15.294.462.8.766.246.755-1.385,1.714-2.7,1.853-4.448M17.38,38.4c-.494.292-1.408-.457-1.939.358-.218.335.151.785.456,1.073a2.1,2.1,0,0,0,2.253.612,2.285,2.285,0,0,0,.43-.172c.546-.328,1.137-.755,1.03-1.418-.134-.823-.924-.319-1.412-.445a4.114,4.114,0,0,0-.818-.008" transform="translate(0 -17.045)" fill="#fff"/>
        <path id="Trazado_837917" data-name="Trazado 837917" d="M97.17,0c4.709,0,9.417-.008,14.126,0,1.884.006,2.178.293,2.181,2.163q.017,9.159,0,18.317c0,1.775-.323,2.1-2.086,2.1-9.47.01-18.939-.009-28.408.019-1.45,0-2.052-.561-2.044-2.025.035-6.157.007-12.315.019-18.473,0-1.776.32-2.094,2.085-2.1C87.753-.006,92.461,0,97.17,0m.049,19.878c4.036,0,8.072-.025,12.108.017,1.057.01,1.471-.323,1.461-1.422q-.063-7.141,0-14.281c.013-1.176-.422-1.5-1.545-1.5q-12.03.052-24.06,0c-1.127,0-1.554.329-1.541,1.5.05,4.708.058,9.417,0,14.126-.017,1.257.434,1.6,1.628,1.579,3.983-.057,7.968-.021,11.952-.022" transform="translate(-38.689 0)" fill="#fff"/>
        <path id="Trazado_837918" data-name="Trazado 837918" d="M97.231,72.578q-6.986,0-13.971,0c-2.02,0-2.291-.26-2.294-2.207q-.016-9.081,0-18.162c0-1.957.27-2.214,2.285-2.215q13.971-.01,27.943,0c2.02,0,2.292.259,2.295,2.206q.016,9.081,0,18.162c0,1.955-.273,2.212-2.285,2.216q-6.986.013-13.971,0m-.16-2.712c4.088,0,8.176-.025,12.263.017,1.054.01,1.474-.318,1.464-1.42q-.063-7.139,0-14.281c.013-1.173-.417-1.505-1.543-1.5q-12.03.053-24.06,0c-1.124,0-1.557.325-1.544,1.5.051,4.708.058,9.417,0,14.125-.017,1.255.428,1.6,1.625,1.582,3.932-.058,7.865-.022,11.8-.022" transform="translate(-38.698 -23.893)" fill="#fff"/>
        <path id="Trazado_837919" data-name="Trazado 837919" d="M97.387,99.973q6.908,0,13.816,0c2.014,0,2.283.259,2.286,2.215q.015,9.081,0,18.163c0,1.9-.29,2.2-2.14,2.2q-14.127.014-28.253,0c-1.8,0-2.122-.309-2.127-2.059q-.021-9.236,0-18.473c0-1.743.325-2.044,2.137-2.048,4.761-.013,9.521,0,14.282,0m-.318,19.878c4.088,0,8.176-.024,12.263.017,1.052.01,1.476-.313,1.466-1.417q-.063-7.14,0-14.281c.013-1.171-.412-1.508-1.54-1.5q-12.031.053-24.06,0c-1.122-.005-1.559.32-1.547,1.5q.077,7.062,0,14.125c-.016,1.244.422,1.6,1.621,1.584,3.932-.058,7.864-.022,11.8-.022" transform="translate(-38.698 -47.786)" fill="#fff"/>
        <path id="Trazado_837920" data-name="Trazado 837920" d="M34.319,8.831a8.632,8.632,0,0,1-8.856,8.795,8.649,8.649,0,0,1-8.759-8.9A8.631,8.631,0,0,1,25.48.011a8.661,8.661,0,0,1,8.839,8.82M25.5,14.877a6.265,6.265,0,0,0,6.077-6.068,6.233,6.233,0,0,0-6.073-6.064,6.245,6.245,0,0,0-6.069,6.07A6.216,6.216,0,0,0,25.5,14.877" transform="translate(-7.984 -0.005)" fill="#fff"/>
        <path id="Trazado_837921" data-name="Trazado 837921" d="M112.5,11.282c-.071.238-.168.639-.311,1.024-1.04,2.808-2.072,5.621-3.145,8.417-.662,1.725-1.7,1.959-3.046.7-1.016-.954-1.994-1.952-2.963-2.955-.681-.7-1-1.538-.177-2.306.76-.707,1.516-.316,2.2.271,1.908,1.631,1.912,1.626,2.791-.685.661-1.738,1.3-3.483,1.992-5.208a1.347,1.347,0,0,1,1.758-.868c.686.2.947.747.9,1.613" transform="translate(-48.931 -4.586)" fill="#fff"/>
        <path id="Trazado_837922" data-name="Trazado 837922" d="M112.521,61.165c-.066.231-.153.634-.3,1.018-1.055,2.858-2.1,5.721-3.194,8.564-.656,1.707-1.7,1.918-3.058.64-.977-.921-1.914-1.885-2.856-2.842-.673-.683-1.106-1.489-.339-2.311s1.58-.422,2.31.211c1.876,1.624,1.88,1.62,2.778-.742.642-1.689,1.27-3.385,1.925-5.069a1.4,1.4,0,0,1,1.7-1c.7.147,1.016.651,1.032,1.534" transform="translate(-48.933 -28.485)" fill="#fff"/>
        <path id="Trazado_837923" data-name="Trazado 837923" d="M112.52,111.152c-.067.232-.155.636-.3,1.019-1.056,2.858-2.1,5.721-3.194,8.565-.636,1.656-1.669,1.913-2.946.738-1.026-.944-1.991-1.954-2.971-2.947-.674-.683-1.1-1.491-.333-2.311s1.582-.415,2.311.218c1.871,1.623,1.876,1.619,2.776-.751.642-1.689,1.269-3.385,1.925-5.069a1.4,1.4,0,0,1,1.7-1c.7.148,1.012.656,1.027,1.536" transform="translate(-48.933 -52.377)" fill="#fff"/>
      </g>
    </g>
  </g>
</svg>
