<svg xmlns="http://www.w3.org/2000/svg" xmlns:xlink="http://www.w3.org/1999/xlink" width="125.072" height="125.072" viewBox="0 0 125.072 125.072">
  <defs>
    <clipPath id="clip-path">
      <rect id="Rectángulo_380918" data-name="Rectángulo 380918" width="50.438" height="85.767" fill="none"/>
    </clipPath>
  </defs>
  <g id="Grupo_1082952" data-name="Grupo 1082952" transform="translate(4320 820.605)">
    <g id="Grupo_1082820" data-name="Grupo 1082820" transform="translate(-4706 -2966.605)">
      <path id="Trazado_608385" data-name="Trazado 608385" d="M62.5,0A62.5,62.5,0,1,1,0,62.5,62.5,62.5,0,0,1,62.5,0Z" transform="translate(386 2146)" fill="#304c8e"/>
      <g id="Group_43_" data-name="Group (43)" transform="translate(479 2239)">
        <path id="Trazado_598926" data-name="Trazado 598926" d="M36.549,16.055,16.055,36.549a15.864,15.864,0,0,0,.655,1.582l21.422-21.42a15.863,15.863,0,0,0-1.582-.655Z" transform="translate(-15.17 -15.17)" fill="#4ca220"/>
        <path id="Trazado_598927" data-name="Trazado 598927" d="M18.367.8.8,18.367a16.022,16.022,0,0,0,.26,1.7L20.065,1.058A16.022,16.022,0,0,0,18.367.8Z" transform="translate(-0.754 -0.754)" fill="#4ca220"/>
        <path id="Trazado_598928" data-name="Trazado 598928" d="M299.7,283.668c0-.137-.008-.274-.01-.41l-16.454,16.453c.137,0,.273.01.41.01a16.091,16.091,0,0,0,1.678-.088l14.289-14.289a16.09,16.09,0,0,0,.088-1.678Z" transform="translate(-267.627 -267.648)" fill="#4ca220"/>
        <path id="Trazado_598929" data-name="Trazado 598929" d="M68.634,46.122q-.611-.481-1.267-.9L45.2,67.389q.42.656.9,1.267Z" transform="translate(-42.708 -42.73)" fill="#4ca220"/>
        <path id="Trazado_598930" data-name="Trazado 598930" d="M0,15.009,15.009,0c-.434.026-.863.07-1.287.131L.131,13.722C.07,14.145.026,14.575,0,15.009Z" fill="#4ca220"/>
        <path id="Trazado_598931" data-name="Trazado 598931" d="M106.76,84.058l-22.7,22.7a16.114,16.114,0,0,0,1.365,1.222l22.559-22.559A16.123,16.123,0,0,0,106.76,84.058Z" transform="translate(-79.426 -79.426)" fill="#4ca220"/>
        <path id="Trazado_598932" data-name="Trazado 598932" d="M159.927,138.548a16.093,16.093,0,0,0-.877-1.6l-22.108,22.108a15.959,15.959,0,0,0,1.6.877Z" transform="translate(-129.396 -129.396)" fill="#4ca220"/>
        <path id="Trazado_598933" data-name="Trazado 598933" d="M28.816,19.794a16.1,16.1,0,0,0-9.022,9.022Z" transform="translate(-18.704 -18.704)" fill="#4ca220"/>
        <path id="Trazado_598934" data-name="Trazado 598934" d="M382.436,392.617a16.085,16.085,0,0,0,10.18-10.18Z" transform="translate(-361.361 -361.361)" fill="#4ca220"/>
        <path id="Trazado_598935" data-name="Trazado 598935" d="M220.714,200.477l-20.237,20.237a15.962,15.962,0,0,0,2.154.537l18.619-18.619A16.154,16.154,0,0,0,220.714,200.477Z" transform="translate(-189.429 -189.429)" fill="#4ca220"/>
      </g>
    </g>
    <g id="Grupo_1082829" data-name="Grupo 1082829" transform="translate(-4282.719 -800.953)">
      <g id="Grupo_1082828" data-name="Grupo 1082828" transform="translate(0 0)" clip-path="url(#clip-path)">
        <path id="Trazado_837924" data-name="Trazado 837924" d="M25.051,85.766q-11.1,0-22.2,0c-2.4,0-2.717-.414-2.819-2.835-.121-2.841.049-5.488,2.945-7.063.576-.313.4-.992.407-1.533.011-2.616-.012-5.231.009-7.847.073-8.933,3.884-15.937,10.992-21.23.356-.265.741-.492,1.1-.753,1.579-1.145,1.612-2.142-.008-3.229a27.031,27.031,0,0,1-7.51-7.263A25.13,25.13,0,0,1,3.38,19.276c.037-2.559-.025-5.12.02-7.679A2.218,2.218,0,0,0,2.3,9.391,5.1,5.1,0,0,1,.026,4.671C.048,0,.009,0,4.688,0Q25.973,0,47.259,0C50.1,0,50.314.3,50.42,3.17c.1,2.691-.152,5.143-2.823,6.619-.666.369-.533,1.045-.536,1.644-.008,2.56.009,5.12-.007,7.679C47,28.31,43.06,35.469,35.651,40.8c-.226.162-.467.3-.692.466-1.58,1.145-1.611,2.14.011,3.228a26.978,26.978,0,0,1,7.51,7.264A25.155,25.155,0,0,1,47.062,66.49c-.036,2.56.026,5.12-.019,7.679a2.219,2.219,0,0,0,1.1,2.206,5.1,5.1,0,0,1,2.276,4.72c-.022,4.67.018,4.67-4.664,4.67h-20.7m.2-75.5q-8.349,0-16.7,0c-.82,0-1.592-.023-1.58,1.156.045,3.947-.274,7.92.462,11.825a21.918,21.918,0,0,0,9.831,14.708c1.7,1.126,2.985,2.443,3.078,4.651.1,2.415-1.142,3.937-3.035,5.179A21.923,21.923,0,0,0,7.4,62.632c-.684,3.684-.372,7.435-.457,11.159-.03,1.306.393,1.753,1.715,1.732,4.4-.066,8.795-.024,13.192-.024q9.936,0,19.873,0c.82,0,1.757.177,1.744-1.15-.038-3.948.276-7.92-.459-11.825a21.921,21.921,0,0,0-9.83-14.711c-1.7-1.126-2.988-2.44-3.081-4.65-.1-2.416,1.142-3.935,3.034-5.178a21.931,21.931,0,0,0,9.9-14.848c.683-3.684.375-7.435.459-11.159.029-1.307-.394-1.746-1.717-1.732-5.509.059-11.021.025-16.532.025M25.4,3.585H17.719c-4.172,0-8.343-.007-12.514.011-.569,0-1.335-.228-1.512.629A1.9,1.9,0,0,0,4.57,6.388a3.251,3.251,0,0,0,1.787.291q18.857,0,37.713,0a5.022,5.022,0,0,0,1.324-.1A1.834,1.834,0,0,0,46.78,4.4c-.114-1.127-1.04-.8-1.693-.805-6.563-.021-13.128-.013-19.691-.014m-.268,78.6q10.012,0,20.026-.01c.663,0,1.564.271,1.636-.873a1.817,1.817,0,0,0-1.3-2.073A5.278,5.278,0,0,0,44,79.091q-18.775-.01-37.547,0a6.413,6.413,0,0,0-1.167.045,1.848,1.848,0,0,0-1.636,2.146c.077,1.261,1.09.886,1.781.888,6.563.025,13.127.015,19.692.015" transform="translate(0 0)" fill="#fff"/>
        <path id="Trazado_837925" data-name="Trazado 837925" d="M25.753,45.425c.885-3.634-.888-5.676-3.842-7.588a20.614,20.614,0,0,1-9.268-12.606,20.084,20.084,0,0,1-.2-5.816c.083-1.615,1.467-2.172,3.112-1.257a24.685,24.685,0,0,0,8.269,2.979,23.225,23.225,0,0,0,15.149-2.668c.194-.107.381-.231.579-.332,1.835-.933,2.974-.222,3.155,1.807.622,6.937-2.577,12.105-7.56,16.43a45.888,45.888,0,0,1-4.039,2.95A3.6,3.6,0,0,0,29.3,42.8c.14,1.937.024,3.892.031,5.84,0,1.209-.439,2.177-1.738,2.208-1.405.033-1.87-.96-1.845-2.249.019-1.057,0-2.114,0-3.172M16.146,22.684a9.459,9.459,0,0,0,.99,4.292c2.081,4.43,5.744,7.284,9.735,9.822a1.22,1.22,0,0,0,1.526-.086,37.4,37.4,0,0,0,5.191-3.918c2.74-2.742,5.085-5.72,5.41-10.12a27.242,27.242,0,0,1-22.852.011" transform="translate(-2.321 -3.335)" fill="#fff"/>
        <path id="Trazado_837926" data-name="Trazado 837926" d="M27.515,85.646c-4.12,0-8.24.009-12.36,0-2.318-.006-2.723-.458-2.763-2.718a6.027,6.027,0,0,1,3.265-5.777c1.359-.753,2.8-1.356,4.228-1.983A16.352,16.352,0,0,0,26,71.211a1.786,1.786,0,0,1,2.913-.168c2.271,2.584,5.4,3.665,8.38,5.005a15.425,15.425,0,0,1,3.059,1.693c2.166,1.642,2.607,3.928,2.287,6.426-.159,1.241-1.159,1.485-2.258,1.481-4.287-.011-8.574,0-12.861,0m-.131-3.583c3.005,0,6.011.036,9.015-.025.75-.015,1.95.512,2.17-.477.188-.845-.972-1.232-1.706-1.581-2.908-1.387-5.975-2.46-8.612-4.379-.7-.508-1.245-.122-1.809.275a30.3,30.3,0,0,1-4.84,2.613c-1.463.675-2.926,1.351-4.361,2.082-.42.215-.953.575-.736,1.155.189.508.774.326,1.2.328,3.228.013,6.455.007,9.683.008" transform="translate(-2.332 -13.245)" fill="#fff"/>
        <path id="Trazado_837927" data-name="Trazado 837927" d="M32.434,64.04c-.057,1.12-.619,1.855-1.712,1.894a1.8,1.8,0,0,1-.132-3.594,1.675,1.675,0,0,1,1.844,1.7" transform="translate(-5.441 -11.734)" fill="#fff"/>
      </g>
    </g>
  </g>
</svg>
