<svg xmlns="http://www.w3.org/2000/svg" xmlns:xlink="http://www.w3.org/1999/xlink" width="125.072" height="125.072" viewBox="0 0 125.072 125.072">
  <defs>
    <clipPath id="clip-path">
      <rect id="Rectángulo_380651" data-name="Rectángulo 380651" width="75.924" height="73.846" fill="none"/>
    </clipPath>
  </defs>
  <g id="Grupo_1082941" data-name="Grupo 1082941" transform="translate(-743 -16030.305)">
    <g id="Grupo_1013380" data-name="Grupo 1013380" transform="translate(5 13884.305)">
      <path id="Trazado_608386" data-name="Trazado 608386" d="M62.5,0A62.5,62.5,0,1,1,0,62.5,62.5,62.5,0,0,1,62.5,0Z" transform="translate(738 2146)" fill="#304c8e"/>
      <g id="Group_43_" data-name="Group (43)" transform="translate(831 2239)">
        <path id="Trazado_598926" data-name="Trazado 598926" d="M36.549,16.055,16.055,36.549a15.864,15.864,0,0,0,.655,1.582l21.422-21.42a15.863,15.863,0,0,0-1.582-.655Z" transform="translate(-15.17 -15.17)" fill="#4ca220"/>
        <path id="Trazado_598927" data-name="Trazado 598927" d="M18.367.8.8,18.367a16.022,16.022,0,0,0,.26,1.7L20.065,1.058A16.022,16.022,0,0,0,18.367.8Z" transform="translate(-0.754 -0.754)" fill="#4ca220"/>
        <path id="Trazado_598928" data-name="Trazado 598928" d="M299.7,283.668c0-.137-.008-.274-.01-.41l-16.454,16.453c.137,0,.273.01.41.01a16.091,16.091,0,0,0,1.678-.088l14.289-14.289a16.09,16.09,0,0,0,.088-1.678Z" transform="translate(-267.627 -267.648)" fill="#4ca220"/>
        <path id="Trazado_598929" data-name="Trazado 598929" d="M68.634,46.122q-.611-.481-1.267-.9L45.2,67.389q.42.656.9,1.267Z" transform="translate(-42.708 -42.73)" fill="#4ca220"/>
        <path id="Trazado_598930" data-name="Trazado 598930" d="M0,15.009,15.009,0c-.434.026-.863.07-1.287.131L.131,13.722C.07,14.145.026,14.575,0,15.009Z" fill="#4ca220"/>
        <path id="Trazado_598931" data-name="Trazado 598931" d="M106.76,84.058l-22.7,22.7a16.114,16.114,0,0,0,1.365,1.222l22.559-22.559A16.123,16.123,0,0,0,106.76,84.058Z" transform="translate(-79.426 -79.426)" fill="#4ca220"/>
        <path id="Trazado_598932" data-name="Trazado 598932" d="M159.927,138.548a16.093,16.093,0,0,0-.877-1.6l-22.108,22.108a15.959,15.959,0,0,0,1.6.877Z" transform="translate(-129.396 -129.396)" fill="#4ca220"/>
        <path id="Trazado_598933" data-name="Trazado 598933" d="M28.816,19.794a16.1,16.1,0,0,0-9.022,9.022Z" transform="translate(-18.704 -18.704)" fill="#4ca220"/>
        <path id="Trazado_598934" data-name="Trazado 598934" d="M382.436,392.617a16.085,16.085,0,0,0,10.18-10.18Z" transform="translate(-361.361 -361.361)" fill="#4ca220"/>
        <path id="Trazado_598935" data-name="Trazado 598935" d="M220.714,200.477l-20.237,20.237a15.962,15.962,0,0,0,2.154.537l18.619-18.619A16.154,16.154,0,0,0,220.714,200.477Z" transform="translate(-189.429 -189.429)" fill="#4ca220"/>
      </g>
    </g>
    <g id="Grupo_1082459" data-name="Grupo 1082459" transform="translate(767.538 16055.918)">
      <g id="Grupo_1082458" data-name="Grupo 1082458" clip-path="url(#clip-path)">
        <path id="Trazado_836991" data-name="Trazado 836991" d="M80.584,37.847c-1.781-1.381-2.283-3.309-4.132-4.324-1.866-1.025-1.67-4.11.16-5.475,1.171-.874,1.105-1.694.465-2.765q-.91-1.522-1.746-3.088a1.27,1.27,0,0,1,.451-1.91,1.179,1.179,0,0,1,1.732.614c.944,1.865,2.542,3.428,2.637,5.691.029.672.548.729,1.069.729q2.957,0,5.914,0c.519,0,1.054-.049,1.075-.721.055-1.731,1.174-2.994,1.887-4.436,1.3-2.633,3.278-4.929,3.816-7.946A9.861,9.861,0,0,0,77.787,4.99,9.77,9.77,0,0,0,74.837,15.7c.061.187.13.372.2.556.314.809.4,1.617-.552,2.005-1.037.423-1.559-.29-1.88-1.136A11.945,11.945,0,0,1,74.642,4.513,12.355,12.355,0,0,1,91.3,2.251a12.479,12.479,0,0,1,3.7,16.537c-1.259,2.231-2.508,4.468-3.784,6.69a1.644,1.644,0,0,0,.478,2.507c2.322,1.773,1.893,4.923-.752,6.265a1.923,1.923,0,0,0-.736.452c-.326.474-.852,1.047-.6,1.569.235.494.888.076,1.352.014,1.317-.176,2.63-.379,3.947-.552a2.706,2.706,0,0,1,.877.019c1.632.33,2.347,1.747,2.4,4.7.029,1.67-.531,2.515-2.2,2.8-3.687.625-7.392,1.139-11.091,1.691-3.8.567-7.589,1.155-11.393,1.668-1.039.14-2.551.766-2.829-.863-.289-1.689,1.337-1.5,2.379-1.661q10.508-1.6,21.027-3.127c1.162-.166,1.734-.468,1.325-1.775-.288-.92-.922-.764-1.533-.676-4.188.61-8.371,1.252-12.558,1.869-3.165.466-6.332.912-9.5,1.361-.9.127-1.781.078-1.874-1.075-.09-1.107.761-1.354,1.648-1.484,2.866-.421,5.732-.848,9.013-1.335m3.582-6.037c1.717,0,3.435.006,5.153,0,.632,0,1.244-.132,1.209-.938-.031-.734-.576-.974-1.233-.975q-5.08-.009-10.158,0c-.706,0-1.329.218-1.283,1.057.043.772.687.862,1.307.864,1.668.006,3.337,0,5.006,0" transform="translate(-22.249 0)" fill="#fff"/>
        <path id="Trazado_836992" data-name="Trazado 836992" d="M9.6,48.711c-.912-1.372-1.4-2.653-2.893-3.4-2.056-1.032-2.131-4.155-.222-5.664,1.184-.935,1.1-1.821.477-2.932-1.285-2.273-2.632-4.515-3.828-6.835A12.467,12.467,0,1,1,26.58,24.087a11.388,11.388,0,0,1-.4,3.217c-.257.847-.613,1.685-1.7,1.409-1.072-.271-1.048-1.121-.829-2.025a9.663,9.663,0,0,0-2.879-9.968,9.938,9.938,0,0,0-12.3-.793A9.761,9.761,0,0,0,5.132,28.008c1.243,2.568,2.749,5.008,4.121,7.515a4.543,4.543,0,0,1,.7,1.606c.122,1.347.811,1.719,2.063,1.651,1.523-.082,3.055-.044,4.582-.012a1.371,1.371,0,0,0,1.622-1.235c.608-2.362,2.113-4.314,3.343-6.38a1.128,1.128,0,0,1,1.691-.327,1.19,1.19,0,0,1,.394,1.691c-.717,1.348-1.473,2.676-2.231,4-.679,1.188-.849,2.146.452,3.191a3.571,3.571,0,0,1-.744,5.936,3.9,3.9,0,0,0-.907.473,1.006,1.006,0,0,0-.3.777c.082.421.47.207.736.171,1.658-.224,3.312-.48,4.973-.681.871-.1,1.815-.063,1.94,1.055.122,1.089-.73,1.355-1.629,1.488Q15.059,50.536,4.182,52.168c-.739.111-1.657-.037-1.5,1.265.156,1.27.9,1.321,1.886,1.172Q14.862,53.04,25.156,51.5c.487-.073.98-.1,1.47-.15.827-.087,1.522.1,1.638,1.047.113.927-.5,1.351-1.307,1.482-2.04.333-4.086.629-6.131.929Q12.279,56.055,3.731,57.3C1.689,57.6.617,56.844.3,54.859q-.069-.438-.145-.874c-.524-2.985.168-3.912,3.21-4.344,2.028-.287,4.051-.6,6.23-.931m4.392-5.3q2.582,0,5.166,0c.633,0,1.218-.1,1.252-.909s-.492-1-1.155-1q-5.092-.007-10.184,0c-.656,0-1.2.187-1.181.981s.586.931,1.231.931l4.871,0M14.2,45.97c-.637,0-1.276-.016-1.913.007-.322.011-.794-.143-.9.27-.119.449.324.694.661.859a4.845,4.845,0,0,0,3.989.11c.406-.153.937-.412.878-.878-.079-.631-.707-.316-1.094-.355A15.994,15.994,0,0,0,14.2,45.97" transform="translate(0 -3.657)" fill="#fff"/>
        <path id="Trazado_836993" data-name="Trazado 836993" d="M58.486,82.3c-.677-1.164-1.279-2.173-1.853-3.2-.414-.738-.646-1.547.225-2.084s1.5-.014,1.961.72c.574.92,1.117,1.859,1.661,2.8a6.322,6.322,0,0,0,2.448,2.644c1.784.97,2.439,5.069,1.252,6.693a1.716,1.716,0,0,1-1.229.744,21.194,21.194,0,0,1-2.206.172q-12.939.017-25.878,0c-3.483,0-4.123-.707-3.939-4.217a3.951,3.951,0,0,1,2.356-3.786,2.469,2.469,0,0,0,1.144-1.1c2.459-4.156,4.908-8.32,7.4-12.455a1.379,1.379,0,0,0-.258-1.923A8.405,8.405,0,0,1,46.445,53.4a8.306,8.306,0,0,1,8.572,3.956,8.141,8.141,0,0,1-.677,9.528,2.062,2.062,0,0,0-.159,3.043,31.709,31.709,0,0,1,1.859,3.191,1.225,1.225,0,0,1-.382,1.808,1.2,1.2,0,0,1-1.768-.517q-1.238-1.927-2.371-3.921a1.175,1.175,0,0,0-1.56-.668,7.293,7.293,0,0,1-4.228.02,1.255,1.255,0,0,0-1.679.7c-2.111,3.618-4.261,7.214-6.409,10.81-.4.664-.652,1.133.517,1.128,6.555-.027,13.111-.017,19.667-.025a4.252,4.252,0,0,0,.659-.148M47.651,88.085c4.239,0,8.479.007,12.717,0,1.455,0,2.024-.849,1.491-2.188-.374-.937-1.22-.87-2.007-.871q-7.32-.009-14.64,0c-3.253,0-6.507.011-9.76,0-1.2,0-1.8.46-1.828,1.751-.029,1.379.818,1.322,1.752,1.32,4.091-.01,8.183,0,12.274,0m.106-32.154a5.749,5.749,0,1,0,5.863,5.706,5.7,5.7,0,0,0-5.863-5.706" transform="translate(-9.833 -16.951)" fill="#fff"/>
        <path id="Trazado_836994" data-name="Trazado 836994" d="M88.107,24.19c-.344,0-.689,0-1.034,0-1.985-.027-2.408-.441-2.416-2.453-.013-3.148-.018-6.3,0-9.445.012-1.67.447-2.088,2.1-2.123.787-.016,1.575-.027,2.361.006a3.9,3.9,0,0,1,3.821,5.169,1.514,1.514,0,0,0,.173,1.616,4.064,4.064,0,0,1,.642,4.666,4.5,4.5,0,0,1-4.031,2.538c-.536.05-1.081.008-1.622.008v.018m.74-6.173c-1.07-.194-1.73.135-1.681,1.629.042,1.257.251,1.925,1.711,1.846,1.882-.1,2.591-.451,2.621-1.646.031-1.242-.744-1.818-2.651-1.829m-.541-2.534c1.173-.063,2.157-.208,2.175-1.351.02-1.242-1.009-1.341-1.989-1.424-1.1-.093-1.3.464-1.306,1.412-.006,1,.31,1.5,1.119,1.363" transform="translate(-26.937 -3.231)" fill="#fff"/>
        <path id="Trazado_836995" data-name="Trazado 836995" d="M23.8,32.216a1.242,1.242,0,0,1-.866,1.3,1.285,1.285,0,0,1-1.509-.632c-.434-.633-.33-1.784-1.2-1.912a24.218,24.218,0,0,0-4.121-.076c-.753.019-.83.744-1.059,1.267-.374.851-.8,1.751-1.927,1.3s-.809-1.41-.483-2.269q1.856-4.9,3.727-9.8c.3-.8.657-1.607,1.682-1.629s1.418.76,1.724,1.566q1.913,5.04,3.806,10.088c.1.275.163.566.226.792" transform="translate(-3.924 -6.291)" fill="#fff"/>
        <path id="Trazado_836996" data-name="Trazado 836996" d="M53.8,67.661a3.85,3.85,0,1,1,3.968-3.749A3.921,3.921,0,0,1,53.8,67.661" transform="translate(-15.899 -19.082)" fill="#fff"/>
      </g>
    </g>
  </g>
</svg>
