<svg xmlns="http://www.w3.org/2000/svg" xmlns:xlink="http://www.w3.org/1999/xlink" width="125.072" height="125.072" viewBox="0 0 125.072 125.072">
  <defs>
    <clipPath id="clip-path">
      <rect id="Rectángulo_380737" data-name="Rectángulo 380737" width="89.212" height="58.999" fill="none"/>
    </clipPath>
  </defs>
  <g id="Grupo_1082936" data-name="Grupo 1082936" transform="translate(3965 7572.1)">
    <g id="Grupo_1082567" data-name="Grupo 1082567" transform="translate(-4703 -9718.1)">
      <path id="Trazado_608386" data-name="Trazado 608386" d="M62.5,0A62.5,62.5,0,1,1,0,62.5,62.5,62.5,0,0,1,62.5,0Z" transform="translate(738 2146)" fill="#304c8e"/>
      <g id="Group_43_" data-name="Group (43)" transform="translate(831 2239)">
        <path id="Trazado_598926" data-name="Trazado 598926" d="M36.549,16.055,16.055,36.549a15.864,15.864,0,0,0,.655,1.582l21.422-21.42a15.863,15.863,0,0,0-1.582-.655Z" transform="translate(-15.17 -15.17)" fill="#4ca220"/>
        <path id="Trazado_598927" data-name="Trazado 598927" d="M18.367.8.8,18.367a16.022,16.022,0,0,0,.26,1.7L20.065,1.058A16.022,16.022,0,0,0,18.367.8Z" transform="translate(-0.754 -0.754)" fill="#4ca220"/>
        <path id="Trazado_598928" data-name="Trazado 598928" d="M299.7,283.668c0-.137-.008-.274-.01-.41l-16.454,16.453c.137,0,.273.01.41.01a16.091,16.091,0,0,0,1.678-.088l14.289-14.289a16.09,16.09,0,0,0,.088-1.678Z" transform="translate(-267.627 -267.648)" fill="#4ca220"/>
        <path id="Trazado_598929" data-name="Trazado 598929" d="M68.634,46.122q-.611-.481-1.267-.9L45.2,67.389q.42.656.9,1.267Z" transform="translate(-42.708 -42.73)" fill="#4ca220"/>
        <path id="Trazado_598930" data-name="Trazado 598930" d="M0,15.009,15.009,0c-.434.026-.863.07-1.287.131L.131,13.722C.07,14.145.026,14.575,0,15.009Z" fill="#4ca220"/>
        <path id="Trazado_598931" data-name="Trazado 598931" d="M106.76,84.058l-22.7,22.7a16.114,16.114,0,0,0,1.365,1.222l22.559-22.559A16.123,16.123,0,0,0,106.76,84.058Z" transform="translate(-79.426 -79.426)" fill="#4ca220"/>
        <path id="Trazado_598932" data-name="Trazado 598932" d="M159.927,138.548a16.093,16.093,0,0,0-.877-1.6l-22.108,22.108a15.959,15.959,0,0,0,1.6.877Z" transform="translate(-129.396 -129.396)" fill="#4ca220"/>
        <path id="Trazado_598933" data-name="Trazado 598933" d="M28.816,19.794a16.1,16.1,0,0,0-9.022,9.022Z" transform="translate(-18.704 -18.704)" fill="#4ca220"/>
        <path id="Trazado_598934" data-name="Trazado 598934" d="M382.436,392.617a16.085,16.085,0,0,0,10.18-10.18Z" transform="translate(-361.361 -361.361)" fill="#4ca220"/>
        <path id="Trazado_598935" data-name="Trazado 598935" d="M220.714,200.477l-20.237,20.237a15.962,15.962,0,0,0,2.154.537l18.619-18.619A16.154,16.154,0,0,0,220.714,200.477Z" transform="translate(-189.429 -189.429)" fill="#4ca220"/>
      </g>
    </g>
    <g id="Grupo_1082576" data-name="Grupo 1082576" transform="translate(-3947.07 -7539.063)">
      <g id="Grupo_1082574" data-name="Grupo 1082574" clip-path="url(#clip-path)">
        <path id="Trazado_837577" data-name="Trazado 837577" d="M29.441,12.4C31.862,5.038,36.149.335,43.815.018c8.4-.347,13.2,4.418,15.746,12.006.76-.351.731-1.1.99-1.666,3-6.525,10.506-9.122,16.568-5.719a11.707,11.707,0,0,1,3.876,17.186c-.92,1.315-.844,1.775.6,2.549C86.473,27,89.122,31.092,89.1,36.749a23.2,23.2,0,0,0,.029,3.545c.44,2.883-.939,4.357-3.5,5.274a51.02,51.02,0,0,1-8.278,2.443c-1.491.263-2.8.014-3.052-1.675-.237-1.615,1.032-2.136,2.36-2.357a33.248,33.248,0,0,0,6.8-1.968c.739-.293,1.486-.571,1.734-1.534,1.308-5.092-1.435-11.422-6.326-12.788-5.264-1.47-10.8-1.711-16.056.461-2.273.939-2.259,1.382-.585,3.022a18.55,18.55,0,0,1,5.434,12.966c.1,2.14-.035,4.29.024,6.433a3.407,3.407,0,0,1-2.2,3.48q-20.979,9.919-41.924-.037a3.13,3.13,0,0,1-2.113-3.071,88.7,88.7,0,0,1,.259-9.3A17.206,17.206,0,0,1,27.126,31c1.24-1.152,1.167-1.836-.275-2.611a10.6,10.6,0,0,0-5.26-1.51c-2.366.039-4.733-.012-7.1.006-6.286.046-10.2,3.794-10.584,10.107-.265,4.372-.24,4.46,3.9,5.783,1.613.515,3.29.831,4.937,1.244,1.248.312,2.346.9,2.073,2.384-.283,1.537-1.488,1.886-2.9,1.632A38.491,38.491,0,0,1,1.829,44.757,2.877,2.877,0,0,1,0,41.781c.064-1.624.027-3.254.009-4.88C-.048,31.152,2.6,26.977,7.592,24.349c1.58-.831,1.324-1.378.49-2.571a11.019,11.019,0,0,1-.673-12.53A11.211,11.211,0,0,1,18.233,3.184c5.04.263,8.5,3.041,10.507,7.651.173.4.355.791.7,1.561m15.753,17.65c-2.076,0-3.63-.043-5.182.008-6.852.227-12.067,3.96-13.819,9.828-.822,2.753-.448,5.577-.611,8.371a2.833,2.833,0,0,0,2.042,3.183,42.942,42.942,0,0,0,33.861,0,2.808,2.808,0,0,0,2.047-3.179c-.123-1.618,0-3.253-.047-4.878A13.651,13.651,0,0,0,51.751,30.338a50.032,50.032,0,0,0-6.557-.291M33.564,14.88a11.273,11.273,0,0,0,11.044,11.24,11.264,11.264,0,0,0,10.943-10.9A11.262,11.262,0,0,0,44.62,3.875,11.265,11.265,0,0,0,33.564,14.88M17.8,22.667a7.527,7.527,0,0,0,7.577-7.84,7.56,7.56,0,0,0-7.694-7.516,7.556,7.556,0,0,0-7.68,7.744,7.53,7.53,0,0,0,7.8,7.613m53.686,0a7.51,7.51,0,0,0,7.621-7.785A7.688,7.688,0,0,0,63.734,15a7.535,7.535,0,0,0,7.754,7.666M29.441,17.679a18.859,18.859,0,0,1-2.549,4.676c-.361.472-.83,1.07.013,1.449a23.025,23.025,0,0,1,4.907,3.355c.713.576,1.639.067,2.22-.441.69-.6-.151-1.028-.49-1.411a19.271,19.271,0,0,1-4.1-7.629m30.219-.3A19.845,19.845,0,0,1,55.9,24.952c-.415.489-1.695,1.007-.665,1.866a1.762,1.762,0,0,0,2.581,0,12.441,12.441,0,0,1,4.149-2.854c.86-.371.844-.885.32-1.539a17.471,17.471,0,0,1-2.621-5.045" transform="translate(0 0)" fill="#fff"/>
      </g>
    </g>
  </g>
</svg>
