<svg xmlns="http://www.w3.org/2000/svg" xmlns:xlink="http://www.w3.org/1999/xlink" width="125.072" height="125.072" viewBox="0 0 125.072 125.072">
  <defs>
    <clipPath id="clip-path">
      <rect id="Rectángulo_380653" data-name="Rectángulo 380653" width="73.713" height="73.739" fill="none" stroke="#fff" stroke-width="1"/>
    </clipPath>
  </defs>
  <g id="Grupo_1082943" data-name="Grupo 1082943" transform="translate(7256 -4399.305)">
    <g id="Grupo_1082454" data-name="Grupo 1082454" transform="translate(-7642 2253.305)">
      <path id="Trazado_608385" data-name="Trazado 608385" d="M62.5,0A62.5,62.5,0,1,1,0,62.5,62.5,62.5,0,0,1,62.5,0Z" transform="translate(386 2146)" fill="#304c8e"/>
      <g id="Group_43_" data-name="Group (43)" transform="translate(479 2239)">
        <path id="Trazado_598926" data-name="Trazado 598926" d="M36.549,16.055,16.055,36.549a15.864,15.864,0,0,0,.655,1.582l21.422-21.42a15.863,15.863,0,0,0-1.582-.655Z" transform="translate(-15.17 -15.17)" fill="#4ca220"/>
        <path id="Trazado_598927" data-name="Trazado 598927" d="M18.367.8.8,18.367a16.022,16.022,0,0,0,.26,1.7L20.065,1.058A16.022,16.022,0,0,0,18.367.8Z" transform="translate(-0.754 -0.754)" fill="#4ca220"/>
        <path id="Trazado_598928" data-name="Trazado 598928" d="M299.7,283.668c0-.137-.008-.274-.01-.41l-16.454,16.453c.137,0,.273.01.41.01a16.091,16.091,0,0,0,1.678-.088l14.289-14.289a16.09,16.09,0,0,0,.088-1.678Z" transform="translate(-267.627 -267.648)" fill="#4ca220"/>
        <path id="Trazado_598929" data-name="Trazado 598929" d="M68.634,46.122q-.611-.481-1.267-.9L45.2,67.389q.42.656.9,1.267Z" transform="translate(-42.708 -42.73)" fill="#4ca220"/>
        <path id="Trazado_598930" data-name="Trazado 598930" d="M0,15.009,15.009,0c-.434.026-.863.07-1.287.131L.131,13.722C.07,14.145.026,14.575,0,15.009Z" fill="#4ca220"/>
        <path id="Trazado_598931" data-name="Trazado 598931" d="M106.76,84.058l-22.7,22.7a16.114,16.114,0,0,0,1.365,1.222l22.559-22.559A16.123,16.123,0,0,0,106.76,84.058Z" transform="translate(-79.426 -79.426)" fill="#4ca220"/>
        <path id="Trazado_598932" data-name="Trazado 598932" d="M159.927,138.548a16.093,16.093,0,0,0-.877-1.6l-22.108,22.108a15.959,15.959,0,0,0,1.6.877Z" transform="translate(-129.396 -129.396)" fill="#4ca220"/>
        <path id="Trazado_598933" data-name="Trazado 598933" d="M28.816,19.794a16.1,16.1,0,0,0-9.022,9.022Z" transform="translate(-18.704 -18.704)" fill="#4ca220"/>
        <path id="Trazado_598934" data-name="Trazado 598934" d="M382.436,392.617a16.085,16.085,0,0,0,10.18-10.18Z" transform="translate(-361.361 -361.361)" fill="#4ca220"/>
        <path id="Trazado_598935" data-name="Trazado 598935" d="M220.714,200.477l-20.237,20.237a15.962,15.962,0,0,0,2.154.537l18.619-18.619A16.154,16.154,0,0,0,220.714,200.477Z" transform="translate(-189.429 -189.429)" fill="#4ca220"/>
      </g>
    </g>
    <g id="Grupo_1082463" data-name="Grupo 1082463" transform="translate(-7230.379 4424.972)">
      <g id="Grupo_1082462" data-name="Grupo 1082462" clip-path="url(#clip-path)">
        <path id="Trazado_837002" data-name="Trazado 837002" d="M25.431.008c4.879,0,9.758-.018,14.637,0A10.646,10.646,0,0,1,50.709,10.575q.07,6.744-.008,13.489c-.013,1.181.367,1.6,1.562,1.582q5.236-.086,10.475-.007a10.835,10.835,0,0,1,10.754,8.436,8.184,8.184,0,0,1,.207,1.844q.026,8.753.01,17.507a4.28,4.28,0,0,1-.1,1.137,1.036,1.036,0,0,1-1.073.784,1.129,1.129,0,0,1-1.114-.749,4.1,4.1,0,0,1-.172-1.7c-.005-5.357.008-10.714-.007-16.072-.015-5.155-3.376-8.536-8.522-8.573-3.4-.025-6.795.061-10.188-.037-1.491-.043-1.853.5-1.845,1.91.028,5.448-3.17,9.671-8.161,10.924a16.272,16.272,0,0,1-3.984.4c-3.779,0-7.558.036-11.337-.021-1.255-.019-1.791.3-1.765,1.685.082,4.351.006,8.705.038,13.058a8.316,8.316,0,0,0,8.475,8.443c5.357.023,10.715.04,16.072-.017a5.037,5.037,0,0,1,3.41,1.177c2.05,1.647,4.168,3.21,6.268,4.794.447.337.9.822,1.536.53.667-.3.5-.968.51-1.521.023-1.1.007-2.2.018-3.3a1.506,1.506,0,0,1,1.569-1.66,8.135,8.135,0,0,0,7.605-5.963c.271-.823.656-1.615,1.706-1.257,1.031.352.914,1.271.652,2.062a10.44,10.44,0,0,1-7.51,7.236c-1.2.323-1.677.8-1.582,2.041.137,1.792.166,3.63-1.786,4.615-2.006,1.012-3.458-.172-4.907-1.327a25.092,25.092,0,0,1-2.383-1.838c-2.557-2.606-5.585-3.406-9.2-3.156-4,.277-8.032.079-12.05.059a10.7,10.7,0,0,1-10.87-10.8c-.034-4.448,0-8.9-.015-13.346,0-.413.178-.949-.241-1.2-.534-.321-.864.247-1.215.509-2.109,1.572-4.2,3.171-6.289,4.768a3.461,3.461,0,0,1-3.992.6,3.521,3.521,0,0,1-1.775-3.5c.01-2.55-.016-2.55-2.385-3.39A10.533,10.533,0,0,1,.016,30.755q-.028-10.117,0-20.234A10.5,10.5,0,0,1,10.507.014c4.975-.027,9.95-.006,14.924-.006m-.063,2.463c-4.781,0-9.561-.013-14.342,0-5.1.018-8.535,3.457-8.548,8.567q-.024,9.394,0,18.788.006,7.909,7.814,9a1.663,1.663,0,0,1,1.678,1.89c-.026,1.051-.012,2.1,0,3.155.008.513-.118,1.119.462,1.407.61.3,1.1-.083,1.56-.436,2.168-1.65,4.357-3.274,6.5-4.963a4.777,4.777,0,0,1,3.167-1.067q8.032.057,16.063.009a8.246,8.246,0,0,0,8.524-8.489q.043-9.681,0-19.362a8.277,8.277,0,0,0-8.531-8.5c-4.78-.018-9.561,0-14.342,0" transform="translate(0 0)" fill="#fff" stroke="#fff" stroke-width="1"/>
        <path id="Trazado_837003" data-name="Trazado 837003" d="M97.089,77.229a4.462,4.462,0,0,1-4.348,4.439A4.6,4.6,0,0,1,88.3,77.276a4.477,4.477,0,0,1,4.393-4.4,4.367,4.367,0,0,1,4.393,4.35m-4.534-1.792a1.6,1.6,0,0,0-1.629,1.758,1.8,1.8,0,0,0,3.6.191,1.8,1.8,0,0,0-1.97-1.949" transform="translate(-34.488 -28.464)" fill="#fff" stroke="#fff" stroke-width="1"/>
        <path id="Trazado_837004" data-name="Trazado 837004" d="M64.871,77.277a4.5,4.5,0,0,1-4.413,4.373,4.386,4.386,0,1,1,4.413-4.373m-4.134,1.774c.9-.024,1.5-.691,1.619-1.752a1.842,1.842,0,0,0-1.912-1.853A1.709,1.709,0,0,0,58.609,77.2c-.068,1.071.765,1.856,2.128,1.85" transform="translate(-21.915 -28.464)" fill="#fff" stroke="#fff" stroke-width="1"/>
        <path id="Trazado_837005" data-name="Trazado 837005" d="M80.934,77.27a4.373,4.373,0,0,1-4.366,4.38,4.384,4.384,0,1,1,.028-8.768,4.358,4.358,0,0,1,4.338,4.388m-2.472-.075a1.748,1.748,0,0,0-1.874-1.746,1.784,1.784,0,0,0-1.893,1.765,1.848,1.848,0,0,0,1.967,1.834,1.761,1.761,0,0,0,1.8-1.853" transform="translate(-28.192 -28.465)" fill="#fff" stroke="#fff" stroke-width="1"/>
        <path id="Trazado_837006" data-name="Trazado 837006" d="M31.541,26.6a17.069,17.069,0,0,1,.013-2.006,3.439,3.439,0,0,1,3.276-3.226c2.3-.28,3.558-1.528,3.551-3.532s-1.283-3.247-3.6-3.471c-.863-.083-1.584-.35-1.5-1.327.08-.961.878-1.129,1.7-1.149a5.935,5.935,0,0,1,5.841,5.1c.339,3.455-1.656,6.316-4.972,6.734-1.516.191-1.831.869-1.744,2.146.051.762.007,1.531.052,2.295.03.52.257.95.873.92a.738.738,0,0,0,.733-.886c-.278-1.98.852-2.675,2.5-3.351a7.586,7.586,0,0,0,4.159-9.1,7.841,7.841,0,0,0-8.149-5.676,7.686,7.686,0,0,0-7,6.833,5.855,5.855,0,0,0-.009.859c.038.456.19.886.726.91.506.023.775-.332.868-.8a9.8,9.8,0,0,1,.709-2.621c.378-.737.888-1.332,1.807-.895.811.386.8,1.068.522,1.837a11.8,11.8,0,0,0-.511,1.934,3.385,3.385,0,0,1-3.643,3.082,3.529,3.529,0,0,1-3.114-3.959,10.463,10.463,0,0,1,7.687-9.353,10.327,10.327,0,0,1,12.134,6.021A10.2,10.2,0,0,1,39.96,26.8a2.823,2.823,0,0,0-1.779,2.329,3.223,3.223,0,0,1-3.148,2.652,3.488,3.488,0,0,1-3.287-2.336,7.865,7.865,0,0,1-.206-2.844" transform="translate(-9.618 -2.961)" fill="#fff" stroke="#fff" stroke-width="1"/>
        <path id="Trazado_837007" data-name="Trazado 837007" d="M42.689,51.758a3.351,3.351,0,0,1-3.3,3.434,3.435,3.435,0,1,1,.026-6.871,3.3,3.3,0,0,1,3.27,3.437" transform="translate(-14.044 -18.873)" fill="#fff" stroke="#fff" stroke-width="1"/>
      </g>
    </g>
  </g>
</svg>
