<svg xmlns="http://www.w3.org/2000/svg" xmlns:xlink="http://www.w3.org/1999/xlink" width="125.072" height="125.072" viewBox="0 0 125.072 125.072">
  <defs>
    <clipPath id="clip-path">
      <rect id="Rectángulo_380738" data-name="Rectángulo 380738" width="99.783" height="99.676" fill="none"/>
    </clipPath>
  </defs>
  <g id="Grupo_1082935" data-name="Grupo 1082935" transform="translate(4317 7572.1)">
    <g id="Grupo_1082566" data-name="Grupo 1082566" transform="translate(-4703 -9718.1)">
      <path id="Trazado_608385" data-name="Trazado 608385" d="M62.5,0A62.5,62.5,0,1,1,0,62.5,62.5,62.5,0,0,1,62.5,0Z" transform="translate(386 2146)" fill="#304c8e"/>
      <g id="Group_43_" data-name="Group (43)" transform="translate(479 2239)">
        <path id="Trazado_598926" data-name="Trazado 598926" d="M36.549,16.055,16.055,36.549a15.864,15.864,0,0,0,.655,1.582l21.422-21.42a15.863,15.863,0,0,0-1.582-.655Z" transform="translate(-15.17 -15.17)" fill="#4ca220"/>
        <path id="Trazado_598927" data-name="Trazado 598927" d="M18.367.8.8,18.367a16.022,16.022,0,0,0,.26,1.7L20.065,1.058A16.022,16.022,0,0,0,18.367.8Z" transform="translate(-0.754 -0.754)" fill="#4ca220"/>
        <path id="Trazado_598928" data-name="Trazado 598928" d="M299.7,283.668c0-.137-.008-.274-.01-.41l-16.454,16.453c.137,0,.273.01.41.01a16.091,16.091,0,0,0,1.678-.088l14.289-14.289a16.09,16.09,0,0,0,.088-1.678Z" transform="translate(-267.627 -267.648)" fill="#4ca220"/>
        <path id="Trazado_598929" data-name="Trazado 598929" d="M68.634,46.122q-.611-.481-1.267-.9L45.2,67.389q.42.656.9,1.267Z" transform="translate(-42.708 -42.73)" fill="#4ca220"/>
        <path id="Trazado_598930" data-name="Trazado 598930" d="M0,15.009,15.009,0c-.434.026-.863.07-1.287.131L.131,13.722C.07,14.145.026,14.575,0,15.009Z" fill="#4ca220"/>
        <path id="Trazado_598931" data-name="Trazado 598931" d="M106.76,84.058l-22.7,22.7a16.114,16.114,0,0,0,1.365,1.222l22.559-22.559A16.123,16.123,0,0,0,106.76,84.058Z" transform="translate(-79.426 -79.426)" fill="#4ca220"/>
        <path id="Trazado_598932" data-name="Trazado 598932" d="M159.927,138.548a16.093,16.093,0,0,0-.877-1.6l-22.108,22.108a15.959,15.959,0,0,0,1.6.877Z" transform="translate(-129.396 -129.396)" fill="#4ca220"/>
        <path id="Trazado_598933" data-name="Trazado 598933" d="M28.816,19.794a16.1,16.1,0,0,0-9.022,9.022Z" transform="translate(-18.704 -18.704)" fill="#4ca220"/>
        <path id="Trazado_598934" data-name="Trazado 598934" d="M382.436,392.617a16.085,16.085,0,0,0,10.18-10.18Z" transform="translate(-361.361 -361.361)" fill="#4ca220"/>
        <path id="Trazado_598935" data-name="Trazado 598935" d="M220.714,200.477l-20.237,20.237a15.962,15.962,0,0,0,2.154.537l18.619-18.619A16.154,16.154,0,0,0,220.714,200.477Z" transform="translate(-189.429 -189.429)" fill="#4ca220"/>
      </g>
    </g>
    <g id="Grupo_1082578" data-name="Grupo 1082578" transform="translate(-4304.355 -7559.402)">
      <g id="Grupo_1082577" data-name="Grupo 1082577" transform="translate(0 0)" clip-path="url(#clip-path)">
        <path id="Trazado_837578" data-name="Trazado 837578" d="M49.9.015c27.079-.638,50.238,22.738,49.873,50.446C99.439,76.2,77.851,99.714,49.87,99.676A50.133,50.133,0,0,1,0,49.682C.073,21.3,24.02-.674,49.9.015M5.324,49.8A44.527,44.527,0,1,0,49.8,5.282,44.449,44.449,0,0,0,5.324,49.8" transform="translate(0 0)" fill="#fff"/>
        <path id="Trazado_837579" data-name="Trazado 837579" d="M55.2,51.915A17.68,17.68,0,0,1,37.4,34.241a17.805,17.805,0,1,1,35.611.012A17.688,17.688,0,0,1,55.2,51.915M55.15,21.908A12.113,12.113,0,0,0,42.844,34.371a12.364,12.364,0,1,0,24.726-.309A12.119,12.119,0,0,0,55.15,21.908" transform="translate(-5.357 -2.354)" fill="#fff"/>
        <path id="Trazado_837580" data-name="Trazado 837580" d="M21.816,84.249c.153-9.82,8.493-19.31,18.489-20.393a117.525,117.525,0,0,1,25.323,0c10.232,1.112,18.62,10.9,18.512,20.96-.022,2.124-.841,3.192-2.487,3.248-1.629.057-2.6-1.017-2.771-3.048C78.1,75.565,72.14,69.324,62.571,68.825a130.061,130.061,0,0,0-21.287.226A16.53,16.53,0,0,0,27.1,84.221a10.111,10.111,0,0,1-.117,1.542c-.33,1.517-1.222,2.445-2.857,2.276a2.426,2.426,0,0,1-2.3-2.629c-.015-.387,0-.775,0-1.163" transform="translate(-3.124 -9.047)" fill="#fff"/>
      </g>
    </g>
  </g>
</svg>
