<svg xmlns="http://www.w3.org/2000/svg" xmlns:xlink="http://www.w3.org/1999/xlink" width="125.072" height="125.072" viewBox="0 0 125.072 125.072">
  <defs>
    <clipPath id="clip-path">
      <rect id="Rectángulo_380652" data-name="Rectángulo 380652" width="74.78" height="74.776" fill="#fff" stroke="#fff" stroke-width="1"/>
    </clipPath>
  </defs>
  <g id="Grupo_1082942" data-name="Grupo 1082942" transform="translate(-1094 -16030.305)">
    <g id="Grupo_1013379" data-name="Grupo 1013379" transform="translate(5 13884.305)">
      <path id="Trazado_608387" data-name="Trazado 608387" d="M62.5,0A62.5,62.5,0,1,1,0,62.5,62.5,62.5,0,0,1,62.5,0Z" transform="translate(1089 2146)" fill="#304c8e"/>
      <g id="Group_43_" data-name="Group (43)" transform="translate(1182 2239)">
        <path id="Trazado_598926" data-name="Trazado 598926" d="M36.549,16.055,16.055,36.549a15.864,15.864,0,0,0,.655,1.582l21.422-21.42a15.863,15.863,0,0,0-1.582-.655Z" transform="translate(-15.17 -15.17)" fill="#4ca220"/>
        <path id="Trazado_598927" data-name="Trazado 598927" d="M18.367.8.8,18.367a16.022,16.022,0,0,0,.26,1.7L20.065,1.058A16.022,16.022,0,0,0,18.367.8Z" transform="translate(-0.754 -0.754)" fill="#4ca220"/>
        <path id="Trazado_598928" data-name="Trazado 598928" d="M299.7,283.668c0-.137-.008-.274-.01-.41l-16.454,16.453c.137,0,.273.01.41.01a16.091,16.091,0,0,0,1.678-.088l14.289-14.289a16.09,16.09,0,0,0,.088-1.678Z" transform="translate(-267.627 -267.648)" fill="#4ca220"/>
        <path id="Trazado_598929" data-name="Trazado 598929" d="M68.634,46.122q-.611-.481-1.267-.9L45.2,67.389q.42.656.9,1.267Z" transform="translate(-42.708 -42.73)" fill="#4ca220"/>
        <path id="Trazado_598930" data-name="Trazado 598930" d="M0,15.009,15.009,0c-.434.026-.863.07-1.287.131L.131,13.722C.07,14.145.026,14.575,0,15.009Z" fill="#4ca220"/>
        <path id="Trazado_598931" data-name="Trazado 598931" d="M106.76,84.058l-22.7,22.7a16.114,16.114,0,0,0,1.365,1.222l22.559-22.559A16.123,16.123,0,0,0,106.76,84.058Z" transform="translate(-79.426 -79.426)" fill="#4ca220"/>
        <path id="Trazado_598932" data-name="Trazado 598932" d="M159.927,138.548a16.093,16.093,0,0,0-.877-1.6l-22.108,22.108a15.959,15.959,0,0,0,1.6.877Z" transform="translate(-129.396 -129.396)" fill="#4ca220"/>
        <path id="Trazado_598933" data-name="Trazado 598933" d="M28.816,19.794a16.1,16.1,0,0,0-9.022,9.022Z" transform="translate(-18.704 -18.704)" fill="#4ca220"/>
        <path id="Trazado_598934" data-name="Trazado 598934" d="M382.436,392.617a16.085,16.085,0,0,0,10.18-10.18Z" transform="translate(-361.361 -361.361)" fill="#4ca220"/>
        <path id="Trazado_598935" data-name="Trazado 598935" d="M220.714,200.477l-20.237,20.237a15.962,15.962,0,0,0,2.154.537l18.619-18.619A16.154,16.154,0,0,0,220.714,200.477Z" transform="translate(-189.429 -189.429)" fill="#4ca220"/>
      </g>
    </g>
    <g id="Grupo_1082461" data-name="Grupo 1082461" transform="translate(1119.146 16055.453)">
      <g id="Grupo_1082460" data-name="Grupo 1082460" clip-path="url(#clip-path)">
        <path id="Trazado_836997" data-name="Trazado 836997" d="M63.437,56.138c0-7.188-.017-14.375.007-21.563A5.13,5.13,0,0,1,72.282,30.9c.865.872,4.352,1.291,5.362.659a1.812,1.812,0,0,0,.7-1.779q0-4.969,0-9.936c0-.414,0-.828.006-1.242.006-.941.316-1.673,1.4-1.648.989.022,1.288.716,1.3,1.591.006.517.008,1.035.008,1.552,0,3.416.013,6.831-.005,10.246-.015,2.715-1.416,4.126-4.086,4.171-3.362.057-3.362.057-3.362,3.371,0,2.588.024,5.176-.011,7.763-.013.974.156,1.42,1.318,1.169A4.831,4.831,0,0,1,79.614,48.2c.542.563.963.5,1.621.232A5.014,5.014,0,0,1,87.674,50.2a1.274,1.274,0,0,0,1.573.492c3.882-.957,6.7,1.236,6.71,5.213q.026,9.625,0,19.251a6.19,6.19,0,0,1-6.482,6.562c-3.933.021-7.866,0-11.8,0-.908,0-1.723-.2-1.757-1.29-.037-1.189.809-1.422,1.786-1.416.363,0,.725,0,1.087,0,3.157,0,6.313,0,9.47,0,3.713-.008,4.982-1.254,4.987-4.916q.012-8.616,0-17.233a8.071,8.071,0,0,0-.173-1.841,2.24,2.24,0,0,0-4.336-.178c-.1.291-.17.6-.247.9a1.283,1.283,0,0,1-1.466,1.088,1.264,1.264,0,0,1-1.2-1.368c-.032-.723.009-1.451-.048-2.172a2.385,2.385,0,0,0-2.11-2.5,2.244,2.244,0,0,0-2.523,2.016c-.206.894-.51,1.643-1.576,1.53-1.19-.126-1.179-1.07-1.234-1.984-.136-2.29-1.791-3.478-3.456-2.526a2.442,2.442,0,0,0-1.191,1.738c-.176.9-.508,1.645-1.574,1.528-1.188-.13-1.219-1.071-1.218-1.988q0-7.685,0-15.37c0-2.379-.894-3.693-2.442-3.632-1.5.06-2.3,1.3-2.3,3.62q-.005,12.421,0,24.84c0,.414.018.829,0,1.242-.05.944.284,2.132-1.05,2.437-1.385.317-1.7-.888-2.145-1.795-1.315-2.7-2.575-5.421-3.911-8.108-.656-1.32-1.614-2.3-3.276-2.129-.654.066-1.117.291-.9,1.082,1.943,7.216,3.049,14.73,7.57,21.026a13.376,13.376,0,0,0,3.415,3.764,4.078,4.078,0,0,1,.9.853c.643.782,1.049,1.686.113,2.453-.869.712-1.512.083-2.25-.548-5.77-4.936-8.647-11.455-10.4-18.624q-1.142-4.671-2.4-9.313a2.176,2.176,0,0,1,1.45-2.945c3.4-1.434,6.355-.469,8.173,2.782.628,1.124,1.164,2.3,1.742,3.45l.274-.055" transform="translate(-21.19 -6.955)" fill="#fff" stroke="#fff" stroke-width="1"/>
        <path id="Trazado_836998" data-name="Trazado 836998" d="M13.63,27.562c-3.157,0-6.314.015-9.472,0C1.46,27.542.021,26.127.014,23.451q-.027-9.7,0-19.409C.024,1.462,1.48.022,4.081.014q9.7-.028,19.409,0c2.6.008,4.056,1.448,4.064,4.027q.032,9.782,0,19.565a3.654,3.654,0,0,1-3.985,3.949c-3.313.027-6.626.006-9.938.007m.219-24.844c-2.946,0-5.891-.008-8.837,0-1.929.008-2.286.349-2.29,2.241q-.014,8.837,0,17.674c0,1.823.375,2.207,2.163,2.211q8.914.019,17.829,0c1.726,0,2.127-.391,2.131-2.084q.022-8.992,0-17.984c0-1.673-.411-2.045-2.16-2.055-2.946-.016-5.891,0-8.836,0" transform="translate(0 0)" fill="#fff" stroke="#fff" stroke-width="1"/>
        <path id="Trazado_836999" data-name="Trazado 836999" d="M27.562,68.548c0,3.209.015,6.418,0,9.627-.016,2.7-1.43,4.138-4.108,4.145q-9.705.027-19.41,0C1.464,82.31.022,80.849.014,78.252q-.028-9.705,0-19.41c.008-2.6,1.45-4.056,4.028-4.064q9.782-.031,19.565,0a3.652,3.652,0,0,1,3.948,3.985c.027,3.261.006,6.522.007,9.782m-2.71.073c0-2.946.008-5.892,0-8.837-.008-1.935-.349-2.294-2.232-2.3q-8.838-.016-17.675,0c-1.879,0-2.218.361-2.221,2.307q-.012,8.76,0,17.519c0,1.938.346,2.3,2.231,2.3q8.837.017,17.674,0c1.877,0,2.215-.364,2.222-2.308.011-2.894,0-5.788,0-8.682" transform="translate(0 -22.462)" fill="#fff" stroke="#fff" stroke-width="1"/>
        <path id="Trazado_837000" data-name="Trazado 837000" d="M54.774,13.631c0-3.208-.021-6.417.006-9.625A3.651,3.651,0,0,1,58.724.02C65.089-.005,71.454.012,77.819.01c.992,0,1.993.087,1.96,1.393s-1.07,1.317-2.038,1.317q-8.926,0-17.852,0c-2.1,0-2.4.308-2.4,2.444q-.009,8.616,0,17.231c0,2.143.294,2.432,2.393,2.457.362,0,.725,0,1.086.016.831.038,1.408.406,1.433,1.3a1.239,1.239,0,0,1-1.347,1.37,22.477,22.477,0,0,1-3.1-.024,3.627,3.627,0,0,1-3.166-3.791c-.032-3.363-.009-6.727-.009-10.09" transform="translate(-22.464 -0.003)" fill="#fff" stroke="#fff" stroke-width="1"/>
        <path id="Trazado_837001" data-name="Trazado 837001" d="M89.091,3.409a2.125,2.125,0,0,1-.788,1.6q-6.968,6.973-13.946,13.935c-1.151,1.143-1.849,1.114-3.043-.054-1.738-1.7-3.446-3.432-5.163-5.155-.7-.7-1.3-1.536-.451-2.419.927-.963,1.787-.308,2.529.428,1.176,1.166,2.389,2.3,3.5,3.525.818.9,1.4.888,2.265.011,3.951-4.025,7.958-7.994,11.95-11.979.472-.471.9-1.042,1.636-1.1a1.241,1.241,0,0,1,1.512,1.209" transform="translate(-26.777 -0.899)" fill="#fff" stroke="#fff" stroke-width="1"/>
      </g>
    </g>
  </g>
</svg>
