<svg xmlns="http://www.w3.org/2000/svg" xmlns:xlink="http://www.w3.org/1999/xlink" width="141" height="141" viewBox="0 0 141 141">
  <defs>
    <clipPath id="clip-path">
      <rect id="Rectángulo_380412" data-name="Rectángulo 380412" width="74.38" height="84.051" fill="none"/>
    </clipPath>
  </defs>
  <g id="Grupo_1082953" data-name="Grupo 1082953" transform="translate(-314 -8154.146)">
    <g id="Grupo_1071492" data-name="Grupo 1071492" transform="translate(45 7196.146)">
      <circle id="Elipse_5614" data-name="Elipse 5614" cx="70.5" cy="70.5" r="70.5" transform="translate(269 958)" fill="#304c8e"/>
    </g>
    <g id="Grupo_1082114" data-name="Grupo 1082114" transform="translate(352.62 8182.621)">
      <g id="Grupo_1082113" data-name="Grupo 1082113" transform="translate(0 0)" clip-path="url(#clip-path)">
        <path id="Trazado_836310" data-name="Trazado 836310" d="M0,41.993Q0,22.3,0,2.606C0,.12.123,0,2.6,0H64.464C67.03,0,67.2.158,67.2,2.658c0,5.58-.012,11.159.013,16.739,0,1,.063,1.7-1.386,1.681-1.336-.013-1.457-.488-1.446-1.6.053-5.088-.015-10.175.052-15.262.016-1.166-.324-1.426-1.452-1.424q-29.374.054-58.748-.006c-1.287,0-1.5.4-1.5,1.577q.05,37.664,0,75.327c0,1.207.262,1.563,1.521,1.559q24.45-.068,48.9,0c1.114,0,1.516-.225,1.457-1.41-.1-2.073.024-4.158-.046-6.234-.051-1.529.525-2.22,2.1-2.169,2.077.066,4.16-.059,6.234.044,1.2.06,1.547-.246,1.539-1.5-.061-9.244.007-18.49-.074-27.734-.012-1.459.456-1.717,1.74-1.632.841.056,1.127.237,1.125,1.119q-.042,15.262-.012,30.525a2.678,2.678,0,0,1-.859,2.033q-4.5,4.439-8.934,8.936a2.646,2.646,0,0,1-2.033.832q-26.666-.026-53.332-.017c-1.8,0-2.052-.3-2.053-2.326Q0,61.851,0,41.993M62.138,74.206c-1.408,0-2.65.009-3.892,0-.486,0-.85.051-.84.677.02,1.316.006,2.633.006,4.109l4.726-4.781" transform="translate(0 0)" fill="#fff"/>
        <path id="Trazado_836311" data-name="Trazado 836311" d="M54.44,59.173c-3.826,0-3.728,0-3.864-3.485a5.556,5.556,0,0,1,1.855-4.576c7.562-7.427,15.028-14.953,22.512-22.46a4.936,4.936,0,0,1,3.707-1.784,4.116,4.116,0,0,1,3.834,2.355,4.169,4.169,0,0,1-.351,4.5A11.723,11.723,0,0,1,80.8,35.159c-7.376,7.382-14.783,14.736-22.111,22.166-1.322,1.34-2.614,2.288-4.249,1.848M70.85,36.747,53.916,53.671a2.176,2.176,0,0,0-.234.228,1.949,1.949,0,0,0-.131,2.272c.48.542,1.52.416,2.257-.026a5.6,5.6,0,0,0,.944-.9L71.136,40.858c2.086-2.086,2.086-2.086-.285-4.111m9.339-5.514c-.114-.955-.625-1.593-1.562-1.584-1.007.01-2.029.764-1.94,1.579A2.365,2.365,0,0,0,78.653,33.1c.747.01,1.351-.966,1.536-1.867M76.5,35.371a9.556,9.556,0,0,0-2.07-2c-.406-.211-1,.709-1.393,1.215-.154.2,1.811,2.284,2.063,2.161a3.644,3.644,0,0,0,1.4-1.379" transform="translate(-8.599 -4.569)" fill="#fff"/>
        <path id="Trazado_836312" data-name="Trazado 836312" d="M49.3,36.6c-1.25-.007-2.379.222-2.2-1.568.109-1.087.383-1.414,1.437-1.343,1.252.085,2.514.028,3.772.019A1.657,1.657,0,0,1,54.223,35.6c-.014,1.367-.052,2.737.015,4.1.044.9-.333,1.227-1.144,1.065-.656-.132-1.813.586-1.742-.934.012-.268-.02-.538-.034-.851-.688.167-.949.748-1.307,1.185a36.6,36.6,0,0,0-8.432,22.911,21.386,21.386,0,0,0,.006,2.787c.129,1.21-.246,1.587-1.512,1.577-1.2-.009-1.279-.492-1.289-1.453C38.659,53.884,41.26,46.51,49.3,36.6" transform="translate(-6.594 -5.727)" fill="#fff"/>
        <path id="Trazado_836313" data-name="Trazado 836313" d="M28.152,35.682a1.781,1.781,0,0,1-2.531,1.689c-.525-.173-.45-.544-.451-.908-.007-1.477-.019-2.954.008-4.43a1.5,1.5,0,0,1,1.774-1.64c1.2.037,2.407.006,3.61.007,1.544,0,2.218.915,1.632,2.317-.408.974-1.385.144-2.045.542-.069.6.464.915.754,1.335A23.28,23.28,0,0,1,30,62.382c-.422.517-.788,1.529-1.71.493-.578-.648-1.629-.9-.552-2.239a20.169,20.169,0,0,0,.416-24.954" transform="translate(-4.279 -5.168)" fill="#fff"/>
        <path id="Trazado_836314" data-name="Trazado 836314" d="M42.767,25.7c-5.5,0-10.721-.036-15.943.027-1.165.014-1.569-.2-1.576-1.483-.007-1.342.619-1.308,1.579-1.3,5.221.03,10.443.014,15.63.014a.594.594,0,0,0-.316-.771c-.976-.7-.953-1.239-.061-2.121.877-.866,1.341-.671,2.039.1.951,1.052,1.989,2.025,2.992,3.028a1.418,1.418,0,0,1,0,2.276q-1.391,1.389-2.776,2.783c-1.227,1.227-2.068,1.11-2.9-.4-.2-.357-.2-.357,1.337-2.149" transform="translate(-4.293 -3.315)" fill="#fff"/>
        <path id="Trazado_836315" data-name="Trazado 836315" d="M19.16,69.2a5.591,5.591,0,0,1-.081,11.181A5.591,5.591,0,1,1,19.16,69.2m2.682,5.642a2.762,2.762,0,0,0-2.758-2.842,2.79,2.79,0,0,0-.1,5.58,2.762,2.762,0,0,0,2.862-2.738" transform="translate(-2.297 -11.768)" fill="#fff"/>
        <path id="Trazado_836316" data-name="Trazado 836316" d="M44.9,83.143a5.591,5.591,0,1,1-11.182.079A5.591,5.591,0,0,1,44.9,83.143m-5.638-2.686a2.721,2.721,0,0,0-2.71,2.873A2.794,2.794,0,0,0,39.3,86.038a2.865,2.865,0,0,0,2.828-2.827,2.8,2.8,0,0,0-2.867-2.754" transform="translate(-5.734 -13.196)" fill="#fff"/>
        <path id="Trazado_836317" data-name="Trazado 836317" d="M19.59,27.509a5.592,5.592,0,1,1-5.656-5.566,5.6,5.6,0,0,1,5.656,5.566m-5.639-2.763a2.791,2.791,0,0,0,.121,5.581,2.791,2.791,0,1,0-.121-5.581" transform="translate(-1.429 -3.731)" fill="#fff"/>
        <path id="Trazado_836318" data-name="Trazado 836318" d="M61.283,31.421a5.558,5.558,0,0,1-5.62-5.594,5.6,5.6,0,0,1,11.209-.045,5.592,5.592,0,0,1-5.589,5.639m-.053-2.75a2.851,2.851,0,0,0,2.813-2.792,2.792,2.792,0,0,0-5.583-.054,2.878,2.878,0,0,0,2.77,2.846" transform="translate(-9.466 -3.44)" fill="#fff"/>
        <path id="Trazado_836319" data-name="Trazado 836319" d="M68.414,70.15c-.8.69-1.428,1.3-2.124,1.816-1.089.814-1.351,1.579-.055,2.434a4.976,4.976,0,0,1,.7.688c1.458,1.46,1.423,1.517-.091,2.814-.54.462-.787.282-1.191-.1-.865-.822-1.624-2.36-2.6-2.283-.92.072-1.758,1.463-2.591,2.314-1.012,1.033-1.242-.259-1.748-.593-.538-.356-.975-.766-.2-1.486.862-.8,2.345-1.55,2.26-2.6-.071-.882-1.4-1.708-2.25-2.473-1.054-.949.082-1.252.461-1.76.459-.616.9-1.015,1.647-.182S62.1,70.952,63.1,70.9c.83-.046,1.567-1.369,2.394-2.066.276-.233.456-.93.979-.535a23.281,23.281,0,0,1,1.943,1.855" transform="translate(-9.877 -11.593)" fill="#fff"/>
        <path id="Trazado_836320" data-name="Trazado 836320" d="M42.466,16.215A22.8,22.8,0,0,0,41,14.331c-1.493-1.55-1.511-1.532-3.006-.037a6.711,6.711,0,0,0-.691.7c-.648.88-1.154.955-2.032.1-.922-.9-.79-1.35.059-2.16,2.187-2.082,2.189-2.168.007-4.244-.869-.827-.945-1.275-.037-2.168.873-.858,1.271-.682,2.012.091,2.125,2.218,2.212,2.233,4.385-.054.842-.886,1.281-.73,2.03.05.681.71.915,1.105.069,1.926-2.292,2.223-2.233,2.26.019,4.641.27.286,1.04.491.544,1.113-.468.587-1.052,1.08-1.891,1.921" transform="translate(-5.889 -1.013)" fill="#fff"/>
        <path id="Trazado_836321" data-name="Trazado 836321" d="M21.02,51.654a8.51,8.51,0,0,0-.694.533c-.513.491-1.01,1-1.514,1.5a1.665,1.665,0,0,1-2.877-.658c-.188-.583.351-.735.61-1.032.71-.815,2.038-1.6,2.033-2.389s-1.236-1.686-2.074-2.355c-1.086-.866-.334-1.3.225-1.9s.987-1.073,1.776-.169c.738.845,1.473,2.245,2.488,2.154.842-.076,1.641-1.334,2.336-2.17.832-1,1.252-.242,1.779.275s1.213.92.242,1.765c-.84.731-2.242,1.451-2.135,2.487.088.855,1.3,1.67,2.138,2.353,1.013.828.255,1.237-.255,1.758-.526.537-.969,1.251-1.778.253-.686-.847-1.507-1.582-2.3-2.4" transform="translate(-2.703 -7.597)" fill="#fff"/>
      </g>
    </g>
  </g>
</svg>
