<svg xmlns="http://www.w3.org/2000/svg" xmlns:xlink="http://www.w3.org/1999/xlink" width="120" height="120" viewBox="0 0 120 120">
  <defs>
    <clipPath id="clip-path">
      <rect id="Rectángulo_380784" data-name="Rectángulo 380784" width="85.394" height="89.393" fill="none"/>
    </clipPath>
  </defs>
  <g id="Grupo_1082951" data-name="Grupo 1082951" transform="translate(-180 -8487)">
    <g id="Grupo_1071460" data-name="Grupo 1071460" transform="translate(-89 7529)">
      <circle id="Elipse_5614" data-name="Elipse 5614" cx="60" cy="60" r="60" transform="translate(269 958)" fill="#304c8e"/>
    </g>
    <g id="Grupo_1082623" data-name="Grupo 1082623" transform="translate(196.883 8502.304)">
      <g id="Grupo_1082622" data-name="Grupo 1082622" clip-path="url(#clip-path)">
        <path id="Trazado_837668" data-name="Trazado 837668" d="M64.409,140.351a30.979,30.979,0,0,1-31.13-31.084c.015-17.045,14.035-31.2,31.08-31.057a31.071,31.071,0,1,1,.05,62.142m.053-2.925a28.157,28.157,0,1,0-28.221-27.981,27.922,27.922,0,0,0,28.221,27.981" transform="translate(-21.683 -50.957)" fill="#fff"/>
        <path id="Trazado_837669" data-name="Trazado 837669" d="M92.5,7.653c4.514-.073,3.55.6,4.98-3.564.282-.822.554-1.649.823-2.475C98.564.821,98.836.021,99.861,0s1.343.74,1.6,1.547c.482,1.489,1.029,2.96,1.445,4.467a1.917,1.917,0,0,0,2.225,1.655c1.619-.092,3.247-.027,4.871-.017.852.005,1.671.153,1.939,1.118.243.878-.341,1.409-.968,1.869-1.355,1-2.692,2.022-4.091,2.953a1.678,1.678,0,0,0-.769,2.323c.628,1.619,1.087,3.3,1.64,4.951a1.572,1.572,0,0,1-.383,1.9,1.545,1.545,0,0,1-2.067-.144c-1.322-.943-2.68-1.845-3.933-2.873a1.961,1.961,0,0,0-2.9-.04c-1.244,1.038-2.608,1.932-3.93,2.876-.64.458-1.322.792-2.068.22a1.625,1.625,0,0,1-.4-2.043c.5-1.483.869-3.02,1.488-4.45.609-1.409.21-2.23-1.014-3-1.324-.828-2.551-1.815-3.81-2.745-.634-.469-1.167-1.033-.858-1.9.3-.846,1.051-1.007,1.843-1.015.928-.009,1.856,0,2.784,0m3.509,9.888c1.717-.463,2.45-1.925,3.835-1.978,1.455-.056,2.192,1.548,4.078,1.983-2.345-3.231-1.1-5.237,1.9-6.936-3.711.971-5.23-.868-5.977-4.14-.48,3.563-2.4,4.831-5.881,4.236,3.3,1.551,3.962,3.745,2.041,6.836" transform="translate(-57.197 0)" fill="#fff"/>
        <path id="Trazado_837670" data-name="Trazado 837670" d="M180.022,35.321c4.915-.1,3.812.711,5.331-3.673.228-.657.413-1.329.656-1.98.335-.9.428-2.108,1.707-2.122,1.371-.015,1.5,1.246,1.84,2.2.478,1.367.955,2.739,1.337,4.134a1.73,1.73,0,0,0,2,1.448c1.737-.067,3.478-.014,5.217-.009.741,0,1.4.175,1.66.977a1.522,1.522,0,0,1-.75,1.782c-1.4,1.034-2.765,2.12-4.229,3.053a1.75,1.75,0,0,0-.761,2.471c.6,1.568,1.054,3.19,1.585,4.784.256.769.325,1.49-.431,2.025s-1.428.215-2.071-.252c-1.455-1.055-2.938-2.074-4.351-3.183a1.41,1.41,0,0,0-2,.011c-1.429,1.09-2.9,2.126-4.361,3.17-.636.454-1.324.82-2.066.242a1.66,1.66,0,0,1-.4-2.053c.48-1.428.853-2.9,1.434-4.284a2.217,2.217,0,0,0-.979-3.194c-1.33-.816-2.551-1.812-3.806-2.746-.575-.428-1.094-.942-.854-1.745.259-.867.977-1.066,1.79-1.061.928.005,1.855,0,2.5,0m3.872,9.919c1.693-.644,2.494-2.156,3.956-2.11,1.385.044,2.153,1.569,3.881,2.047-1.917-3-1.37-5.177,1.811-6.912-3.9,1.008-5.029-1.3-5.86-4.27-.375,3.394-2.114,4.845-5.64,4.468,3.585,1.491,3.361,3.886,1.851,6.778" transform="translate(-114.459 -17.948)" fill="#fff"/>
        <path id="Trazado_837671" data-name="Trazado 837671" d="M4.529,35.294c4.755-.095,3.606.714,5.183-3.75.29-.819.547-1.649.81-2.478s.632-1.571,1.616-1.555c1,.017,1.284.848,1.544,1.637.525,1.6,1.093,3.179,1.558,4.792a1.64,1.64,0,0,0,1.876,1.367c1.737-.061,3.477-.009,5.216-.012.812,0,1.532.19,1.793,1.056.241.8-.273,1.321-.847,1.749-1.347,1-2.675,2.043-4.081,2.959a1.9,1.9,0,0,0-.808,2.641c.586,1.51,1.017,3.079,1.532,4.617a1.668,1.668,0,0,1-.391,2.056c-.737.58-1.428.226-2.066-.23-1.414-1.012-2.844-2-4.212-3.075a1.584,1.584,0,0,0-2.293-.023c-1.352,1.089-2.8,2.064-4.206,3.083-.639.462-1.309.812-2.063.255a1.619,1.619,0,0,1-.446-2.035c.546-1.649,1.046-3.316,1.641-4.947a1.6,1.6,0,0,0-.7-2.194c-1.452-.952-2.829-2.02-4.23-3.05-.632-.465-1.173-1-.877-1.89S1.136,35.3,1.921,35.3H4.529m7.516-1.409c-.384,3.512-2.207,4.929-5.781,4.557,3.805,1.4,3.3,3.937,2.054,6.759,1.592-.674,2.375-2.076,3.781-2.1s2.169,1.563,4.036,2.024c-2.157-2.993-1.472-5.122,1.616-6.807-3.681.692-5.081-1.184-5.706-4.436" transform="translate(0 -17.926)" fill="#fff"/>
        <path id="Trazado_837672" data-name="Trazado 837672" d="M74.051,144.82a25.736,25.736,0,0,1-25.786-25.8,25.882,25.882,0,1,1,51.763.19A25.75,25.75,0,0,1,74.051,144.82m.087-2.916a22.711,22.711,0,0,0,22.929-22.834,22.921,22.921,0,1,0-45.842-.016A22.712,22.712,0,0,0,74.138,141.9" transform="translate(-31.448 -60.649)" fill="#fff"/>
        <path id="Trazado_837673" data-name="Trazado 837673" d="M97.189,147c-1.857,0-3.715.033-5.571-.01-1.639-.038-3.127-.026-4.392,1.421-.941,1.076-2.428,1.014-3.737.415a3.77,3.77,0,0,1-2.292-3.609c-.042-3.482-.022-6.964-.023-10.446,0-2.5-.006-4.991.011-7.487A3.829,3.829,0,0,1,83.7,123.47a3.717,3.717,0,0,1,4.284,1c1.257,1.247,1.9,1.09,2.63-.6.824-1.919,1.6-3.857,2.432-5.774,1.164-2.7,2.945-3.775,5.219-3.2a5.83,5.83,0,0,1,3.865,5.78,9.49,9.49,0,0,1-.582,2.712c-.717,1.681-.056,2.006,1.488,1.9a40.632,40.632,0,0,1,4.177-.008A4.983,4.983,0,0,1,112.2,131.5c-.708,3.583-1.468,7.156-2.2,10.735-.66,3.229-2.33,4.667-5.671,4.747-2.378.057-4.759.011-7.138.011Zm.378-2.944c2.2,0,4.406-.054,6.606.017a2.609,2.609,0,0,0,2.992-2.435c.657-3.41,1.4-6.8,2.092-10.208.454-2.242-.283-3.159-2.577-3.189-2.376-.031-4.753.028-7.128-.033-1.757-.046-2.263-.8-1.79-2.489.172-.613.392-1.213.595-1.816a8.867,8.867,0,0,0,.633-4.084c-.137-.976-.537-1.819-1.62-2s-1.348.678-1.665,1.433c-.942,2.243-1.894,4.483-2.818,6.733a3.073,3.073,0,0,1-2.494,2.166c-1.158.128-1.391.738-1.383,1.751.033,4.173.056,8.346,0,12.518-.017,1.336.544,1.694,1.774,1.658,2.258-.066,4.52-.019,6.78-.02M84.1,135.978c0,2.786-.018,5.573.013,8.359.008.715-.126,1.728.948,1.733,1.038,0,1-.96,1-1.708q.016-8.185-.006-16.37c0-.737.1-1.709-.963-1.727-1.087-.018-.973.984-.982,1.7-.031,2.67-.012,5.34-.013,8.011" transform="translate(-52.887 -74.768)" fill="#fff"/>
      </g>
    </g>
  </g>
</svg>
