<svg xmlns="http://www.w3.org/2000/svg" xmlns:xlink="http://www.w3.org/1999/xlink" width="141" height="141" viewBox="0 0 141 141">
  <defs>
    <clipPath id="clip-path">
      <rect id="Rectángulo_380414" data-name="Rectángulo 380414" width="76.973" height="84.174" fill="none"/>
    </clipPath>
  </defs>
  <g id="Grupo_1082954" data-name="Grupo 1082954" transform="translate(-1140 -8154.146)">
    <g id="Grupo_1071491" data-name="Grupo 1071491" transform="translate(871 7196.146)">
      <circle id="Elipse_5614" data-name="Elipse 5614" cx="70.5" cy="70.5" r="70.5" transform="translate(269 958)" fill="#304c8e"/>
    </g>
    <g id="Grupo_1082118" data-name="Grupo 1082118" transform="translate(1172.014 8186.537)">
      <g id="Grupo_1082117" data-name="Grupo 1082117" clip-path="url(#clip-path)">
        <path id="Trazado_836336" data-name="Trazado 836336" d="M19.4,48.9c-.481-.606-.955-1.182-1.406-1.776a16.316,16.316,0,0,1-3.4-12.3c.161-1.273-.24-1.521-1.352-1.5-2.457.044-4.916.038-7.374,0A5.535,5.535,0,0,1,.017,27.463q-.035-10.9,0-21.8A5.407,5.407,0,0,1,5.711.019Q17.755-.017,29.8.02a5.5,5.5,0,0,1,5.764,5.473c.127,3.273.044,6.554.03,9.831,0,1.014-.3,1.942-1.527,1.9-1.174-.045-1.248-.991-1.277-1.917-.1-3.237-.109-3.236-3.381-3.236-8.194,0-16.388.037-24.581-.033-1.581-.013-2.076.462-2.042,2.041.094,4.314.02,8.631.039,12.946.011,2.474,1.018,3.474,3.485,3.492,2.677.018,5.354-.025,8.03.019a1.88,1.88,0,0,0,1.928-1.155,16.379,16.379,0,0,1,14.305-9.2,15.246,15.246,0,0,1,9.482,2.6c1.239.818,1.4.394,1.4-.818-.031-4.808-.046-9.615,0-14.422.04-4.035,1.771-6.519,5.016-7.311A8.28,8.28,0,0,1,48.416.035Q59.233.016,70.048.03c4.361.008,6.9,2.558,6.914,6.925q.019,9.833,0,19.666a6.3,6.3,0,0,1-6.635,6.712c-2.677.029-5.355.052-8.03-.012A2.418,2.418,0,0,0,59.9,34.647c-1.084,1.833-2.269,3.605-3.4,5.412-.788,1.261-1.8,2.11-3.38,1.65-1.558-.452-2.064-1.616-2-3.159.055-1.309.007-2.622.007-3.933,0-1.924-1.471-1.113-2.395-1.262-1.078-.174-1.091.5-1.013,1.316A16.759,16.759,0,0,1,44.62,46.753a1.129,1.129,0,0,0,.275,1.816c.757.521,1.026,1.915,2.487,1.233,2.678-1.25,4.3-.93,6.363,1.093q2.4,2.354,4.75,4.752c2.37,2.43,2.336,5.026-.066,7.476-.459.468-.915.941-1.4,1.385a4.643,4.643,0,0,1-6.642.122c-2.009-1.847-3.948-3.781-5.789-5.795a4.3,4.3,0,0,1-.64-5.447c1.023-1.677-.618-2.023-1.22-2.88-.691-.983-1.366-.435-2.064.082a12.23,12.23,0,0,1-3.619,1.885,1.9,1.9,0,0,0-1.466,2.176c.039,7.593.024,15.186.018,22.779,0,4.594-2.133,6.737-6.681,6.739q-11.39.006-22.779,0C2.219,84.163.017,82,.013,78.13Q0,61.906.012,45.682A5.665,5.665,0,0,1,5.937,39.7c1.365-.015,2.732,0,4.1,0,1,0,1.976.154,1.944,1.428-.031,1.258-1.031,1.378-2.011,1.386-1.311.012-2.623-.014-3.934.014-2.069.044-3.177,1.078-3.2,3.112-.037,4.23-.35,3.481,3.419,3.52,3.824.04,7.647.018,11.471,0A2.393,2.393,0,0,0,19.4,48.9M53.953,38.159l.329.073c1.349-2.113,2.729-4.206,4.032-6.347A2.648,2.648,0,0,1,60.873,30.5c2.948.052,5.9.024,8.847.014,3.128-.011,4.419-1.261,4.426-4.331q.02-9.5,0-19.007c-.007-3.016-1.293-4.317-4.263-4.322q-10.568-.018-21.136,0c-3.033,0-4.3,1.253-4.311,4.249-.015,5.571.04,11.142-.031,16.712a7.888,7.888,0,0,0,1.311,4.922,3.758,3.758,0,0,0,4.57,1.731c1.557-.44.587-1.843.844-2.786a3.759,3.759,0,0,0,.033-.653,1.282,1.282,0,0,1,1.179-1.345,1.343,1.343,0,0,1,1.5,1.206,8.032,8.032,0,0,1,.1,1.628q.012,4.82,0,9.64m-36.093,43.2q5.408,0,10.817,0c3.185,0,4.112-.915,4.115-4.063q.01-10.325,0-20.65c0-2.758,0-2.757-2.788-3.076-.27-.031-.537-.126-.807-.132-2.165-.05-4.046-1.407-6.188-1.428-6.173-.059-12.347,0-18.52-.044-1.3-.01-1.7.471-1.69,1.73.04,8.085.01,16.17.028,24.256,0,2.388,1.008,3.384,3.394,3.4,3.879.023,7.757.006,11.636.008M31.148,23.109A13.819,13.819,0,1,0,44.993,36.877,13.716,13.716,0,0,0,31.148,23.109M17.766,9.248H29.555c3.378,0,3.844-.569,3.177-3.881a2.837,2.837,0,0,0-2.951-2.523Q17.746,2.8,5.712,2.85a2.731,2.731,0,0,0-2.877,2.9c-.03.544.039,1.1-.024,1.636C2.644,8.817,3.228,9.3,4.668,9.274c4.364-.075,8.732-.027,13.1-.026M53.632,63.009c1.5-.059,2.216-1.264,3.1-2.2a1.9,1.9,0,0,0-.051-2.912c-1.757-1.8-3.524-3.584-5.333-5.327a1.918,1.918,0,0,0-2.8-.026c-.541.457-1.019.988-1.522,1.489a2.024,2.024,0,0,0,.026,3.266c1.672,1.65,3.326,3.319,4.987,4.98a2.072,2.072,0,0,0,1.6.724" transform="translate(0 0)" fill="#fff"/>
        <path id="Trazado_836337" data-name="Trazado 836337" d="M76.931,20.426c0-.656.005-1.311,0-1.966a1.873,1.873,0,0,1,1.791-2.106c2.357-.407,3.565-1.9,3.431-4.03a3.808,3.808,0,0,0-7.593-.159c-.2,1.01-.451,1.943-1.693,1.672C71.6,13.561,71.61,12.5,71.8,11.466A6.7,6.7,0,0,1,78.2,5.9a6.77,6.77,0,0,1,6.65,5.065,6.568,6.568,0,0,1-3.66,7.625,2.052,2.052,0,0,0-1.456,2.359,17.485,17.485,0,0,1-.012,2.293,1.316,1.316,0,0,1-1.286,1.423,1.3,1.3,0,0,1-1.425-1.289c-.09-.974-.021-1.962-.021-2.945h-.054" transform="translate(-19.18 -1.576)" fill="#fff"/>
        <path id="Trazado_836338" data-name="Trazado 836338" d="M19.852,80.125q4.583,0,9.166,0c.976,0,1.993.064,1.97,1.369-.023,1.236-1,1.431-1.988,1.433q-9.247.015-18.5,0c-.981,0-1.965-.189-1.968-1.443,0-1.3,1.011-1.358,1.986-1.358h9.329" transform="translate(-2.283 -21.432)" fill="#fff"/>
        <path id="Trazado_836339" data-name="Trazado 836339" d="M19.794,89.511q4.581,0,9.162,0c.955,0,2.006,0,2.034,1.3.026,1.233-.932,1.492-1.927,1.494q-9.325.02-18.651,0c-1.009,0-1.927-.323-1.872-1.551.053-1.2,1.017-1.242,1.929-1.242q4.663,0,9.326,0" transform="translate(-2.283 -23.942)" fill="#fff"/>
        <path id="Trazado_836340" data-name="Trazado 836340" d="M21.008,101.641c-1.69,0-3.381.028-5.069-.012-.926-.022-1.832-.308-1.86-1.419-.028-1.126.875-1.457,1.8-1.467q5.23-.054,10.462,0c.931.01,1.821.362,1.778,1.486-.042,1.108-.954,1.382-1.877,1.4-1.744.038-3.489.011-5.233.01" transform="translate(-3.766 -26.405)" fill="#fff"/>
        <path id="Trazado_836341" data-name="Trazado 836341" d="M49.963,46.108a10.373,10.373,0,0,1-.845,4.314c-.351.891-.913,1.609-1.97,1.223s-1.024-1.284-.676-2.191A8.954,8.954,0,0,0,36.4,37.3a9.17,9.17,0,0,0-7.064,7.892,8.981,8.981,0,0,0,5.15,8.927,9.313,9.313,0,0,0,7.181.133c.409-.148.79-.371,1.187-.554.845-.39,1.644-.393,2.1.537a1.384,1.384,0,0,1-.762,1.914A11.406,11.406,0,0,1,35.2,57.4,11.781,11.781,0,1,1,49.812,43.987a20.006,20.006,0,0,1,.151,2.121" transform="translate(-7.07 -9.153)" fill="#fff"/>
      </g>
    </g>
  </g>
</svg>
