<svg xmlns="http://www.w3.org/2000/svg" xmlns:xlink="http://www.w3.org/1999/xlink" width="120" height="120" viewBox="0 0 120 120">
  <defs>
    <clipPath id="clip-path">
      <rect id="Rectángulo_380785" data-name="Rectángulo 380785" width="90.106" height="90.033" fill="none"/>
    </clipPath>
  </defs>
  <g id="Grupo_1082950" data-name="Grupo 1082950" transform="translate(-810 -8487)">
    <g id="Grupo_1071462" data-name="Grupo 1071462" transform="translate(541 7529)">
      <circle id="Elipse_5614" data-name="Elipse 5614" cx="60" cy="60" r="60" transform="translate(269 958)" fill="#304c8e"/>
    </g>
    <g id="Grupo_1082625" data-name="Grupo 1082625" transform="translate(825.547 8502.534)">
      <g id="Grupo_1082624" data-name="Grupo 1082624" clip-path="url(#clip-path)">
        <path id="Trazado_837674" data-name="Trazado 837674" d="M45.306,90.021c-2.793,0-5.587-.025-8.38.011-1.575.021-2.259-.689-2.239-2.253.036-2.731-.03-5.464.023-8.194a1.887,1.887,0,0,0-1.424-2.063c-4.4-1.68-3.093-2.085-6.576,1.313-1.377,1.344-2.719,2.725-4.093,4.071a1.938,1.938,0,0,1-2.973.164C13.749,77.37,7.924,71.661,4.3,64.062-8.759,36.633,9.324,3.778,39.506.336c14.562-1.661,27.03,2.865,37.5,13.04,1.914,1.86,3.8,3.756,5.662,5.664,1.472,1.5,1.483,2.3.039,3.787-1.775,1.824-3.551,3.65-5.409,5.389a2.283,2.283,0,0,0-.554,2.965c1.465,3.414,1.422,3.432,5.194,3.433,1.987,0,3.974.025,5.96,0,1.443-.021,2.213.57,2.21,2.084q-.02,8.473,0,16.948c0,1.5-.726,2.125-2.185,2.111-2.669-.025-5.34.048-8.008-.025a2.093,2.093,0,0,0-2.365,1.546c-1.576,4.222-2.056,2.975,1.321,6.42,1.348,1.374,2.724,2.72,4.076,4.089a2.058,2.058,0,0,1,0,3.26Q77.03,76.974,71.095,82.89a2.056,2.056,0,0,1-3.259-.044c-1.849-1.838-3.737-3.641-5.517-5.544a2.381,2.381,0,0,0-3.111-.618c-3.353,1.472-3.375,1.42-3.377,5.046,0,2.049-.023,4.1,0,6.146.018,1.477-.664,2.163-2.145,2.15-2.793-.024-5.587-.007-8.381-.006M45,62.712c1.111-.088,2.236-.1,3.331-.288a16.343,16.343,0,0,0,3.042-.834C62.909,57.182,66.4,43.256,58.45,33.44c-1.535-1.894-1.529-2.344.175-4.061,2.931-2.95,5.88-5.881,8.817-8.824,1.754-1.756,1.778-1.793-.22-3.324A34.913,34.913,0,0,0,41.978,9.84,34.276,34.276,0,0,0,18.784,21.5C11.6,29.548,8.771,39.055,10.026,49.73a34.343,34.343,0,0,0,7.662,17.9c.8.981,1.4,1.377,2.482.246,3.007-3.134,6.117-6.17,9.2-9.234,1.829-1.819,2.236-1.848,4.193-.23A17.486,17.486,0,0,0,45,62.712m.214,24.059c1.924,0,3.85-.048,5.771.017,1.232.042,1.636-.469,1.61-1.653-.055-2.482.042-4.967-.035-7.447a2.483,2.483,0,0,1,2.008-2.867,22.276,22.276,0,0,0,5.146-2.137,2.513,2.513,0,0,1,3.467.6c1.666,1.755,3.437,3.409,5.113,5.154.787.819,1.411,1.024,2.3.1q3.958-4.073,8.03-8.032c.924-.9.7-1.523-.115-2.3-1.787-1.723-3.5-3.524-5.281-5.25a2.352,2.352,0,0,1-.54-3.163A27.106,27.106,0,0,0,74.965,54.3a2.324,2.324,0,0,1,2.629-1.816c2.543.059,5.09-.025,7.633.031,1.2.026,1.659-.4,1.643-1.621-.049-3.786-.059-7.573.005-11.357.022-1.34-.524-1.717-1.772-1.686-2.543.062-5.09-.019-7.633.029a2.242,2.242,0,0,1-2.483-1.755,27.929,27.929,0,0,0-2.269-5.5,2.342,2.342,0,0,1,.471-3.172c1.434-1.373,2.823-2.794,4.215-4.21,2.516-2.558,2.519-1.914-.035-4.676-1.2-1.294-1.958-1.178-3.128.033q-5.627,5.823-11.454,11.452c-1.106,1.068-1.232,1.779-.3,3.087A20.126,20.126,0,0,1,65.58,50.68,20.98,20.98,0,0,1,33.364,62.5c-1.43-.977-2.2-.9-3.376.338-3.334,3.508-6.838,6.852-10.231,10.306-2.863,2.914-3.073,2.03.1,5.32.943.98,1.594.806,2.441-.086,1.667-1.754,3.439-3.407,5.113-5.155a2.433,2.433,0,0,1,3.312-.587,24.872,24.872,0,0,0,5.32,2.207,2.409,2.409,0,0,1,1.924,2.741c-.069,2.481.029,4.966-.036,7.447-.033,1.262.369,1.815,1.7,1.758,1.859-.08,3.723-.02,5.585-.022M6.385,45.3a33.086,33.086,0,0,1,.764-7.957C10.454,20.159,26.426,6.644,43.6,6.289a39.363,39.363,0,0,1,26.7,9.075c.815.668,1.474,1.1,2.3.028.885-1.144-.145-1.566-.752-2.056C61.638,5.1,50.031,1.965,37.161,4.528,14.74,8.992.491,30.092,4.459,52.693A40.922,40.922,0,0,0,13.577,72c.725.872,1.343,1.2,2.234.19.94-1.065-.09-1.592-.563-2.176A38.67,38.67,0,0,1,6.385,45.3" transform="translate(0 0)" fill="#fff"/>
        <path id="Trazado_837675" data-name="Trazado 837675" d="M56.316,37.993c0,2.355.035,4.712-.013,7.067a2.035,2.035,0,0,0,1.213,2.048,6.116,6.116,0,1,1-8.252,8.214A2.042,2.042,0,0,0,47.2,54.136c-2.728.039-5.455.008-8.183.011-1.127,0-2.238-.132-2.27-1.566-.036-1.563,1.14-1.686,2.335-1.685,2.666,0,5.332-.033,8,.014a1.986,1.986,0,0,0,2.21-1.251A3.51,3.51,0,0,1,51.094,47.6c1.9-.72,2.03-2.132,2-3.857-.083-4.276-.024-8.555-.027-12.832,0-1.12.1-2.245,1.539-2.3,1.558-.056,1.716,1.1,1.713,2.308q-.009,3.533,0,7.067M57.443,52.44a2.755,2.755,0,1,0-2.671,2.837,2.937,2.937,0,0,0,2.671-2.837" transform="translate(-9.427 -7.341)" fill="#fff"/>
        <path id="Trazado_837676" data-name="Trazado 837676" d="M56.836,72.026a14.517,14.517,0,0,1-9.706-3.692c-.946-.806-1.85-1.734-.794-2.969,1.084-1.266,2.066-.4,3.018.39,3.963,3.3,8.351,3.987,12.981,1.69,4.42-2.192,6.514-5.983,6.456-10.866a10.941,10.941,0,0,0-3.033-7.408c-.548-.6-1.12-1.2-.865-2.125.4-1.438,1.995-1.593,3.241-.32a15.094,15.094,0,0,1,2.69,16.29c-2.748,5.922-7.513,8.828-13.988,9.011" transform="translate(-11.766 -11.766)" fill="#fff"/>
        <path id="Trazado_837677" data-name="Trazado 837677" d="M41.345,24.6a1.607,1.607,0,0,1-.946,1.469,1.3,1.3,0,0,1-1.554-.17,7.528,7.528,0,0,1-2.126-3.6,1.434,1.434,0,0,1,.67-1.6,1.6,1.6,0,0,1,1.75-.04A7.858,7.858,0,0,1,41.345,24.6" transform="translate(-9.407 -5.236)" fill="#fff"/>
        <path id="Trazado_837678" data-name="Trazado 837678" d="M78.8,24.4c.218-1.789,2.143-4.113,3.233-3.951a1.548,1.548,0,0,1,1.382,2c-.269,1.788-2.2,3.994-3.287,3.745A1.574,1.574,0,0,1,78.8,24.4" transform="translate(-20.215 -5.244)" fill="#fff"/>
        <path id="Trazado_837679" data-name="Trazado 837679" d="M22.471,36.6a8.2,8.2,0,0,1,3.547,2.171,1.335,1.335,0,0,1,.049,1.717,1.519,1.519,0,0,1-1.757.716,8.242,8.242,0,0,1-3.339-1.9,1.484,1.484,0,0,1-.255-1.875,1.661,1.661,0,0,1,1.755-.824" transform="translate(-5.259 -9.389)" fill="#fff"/>
        <path id="Trazado_837680" data-name="Trazado 837680" d="M22.455,83.335a1.651,1.651,0,0,1-1.753-.84,1.484,1.484,0,0,1,.279-1.874,8.348,8.348,0,0,1,3.35-1.9,1.523,1.523,0,0,1,1.754.734,1.337,1.337,0,0,1-.074,1.719,8.223,8.223,0,0,1-3.556,2.16" transform="translate(-5.258 -20.181)" fill="#fff"/>
        <path id="Trazado_837681" data-name="Trazado 837681" d="M58.7,17.65c0-.372,0-.743,0-1.114.008-1.129.392-2,1.683-1.961,1.18.031,1.541.86,1.552,1.907.007.743.006,1.485,0,2.228-.007,1.13-.4,2-1.684,1.963-1.18-.031-1.538-.862-1.551-1.908,0-.372,0-.743,0-1.114" transform="translate(-15.06 -3.739)" fill="#fff"/>
        <path id="Trazado_837682" data-name="Trazado 837682" d="M17.7,58.594c.372,0,.743,0,1.114,0,1.129.008,2,.392,1.962,1.682-.03,1.18-.859,1.542-1.906,1.552-.743.007-1.485.005-2.228,0-1.13-.006-2-.394-1.963-1.683.03-1.181.86-1.539,1.906-1.552.372,0,.743,0,1.114,0" transform="translate(-3.767 -15.032)" fill="#fff"/>
      </g>
    </g>
  </g>
</svg>
